SplineFontDB: 3.2
FontName: AcariSans-BoldItalic
FullName: Acari Sans Bold Italic
FamilyName: Acari Sans
Weight: Bold
Copyright: Copyright (c)2015, HK Grotesk Latin by Alfredo Marco Pradil (ammpradil@gmail.com) and HK Grotesk Cyrillic by Stefan Peev (http://www.contextbg.net/). HK Grotesk is a trademark of Alfredo Marco Pradil. Copyright (c) 2018-2023 The Acari Sans Project Authors (https://github.com/cssobral2013/acari-sans)
Version: 1.063; ttfautohint (v1.8.3)
ItalicAngle: -13
UnderlinePosition: -250
UnderlineWidth: 100
Ascent: 1600
Descent: 400
InvalidEm: 0
sfntRevision: 0x00011020
LayerCount: 2
Layer: 0 1 "Back" 1
Layer: 1 1 "Fore" 0
XUID: [1021 467 -1401554168 1794704]
StyleMap: 0x0021
FSType: 0
OS2Version: 4
OS2_WeightWidthSlopeOnly: 0
OS2_UseTypoMetrics: 1
CreationTime: 1480856841
ModificationTime: 1686781670
PfmFamily: 81
TTFWeight: 700
TTFWidth: 5
LineGap: 26
VLineGap: 0
Panose: 0 0 0 0 0 0 0 0 0 0
OS2TypoAscent: 1900
OS2TypoAOffset: 0
OS2TypoDescent: -487
OS2TypoDOffset: 0
OS2TypoLinegap: 26
OS2WinAscent: 1913
OS2WinAOffset: 0
OS2WinDescent: 500
OS2WinDOffset: 0
HheadAscent: 1900
HheadAOffset: 0
HheadDescent: -487
HheadDOffset: 0
OS2SubXSize: 1331
OS2SubYSize: 1228
OS2SubXOff: 0
OS2SubYOff: 153
OS2SupXSize: 1331
OS2SupYSize: 1228
OS2SupXOff: 0
OS2SupYOff: 716
OS2StrikeYSize: 82
OS2StrikeYPos: 599
OS2CapHeight: 1413
OS2XHeight: 1039
OS2Vendor: 'AMSP'
OS2CodePages: 20000197.00000000
OS2UnicodeRanges: 2000020f.10000001.00000000.00000000
Lookup: 1 0 0 "'aalt' Access All Alternates lookup 0" { "'aalt' Access All Alternates lookup 0 subtable"  } ['aalt' ('DFLT' <'dflt' > 'cyrl' <'BGR ' 'RUS ' 'SRB ' 'dflt' > 'latn' <'AZE ' 'CRT ' 'KAZ ' 'MOL ' 'ROM ' 'TAT ' 'TRK ' 'dflt' > ) ]
Lookup: 3 0 0 "'aalt' Access All Alternates lookup 1" { "'aalt' Access All Alternates lookup 1 subtable"  } ['aalt' ('DFLT' <'dflt' > 'cyrl' <'BGR ' 'RUS ' 'SRB ' 'dflt' > 'latn' <'AZE ' 'CRT ' 'KAZ ' 'MOL ' 'ROM ' 'TAT ' 'TRK ' 'dflt' > ) ]

StartChar: .notdef
Encoding: 65536 -1 0
Width: 1257
GlyphClass: 1
Flags: W
LayerCount: 2
Fore
SplineSet
924 0 m 1,0,-1
 104 0 l 1,1,-1
 324 954 l 1,2,-1
 1143 954 l 1,3,-1
 924 0 l 1,0,-1
844 102 m 1,4,-1
 1018 852 l 1,5,-1
 403 852 l 1,6,-1
 229 102 l 1,7,-1
 844 102 l 1,4,-1
EndSplineSet
EndChar

StartChar: exclam
Encoding: 33 33 4
Width: 635
GlyphClass: 1
Flags: W
LayerCount: 2
Fore
SplineSet
393 428 m 1,0,-1
 209 428 l 1,1,-1
 412 1434 l 1,2,-1
 653 1434 l 1,3,-1
 393 428 l 1,0,-1
336 0 m 1,4,-1
 70 0 l 1,5,-1
 129 264 l 1,6,-1
 395 264 l 1,7,-1
 336 0 l 1,4,-1
EndSplineSet
EndChar

StartChar: quotedbl
Encoding: 34 34 5
Width: 958
GlyphClass: 1
Flags: W
LayerCount: 2
Fore
SplineSet
492 866 m 1,0,-1
 287 866 l 1,1,-1
 414 1413 l 1,2,-1
 618 1413 l 1,3,-1
 492 866 l 1,0,-1
840 866 m 1,4,-1
 635 866 l 1,5,-1
 762 1413 l 1,6,-1
 967 1413 l 1,7,-1
 840 866 l 1,4,-1
EndSplineSet
EndChar

StartChar: numbersign
Encoding: 35 35 6
Width: 1382
GlyphClass: 1
Flags: W
LayerCount: 2
Fore
SplineSet
735 0 m 1,0,-1
 543 0 l 1,1,-1
 735 436 l 1,2,-1
 487 436 l 1,3,-1
 297 0 l 1,4,-1
 104 0 l 1,5,-1
 291 414 l 1,6,-1
 57 414 l 1,7,-1
 98 586 l 1,8,-1
 367 586 l 1,9,-1
 481 848 l 1,10,-1
 240 848 l 1,11,-1
 283 1028 l 1,12,-1
 559 1028 l 1,13,-1
 748 1434 l 1,14,-1
 942 1434 l 1,15,-1
 745 997 l 1,16,-1
 991 997 l 1,17,-1
 1186 1434 l 1,18,-1
 1380 1434 l 1,19,-1
 1190 1020 l 1,20,-1
 1423 1020 l 1,21,-1
 1382 848 l 1,22,-1
 1114 848 l 1,23,-1
 999 586 l 1,24,-1
 1241 586 l 1,25,-1
 1198 406 l 1,26,-1
 922 406 l 1,27,-1
 735 0 l 1,0,-1
807 586 m 1,28,-1
 922 848 l 1,29,-1
 674 848 l 1,30,-1
 559 586 l 1,31,-1
 807 586 l 1,28,-1
EndSplineSet
EndChar

StartChar: dollar
Encoding: 36 36 7
Width: 1114
GlyphClass: 1
Flags: W
LayerCount: 2
Fore
SplineSet
492 -246 m 1,0,-1
 291 -246 l 1,1,-1
 352 -10 l 1,2,3
 261 7 261 7 185.5 54 c 128,-1,4
 110 101 110 101 64.5 178.5 c 128,-1,5
 19 256 19 256 19 363 c 2,6,-1
 20 395 l 1,7,-1
 270 428 l 1,8,-1
 268 397 l 1,9,10
 268 331 268 331 297.5 290 c 128,-1,11
 327 249 327 249 380 230 c 128,-1,12
 433 211 433 211 502 211 c 0,13,14
 614 211 614 211 693.5 262.5 c 128,-1,15
 773 314 773 314 801 426 c 0,16,17
 805 446 805 446 805 456 c 0,18,19
 805 499 805 499 776.5 531 c 128,-1,20
 748 563 748 563 704.5 586 c 128,-1,21
 661 609 661 609 586 642 c 0,22,23
 479 689 479 689 413.5 730 c 128,-1,24
 348 771 348 771 306 830 c 0,25,26
 259 894 259 894 259 986 c 0,27,28
 259 1102 259 1102 316 1193.5 c 128,-1,29
 373 1285 373 1285 466 1346 c 128,-1,30
 559 1407 559 1407 672 1430 c 1,31,-1
 731 1659 l 1,32,-1
 932 1659 l 1,33,-1
 872 1430 l 1,34,35
 973 1413 973 1413 1048 1354 c 128,-1,36
 1123 1295 1123 1295 1159 1190 c 1,37,-1
 936 1090 l 1,38,39
 897 1214 897 1214 748 1214 c 0,40,41
 666 1214 666 1214 599.5 1166 c 128,-1,42
 533 1118 533 1118 514 1042 c 0,43,44
 511 1029 511 1029 511 1016 c 0,45,46
 511 977 511 977 538 948 c 128,-1,47
 565 919 565 919 605.5 897.5 c 128,-1,48
 646 876 646 876 719 844 c 0,49,50
 828 798 828 798 895 755.5 c 128,-1,51
 962 713 962 713 1006 652 c 0,52,53
 1054 585 1054 585 1054 488 c 0,54,55
 1054 389 1054 389 1016 304.5 c 128,-1,56
 978 220 978 220 914 155 c 128,-1,57
 850 90 850 90 770 49 c 0,58,59
 667 -5 667 -5 551 -18 c 1,60,-1
 492 -246 l 1,0,-1
EndSplineSet
EndChar

StartChar: percent
Encoding: 37 37 8
Width: 1540
GlyphClass: 1
Flags: W
LayerCount: 2
Fore
SplineSet
356 -20 m 1,0,-1
 139 -20 l 1,1,-1
 1270 1454 l 1,2,-1
 1487 1454 l 1,3,-1
 356 -20 l 1,0,-1
436 768 m 0,4,5
 314 768 314 768 260.5 840.5 c 128,-1,6
 207 913 207 913 207 1020 c 0,7,8
 207 1078 207 1078 225 1145.5 c 128,-1,9
 243 1213 243 1213 283 1276 c 0,10,11
 385 1436 385 1436 557 1436 c 0,12,13
 670 1436 670 1436 726 1363 c 128,-1,14
 782 1290 782 1290 782 1181 c 0,15,16
 782 1110 782 1110 758 1037 c 128,-1,17
 734 964 734 964 689 903.5 c 128,-1,18
 644 843 644 843 580 805.5 c 128,-1,19
 516 768 516 768 436 768 c 0,4,5
444 940 m 0,20,21
 497 940 497 940 540 995.5 c 128,-1,22
 583 1051 583 1051 600 1124 c 0,23,24
 607 1157 607 1157 607 1177 c 0,25,26
 607 1214 607 1214 591 1238 c 128,-1,27
 575 1262 575 1262 543 1262 c 0,28,29
 489 1262 489 1262 446.5 1209.5 c 128,-1,30
 404 1157 404 1157 385 1079 c 0,31,32
 379 1051 379 1051 379 1026 c 0,33,34
 379 940 379 940 444 940 c 0,20,21
1083 -10 m 0,35,36
 962 -10 962 -10 909 63 c 128,-1,37
 856 136 856 136 856 244 c 0,38,39
 856 304 856 304 874.5 372.5 c 128,-1,40
 893 441 893 441 933 505 c 0,41,42
 1036 668 1036 668 1208 668 c 0,43,44
 1322 668 1322 668 1377 595.5 c 128,-1,45
 1432 523 1432 523 1432 413 c 0,46,47
 1432 353 1432 353 1412.5 283 c 128,-1,48
 1393 213 1393 213 1351 148.5 c 128,-1,49
 1309 84 1309 84 1240 37 c 128,-1,50
 1171 -10 1171 -10 1083 -10 c 0,35,36
1096 162 m 0,51,52
 1146 162 1146 162 1188.5 218 c 128,-1,53
 1231 274 1231 274 1249 352 c 0,54,55
 1256 380 1256 380 1256 407 c 0,56,57
 1256 444 1256 444 1240.5 469 c 128,-1,58
 1225 494 1225 494 1194 494 c 0,59,60
 1139 494 1139 494 1096 439.5 c 128,-1,61
 1053 385 1053 385 1034 305 c 0,62,63
 1027 277 1027 277 1027 249 c 0,64,65
 1027 211 1027 211 1043.5 186.5 c 128,-1,66
 1060 162 1060 162 1096 162 c 0,51,52
EndSplineSet
EndChar

StartChar: ampersand
Encoding: 38 38 9
Width: 1378
GlyphClass: 1
Flags: W
LayerCount: 2
Fore
SplineSet
1024 -76 m 1,0,-1
 889 134 l 1,1,2
 788 61 788 61 672 19 c 128,-1,3
 556 -23 556 -23 432 -23 c 0,4,5
 318 -23 318 -23 228 10.5 c 128,-1,6
 138 44 138 44 85.5 109 c 128,-1,7
 33 174 33 174 33 269 c 0,8,9
 33 352 33 352 66 424.5 c 128,-1,10
 99 497 99 497 153.5 557 c 128,-1,11
 208 617 208 617 274 662 c 0,12,13
 357 719 357 719 469 778 c 1,14,15
 428 833 428 833 399.5 896 c 128,-1,16
 371 959 371 959 371 1037 c 0,17,18
 371 1105 371 1105 396.5 1168.5 c 128,-1,19
 422 1232 422 1232 474 1284 c 0,20,21
 549 1357 549 1357 644 1393.5 c 128,-1,22
 739 1430 739 1430 829 1430 c 0,23,24
 927 1430 927 1430 997.5 1392.5 c 128,-1,25
 1068 1355 1068 1355 1106.5 1291.5 c 128,-1,26
 1145 1228 1145 1228 1145 1150 c 0,27,28
 1145 1110 1145 1110 1137 1077 c 0,29,30
 1111 964 1111 964 1025.5 878.5 c 128,-1,31
 940 793 940 793 804 714 c 1,32,-1
 945 502 l 1,33,34
 1006 601 1006 601 1030 707 c 1,35,-1
 1257 662 l 1,36,37
 1206 472 1206 472 1074 309 c 1,38,-1
 1227 78 l 1,39,-1
 1024 -76 l 1,0,-1
664 877 m 1,40,41
 779 938 779 938 843 994.5 c 128,-1,42
 907 1051 907 1051 922 1118 c 0,43,44
 925 1133 925 1133 925 1147 c 0,45,46
 925 1186 925 1186 898.5 1212.5 c 128,-1,47
 872 1239 872 1239 815 1239 c 0,48,49
 749 1239 749 1239 687.5 1196 c 128,-1,50
 626 1153 626 1153 604 1071 c 0,51,52
 602 1063 602 1063 602 1047 c 0,53,54
 602 979 602 979 664 877 c 1,40,41
449 184 m 0,55,56
 539 184 539 184 622 217 c 128,-1,57
 705 250 705 250 776 307 c 1,58,-1
 589 597 l 1,59,60
 448 522 448 522 368 455 c 128,-1,61
 288 388 288 388 268 303 c 0,62,63
 265 291 265 291 265 280 c 0,64,65
 265 230 265 230 315.5 207 c 128,-1,66
 366 184 366 184 449 184 c 0,55,56
EndSplineSet
EndChar

StartChar: quotesingle
Encoding: 39 39 10
Width: 610
GlyphClass: 1
Flags: W
LayerCount: 2
Fore
SplineSet
500 895 m 1,0,-1
 295 895 l 1,1,-1
 420 1442 l 1,2,-1
 625 1442 l 1,3,-1
 500 895 l 1,0,-1
EndSplineSet
EndChar

StartChar: parenleft
Encoding: 40 40 11
Width: 573
GlyphClass: 1
Flags: W
LayerCount: 2
Fore
SplineSet
410 -117 m 1,0,-1
 209 -117 l 1,1,2
 157 -44 157 -44 132.5 73.5 c 128,-1,3
 108 191 108 191 108 329 c 0,4,5
 108 565 108 565 169.5 797.5 c 128,-1,6
 231 1030 231 1030 328 1211 c 0,7,8
 438 1418 438 1418 578 1542 c 1,9,-1
 803 1542 l 1,10,11
 456 1214 456 1214 334 680 c 0,12,13
 289 484 289 484 289 327 c 0,14,15
 289 101 289 101 410 -117 c 1,0,-1
EndSplineSet
EndChar

StartChar: parenright
Encoding: 41 41 12
Width: 573
GlyphClass: 1
Flags: W
LayerCount: 2
Fore
SplineSet
86 -133 m 1,0,-1
 -131 -133 l 1,1,2
 47 44 47 44 162 257 c 0,3,4
 268 450 268 450 332 725 c 0,5,6
 376 913 376 913 376 1076 c 0,7,8
 376 1324 376 1324 258 1526 c 1,9,-1
 465 1526 l 1,10,11
 568 1370 568 1370 568 1101 c 0,12,13
 568 866 568 866 492 596 c 0,14,15
 414 317 414 317 264 80 c 0,16,17
 178 -56 178 -56 86 -133 c 1,0,-1
EndSplineSet
EndChar

StartChar: asterisk
Encoding: 42 42 13
Width: 901
GlyphClass: 1
Flags: W
LayerCount: 2
Fore
SplineSet
643 834 m 1,0,-1
 580 1042 l 1,1,-1
 422 834 l 1,2,-1
 283 936 l 1,3,-1
 475 1096 l 1,4,-1
 256 1126 l 1,5,-1
 354 1294 l 1,6,-1
 547 1212 l 1,7,-1
 565 1413 l 1,8,-1
 760 1413 l 1,9,-1
 684 1212 l 1,10,-1
 909 1294 l 1,11,-1
 932 1126 l 1,12,-1
 696 1096 l 1,13,-1
 819 936 l 1,14,-1
 643 834 l 1,0,-1
EndSplineSet
EndChar

StartChar: plus
Encoding: 43 43 14
Width: 1253
GlyphClass: 1
Flags: W
LayerCount: 2
Fore
SplineSet
719 106 m 1,0,-1
 535 106 l 1,1,-1
 535 532 l 1,2,-1
 78 532 l 1,3,-1
 78 717 l 1,4,-1
 535 717 l 1,5,-1
 535 1143 l 1,6,-1
 719 1143 l 1,7,-1
 719 717 l 1,8,-1
 1176 717 l 1,9,-1
 1176 532 l 1,10,-1
 719 532 l 1,11,-1
 719 106 l 1,0,-1
EndSplineSet
EndChar

StartChar: comma
Encoding: 44 44 15
Width: 600
GlyphClass: 1
Flags: W
LayerCount: 2
Fore
SplineSet
87 -225 m 1,0,-1
 -77 -225 l 1,1,-1
 136 264 l 1,2,-1
 420 264 l 1,3,-1
 87 -225 l 1,0,-1
EndSplineSet
EndChar

StartChar: hyphen
Encoding: 45 45 16
Width: 866
GlyphClass: 1
Flags: W
LayerCount: 2
Fore
SplineSet
733 532 m 1,0,-1
 150 532 l 1,1,-1
 190 717 l 1,2,-1
 774 717 l 1,3,-1
 733 532 l 1,0,-1
EndSplineSet
EndChar

StartChar: period
Encoding: 46 46 17
Width: 600
GlyphClass: 1
Flags: W
LayerCount: 2
Fore
SplineSet
315 0 m 1,0,-1
 69 0 l 1,1,-1
 128 264 l 1,2,-1
 374 264 l 1,3,-1
 315 0 l 1,0,-1
EndSplineSet
EndChar

StartChar: slash
Encoding: 47 47 18
Width: 934
GlyphClass: 1
Flags: W
LayerCount: 2
Fore
SplineSet
-23 -430 m 1,0,-1
 -254 -430 l 1,1,-1
 975 1516 l 1,2,-1
 1208 1516 l 1,3,-1
 -23 -430 l 1,0,-1
EndSplineSet
EndChar

StartChar: zero
Encoding: 48 48 19
Width: 1200
GlyphClass: 1
Flags: W
LayerCount: 2
Fore
SplineSet
500 -20 m 0,0,1
 393 -20 393 -20 316.5 19.5 c 128,-1,2
 240 59 240 59 191.5 128 c 128,-1,3
 143 197 143 197 120 290.5 c 128,-1,4
 97 384 97 384 97 492 c 0,5,6
 97 607 97 607 123 729.5 c 128,-1,7
 149 852 149 852 197.5 965 c 128,-1,8
 246 1078 246 1078 315.5 1173.5 c 128,-1,9
 385 1269 385 1269 472 1331 c 0,10,11
 541 1380 541 1380 619.5 1408 c 128,-1,12
 698 1436 698 1436 788 1436 c 0,13,14
 860 1436 860 1436 916.5 1416 c 128,-1,15
 973 1396 973 1396 1017.5 1360 c 128,-1,16
 1062 1324 1062 1324 1094 1274.5 c 128,-1,17
 1126 1225 1126 1225 1148 1166 c 0,18,19
 1168 1114 1168 1114 1176.5 1059.5 c 128,-1,20
 1185 1005 1185 1005 1187 948 c 2,21,-1
 1188 927 l 1,22,-1
 1188 907 l 2,23,24
 1187 801 1187 801 1164 691.5 c 128,-1,25
 1141 582 1141 582 1098 479 c 128,-1,26
 1055 376 1055 376 994.5 285 c 128,-1,27
 934 194 934 194 857.5 126.5 c 128,-1,28
 781 59 781 59 691 19.5 c 128,-1,29
 601 -20 601 -20 500 -20 c 0,0,1
540 221 m 0,30,31
 594 221 594 221 639 245.5 c 128,-1,32
 684 270 684 270 720.5 307.5 c 128,-1,33
 757 345 757 345 785 389.5 c 128,-1,34
 813 434 813 434 832.5 474 c 128,-1,35
 852 514 852 514 863 543 c 128,-1,36
 874 572 874 572 876 579 c 0,37,38
 905 660 905 660 921.5 742.5 c 128,-1,39
 938 825 938 825 938 906 c 0,40,41
 938 952 938 952 931 1002 c 128,-1,42
 924 1052 924 1052 903 1094 c 128,-1,43
 882 1136 882 1136 844 1163 c 128,-1,44
 806 1190 806 1190 744 1190 c 0,45,46
 680 1190 680 1190 627 1159.5 c 128,-1,47
 574 1129 574 1129 532 1080.5 c 128,-1,48
 490 1032 490 1032 458 972 c 128,-1,49
 426 912 426 912 403.5 852 c 128,-1,50
 381 792 381 792 367.5 738.5 c 128,-1,51
 354 685 354 685 348 650 c 0,52,53
 341 611 341 611 337.5 575.5 c 128,-1,54
 334 540 334 540 334 508 c 0,55,56
 334 458 334 458 342 407 c 128,-1,57
 350 356 350 356 372.5 314.5 c 128,-1,58
 395 273 395 273 435.5 247 c 128,-1,59
 476 221 476 221 540 221 c 0,30,31
EndSplineSet
Substitution2: "'subs' Subscript lookup 20 subtable" uni2080
Substitution2: "'sinf' Scientific Inferiors lookup 19 subtable" uni2080
Substitution2: "'sups' Superscript lookup 17 subtable" uni2070
AlternateSubs2: "'aalt' Access All Alternates lookup 1 subtable" uni2070 uni2080
EndChar

StartChar: one
Encoding: 49 49 20
Width: 1200
GlyphClass: 1
Flags: W
LayerCount: 2
Fore
SplineSet
700 0 m 1,0,-1
 450 0 l 1,1,-1
 688 1030 l 1,2,-1
 375 1030 l 1,3,-1
 418 1223 l 1,4,-1
 584 1223 l 2,5,6
 653 1223 653 1223 707.5 1265.5 c 128,-1,7
 762 1308 762 1308 780 1384 c 2,8,-1
 786 1413 l 1,9,-1
 1026 1413 l 1,10,-1
 700 0 l 1,0,-1
EndSplineSet
Substitution2: "'subs' Subscript lookup 20 subtable" uni2081
Substitution2: "'sinf' Scientific Inferiors lookup 19 subtable" uni2081
Substitution2: "'sups' Superscript lookup 17 subtable" onesuperior
AlternateSubs2: "'aalt' Access All Alternates lookup 1 subtable" onesuperior uni2081
EndChar

StartChar: two
Encoding: 50 50 21
Width: 1200
GlyphClass: 1
Flags: W
LayerCount: 2
Fore
SplineSet
1016 0 m 1,0,-1
 -55 0 l 1,1,-1
 -12 207 l 1,2,3
 372 422 372 422 598 612 c 1,4,5
 730 708 730 708 815.5 809.5 c 128,-1,6
 901 911 901 911 928 1022 c 0,7,8
 934 1051 934 1051 934 1075 c 0,9,10
 934 1133 934 1133 898.5 1168.5 c 128,-1,11
 863 1204 863 1204 784 1204 c 0,12,13
 693 1204 693 1204 626.5 1158 c 128,-1,14
 560 1112 560 1112 517 1040.5 c 128,-1,15
 474 969 474 969 452 889 c 1,16,-1
 213 926 l 1,17,18
 236 1023 236 1023 287.5 1113 c 128,-1,19
 339 1203 339 1203 416.5 1275 c 128,-1,20
 494 1347 494 1347 593.5 1389.5 c 128,-1,21
 693 1432 693 1432 809 1432 c 0,22,23
 927 1432 927 1432 1011.5 1388 c 128,-1,24
 1096 1344 1096 1344 1141 1268 c 128,-1,25
 1186 1192 1186 1192 1186 1095 c 0,26,27
 1186 905 1186 905 1022 709 c 0,28,29
 903 567 903 567 727 418 c 1,30,31
 556 298 556 298 420 223 c 1,32,-1
 1069 229 l 1,33,-1
 1016 0 l 1,0,-1
EndSplineSet
Substitution2: "'subs' Subscript lookup 20 subtable" uni2082
Substitution2: "'sinf' Scientific Inferiors lookup 19 subtable" uni2082
Substitution2: "'sups' Superscript lookup 17 subtable" twosuperior
AlternateSubs2: "'aalt' Access All Alternates lookup 1 subtable" twosuperior uni2082
EndChar

StartChar: three
Encoding: 51 51 22
Width: 1200
GlyphClass: 1
Flags: W
LayerCount: 2
Fore
SplineSet
481 -20 m 0,0,1
 362 -20 362 -20 261.5 19.5 c 128,-1,2
 161 59 161 59 100 139 c 128,-1,3
 39 219 39 219 39 341 c 0,4,5
 39 400 39 400 53 457 c 1,6,-1
 293 451 l 1,7,8
 286 422 286 422 286 391 c 0,9,10
 286 301 286 301 348.5 257 c 128,-1,11
 411 213 411 213 508 213 c 0,12,13
 623 213 623 213 725 273 c 128,-1,14
 827 333 827 333 858 451 c 0,15,16
 864 477 864 477 864 497 c 0,17,18
 864 569 864 569 803 603 c 128,-1,19
 742 637 742 637 645 637 c 2,20,-1
 493 637 l 1,21,-1
 547 862 l 1,22,-1
 684 862 l 2,23,24
 770 862 770 862 834 910.5 c 128,-1,25
 898 959 898 959 919 1051 c 0,26,27
 923 1067 923 1067 923 1084 c 0,28,29
 923 1140 923 1140 876.5 1169 c 128,-1,30
 830 1198 830 1198 758 1198 c 0,31,32
 656 1198 656 1198 581.5 1138.5 c 128,-1,33
 507 1079 507 1079 483 987 c 1,34,-1
 252 1024 l 1,35,36
 302 1223 302 1223 454 1328.5 c 128,-1,37
 606 1434 606 1434 786 1434 c 0,38,39
 889 1434 889 1434 976 1397.5 c 128,-1,40
 1063 1361 1063 1361 1115.5 1290 c 128,-1,41
 1168 1219 1168 1219 1168 1116 c 0,42,43
 1168 1026 1168 1026 1120 929 c 128,-1,44
 1072 832 1072 832 971 756 c 1,45,46
 1100 675 1100 675 1100 503 c 0,47,48
 1100 456 1100 456 1089 399 c 0,49,50
 1056 259 1056 259 965.5 166 c 128,-1,51
 875 73 875 73 748 26.5 c 128,-1,52
 621 -20 621 -20 481 -20 c 0,0,1
EndSplineSet
Substitution2: "'subs' Subscript lookup 20 subtable" uni2083
Substitution2: "'sinf' Scientific Inferiors lookup 19 subtable" uni2083
Substitution2: "'sups' Superscript lookup 17 subtable" threesuperior
AlternateSubs2: "'aalt' Access All Alternates lookup 1 subtable" threesuperior uni2083
EndChar

StartChar: four
Encoding: 52 52 23
Width: 1200
GlyphClass: 1
Flags: W
LayerCount: 2
Fore
SplineSet
806 0 m 1,0,-1
 556 0 l 1,1,-1
 628 331 l 1,2,-1
 2 331 l 1,3,-1
 32 476 l 1,4,-1
 903 1413 l 1,5,-1
 1119 1413 l 1,6,-1
 930 564 l 1,7,-1
 1146 564 l 1,8,-1
 1095 331 l 1,9,-1
 879 331 l 1,10,-1
 806 0 l 1,0,-1
679 564 m 1,11,-1
 779 1007 l 1,12,-1
 376 564 l 1,13,-1
 679 564 l 1,11,-1
EndSplineSet
Substitution2: "'subs' Subscript lookup 20 subtable" uni2084
Substitution2: "'sinf' Scientific Inferiors lookup 19 subtable" uni2084
Substitution2: "'sups' Superscript lookup 17 subtable" uni2074
AlternateSubs2: "'aalt' Access All Alternates lookup 1 subtable" uni2074 uni2084
EndChar

StartChar: five
Encoding: 53 53 24
Width: 1200
GlyphClass: 1
Flags: W
LayerCount: 2
Fore
SplineSet
483 -20 m 0,0,1
 357 -20 357 -20 260.5 39.5 c 128,-1,2
 164 99 164 99 113.5 198.5 c 128,-1,3
 63 298 63 298 63 413 c 2,4,-1
 63 420 l 1,5,-1
 305 465 l 1,6,-1
 305 458 l 2,7,8
 305 209 305 209 510 209 c 0,9,10
 587 209 587 209 659.5 251.5 c 128,-1,11
 732 294 732 294 783 362.5 c 128,-1,12
 834 431 834 431 852 506 c 0,13,14
 859 542 859 542 859 564 c 0,15,16
 859 644 859 644 808 693.5 c 128,-1,17
 757 743 757 743 659 743 c 0,18,19
 586 743 586 743 508.5 703.5 c 128,-1,20
 431 664 431 664 379 602 c 1,21,-1
 160 670 l 1,22,-1
 467 1413 l 1,23,-1
 1255 1413 l 1,24,-1
 1202 1180 l 1,25,-1
 616 1180 l 1,26,-1
 500 922 l 1,27,28
 559 951 559 951 612.5 961 c 128,-1,29
 666 971 666 971 723 971 c 0,30,31
 836 971 836 971 925 919.5 c 128,-1,32
 1014 868 1014 868 1063 778 c 128,-1,33
 1112 688 1112 688 1112 577 c 0,34,35
 1112 385 1112 385 975 223 c 0,36,37
 881 112 881 112 750.5 46 c 128,-1,38
 620 -20 620 -20 483 -20 c 0,0,1
EndSplineSet
Substitution2: "'subs' Subscript lookup 20 subtable" uni2085
Substitution2: "'sinf' Scientific Inferiors lookup 19 subtable" uni2085
Substitution2: "'sups' Superscript lookup 17 subtable" uni2075
AlternateSubs2: "'aalt' Access All Alternates lookup 1 subtable" uni2075 uni2085
EndChar

StartChar: six
Encoding: 54 54 25
Width: 1200
GlyphClass: 1
Flags: W
LayerCount: 2
Fore
SplineSet
493 -20 m 0,0,1
 364 -20 364 -20 269 33.5 c 128,-1,2
 174 87 174 87 122.5 177 c 128,-1,3
 71 267 71 267 71 377 c 0,4,5
 71 566 71 566 209 727 c 2,6,-1
 794 1413 l 1,7,-1
 1089 1413 l 1,8,-1
 668 948 l 1,9,10
 741 948 741 948 797.5 938 c 128,-1,11
 854 928 854 928 913 899 c 0,12,13
 1007 852 1007 852 1063 766 c 128,-1,14
 1119 680 1119 680 1119 562 c 0,15,16
 1119 411 1119 411 1024 271 c 128,-1,17
 929 131 929 131 765 46 c 0,18,19
 635 -20 635 -20 493 -20 c 0,0,1
524 217 m 0,20,21
 617 217 617 217 696 268 c 128,-1,22
 775 319 775 319 823.5 394.5 c 128,-1,23
 872 470 872 470 872 546 c 0,24,25
 872 628 872 628 813 678.5 c 128,-1,26
 754 729 754 729 668 729 c 0,27,28
 587 729 587 729 514.5 689.5 c 128,-1,29
 442 650 442 650 391 587.5 c 128,-1,30
 340 525 340 525 323 451 c 0,31,32
 317 426 317 426 317 402 c 0,33,34
 317 322 317 322 374.5 269.5 c 128,-1,35
 432 217 432 217 524 217 c 0,20,21
EndSplineSet
Substitution2: "'subs' Subscript lookup 20 subtable" uni2086
Substitution2: "'sinf' Scientific Inferiors lookup 19 subtable" uni2086
Substitution2: "'sups' Superscript lookup 17 subtable" uni2076
AlternateSubs2: "'aalt' Access All Alternates lookup 1 subtable" uni2076 uni2086
EndChar

StartChar: seven
Encoding: 55 55 26
Width: 1200
GlyphClass: 1
Flags: W
LayerCount: 2
Fore
SplineSet
373 0 m 1,0,-1
 88 0 l 1,1,-1
 960 1182 l 1,2,-1
 250 1182 l 1,3,-1
 303 1413 l 1,4,-1
 1323 1413 l 1,5,-1
 1294 1284 l 1,6,-1
 373 0 l 1,0,-1
EndSplineSet
Substitution2: "'subs' Subscript lookup 20 subtable" uni2087
Substitution2: "'sinf' Scientific Inferiors lookup 19 subtable" uni2087
Substitution2: "'sups' Superscript lookup 17 subtable" uni2077
AlternateSubs2: "'aalt' Access All Alternates lookup 1 subtable" uni2077 uni2087
EndChar

StartChar: eight
Encoding: 56 56 27
Width: 1200
GlyphClass: 1
Flags: W
LayerCount: 2
Fore
SplineSet
491 -20 m 0,0,1
 374 -20 374 -20 273 17.5 c 128,-1,2
 172 55 172 55 110 132 c 128,-1,3
 48 209 48 209 48 327 c 0,4,5
 48 458 48 458 123.5 577 c 128,-1,6
 199 696 199 696 346 776 c 1,7,8
 270 851 270 851 270 978 c 0,9,10
 270 1085 270 1085 316.5 1169.5 c 128,-1,11
 363 1254 363 1254 439.5 1313 c 128,-1,12
 516 1372 516 1372 611 1403 c 128,-1,13
 706 1434 706 1434 803 1434 c 0,14,15
 904 1434 904 1434 990 1398.5 c 128,-1,16
 1076 1363 1076 1363 1129 1292.5 c 128,-1,17
 1182 1222 1182 1222 1182 1119 c 0,18,19
 1182 1013 1182 1013 1128.5 917.5 c 128,-1,20
 1075 822 1075 822 975 752 c 1,21,22
 1109 662 1109 662 1109 494 c 0,23,24
 1109 405 1109 405 1074.5 317 c 128,-1,25
 1040 229 1040 229 974 161 c 0,26,27
 876 65 876 65 749 22.5 c 128,-1,28
 622 -20 622 -20 491 -20 c 0,0,1
674 858 m 0,29,30
 765 858 765 858 839 909.5 c 128,-1,31
 913 961 913 961 936 1051 c 0,32,33
 940 1067 940 1067 940 1086 c 0,34,35
 940 1143 940 1143 894.5 1172.5 c 128,-1,36
 849 1202 849 1202 778 1202 c 0,37,38
 691 1202 691 1202 616 1152.5 c 128,-1,39
 541 1103 541 1103 518 1018 c 0,40,41
 513 995 513 995 513 979 c 0,42,43
 513 863 513 863 674 858 c 0,29,30
518 207 m 0,44,45
 633 207 633 207 730.5 268.5 c 128,-1,46
 828 330 828 330 858 449 c 0,47,48
 864 473 864 473 864 495 c 0,49,50
 864 569 864 569 802 606 c 128,-1,51
 740 643 740 643 645 643 c 0,52,53
 522 643 522 643 427 582 c 128,-1,54
 332 521 332 521 303 403 c 0,55,56
 298 383 298 383 298 359 c 0,57,58
 298 307 298 307 327 273.5 c 128,-1,59
 356 240 356 240 406 223.5 c 128,-1,60
 456 207 456 207 518 207 c 0,44,45
EndSplineSet
Substitution2: "'subs' Subscript lookup 20 subtable" uni2088
Substitution2: "'sinf' Scientific Inferiors lookup 19 subtable" uni2088
Substitution2: "'sups' Superscript lookup 17 subtable" uni2078
AlternateSubs2: "'aalt' Access All Alternates lookup 1 subtable" uni2078 uni2088
EndChar

StartChar: nine
Encoding: 57 57 28
Width: 1200
GlyphClass: 1
Flags: W
LayerCount: 2
Fore
SplineSet
502 0 m 1,0,-1
 205 0 l 1,1,-1
 627 465 l 1,2,3
 553 465 553 465 496.5 474.5 c 128,-1,4
 440 484 440 484 382 514 c 0,5,6
 288 560 288 560 232.5 646.5 c 128,-1,7
 177 733 177 733 177 851 c 0,8,9
 177 959 177 959 223 1058 c 128,-1,10
 269 1157 269 1157 348.5 1237 c 128,-1,11
 428 1317 428 1317 531 1369 c 0,12,13
 661 1434 661 1434 803 1434 c 0,14,15
 933 1434 933 1434 1027.5 1380.5 c 128,-1,16
 1122 1327 1122 1327 1173.5 1236.5 c 128,-1,17
 1225 1146 1225 1146 1225 1036 c 0,18,19
 1225 847 1225 847 1087 686 c 2,20,-1
 502 0 l 1,0,-1
627 684 m 0,21,22
 708 684 708 684 781 723 c 128,-1,23
 854 762 854 762 905 825 c 128,-1,24
 956 888 956 888 973 963 c 0,25,26
 979 989 979 989 979 1012 c 0,27,28
 979 1090 979 1090 922 1143 c 128,-1,29
 865 1196 865 1196 772 1196 c 0,30,31
 691 1196 691 1196 618.5 1156.5 c 128,-1,32
 546 1117 546 1117 495.5 1054 c 128,-1,33
 445 991 445 991 428 918 c 0,34,35
 422 893 422 893 422 868 c 0,36,37
 422 784 422 784 481.5 734 c 128,-1,38
 541 684 541 684 627 684 c 0,21,22
EndSplineSet
Substitution2: "'subs' Subscript lookup 20 subtable" uni2089
Substitution2: "'sinf' Scientific Inferiors lookup 19 subtable" uni2089
Substitution2: "'sups' Superscript lookup 17 subtable" uni2079
AlternateSubs2: "'aalt' Access All Alternates lookup 1 subtable" uni2079 uni2089
EndChar

StartChar: colon
Encoding: 58 58 29
Width: 600
GlyphClass: 1
Flags: W
LayerCount: 2
Fore
SplineSet
483 690 m 1,0,-1
 217 690 l 1,1,-1
 278 954 l 1,2,-1
 544 954 l 1,3,-1
 483 690 l 1,0,-1
325 0 m 1,4,-1
 59 0 l 1,5,-1
 119 264 l 1,6,-1
 385 264 l 1,7,-1
 325 0 l 1,4,-1
EndSplineSet
EndChar

StartChar: semicolon
Encoding: 59 59 30
Width: 600
GlyphClass: 1
Flags: W
LayerCount: 2
Fore
SplineSet
463 690 m 1,0,-1
 196 690 l 1,1,-1
 258 954 l 1,2,-1
 524 954 l 1,3,-1
 463 690 l 1,0,-1
88 -225 m 1,4,-1
 -76 -225 l 1,5,-1
 137 264 l 1,6,-1
 422 264 l 1,7,-1
 88 -225 l 1,4,-1
EndSplineSet
EndChar

StartChar: less
Encoding: 60 60 31
Width: 1237
GlyphClass: 1
Flags: W
LayerCount: 2
Fore
SplineSet
1030 152 m 1,0,-1
 45 674 l 1,1,-1
 1030 1196 l 1,2,-1
 1133 1018 l 1,3,-1
 440 674 l 1,4,-1
 1133 330 l 1,5,-1
 1030 152 l 1,0,-1
EndSplineSet
EndChar

StartChar: equal
Encoding: 61 61 32
Width: 1268
GlyphClass: 1
Flags: W
LayerCount: 2
Fore
SplineSet
1049 752 m 1,0,-1
 219 752 l 1,1,-1
 219 958 l 1,2,-1
 1049 958 l 1,3,-1
 1049 752 l 1,0,-1
1049 385 m 1,4,-1
 219 385 l 1,5,-1
 219 592 l 1,6,-1
 1049 592 l 1,7,-1
 1049 385 l 1,4,-1
EndSplineSet
EndChar

StartChar: greater
Encoding: 62 62 33
Width: 1237
GlyphClass: 1
Flags: W
LayerCount: 2
Fore
SplineSet
207 152 m 1,0,-1
 104 330 l 1,1,-1
 797 674 l 1,2,-1
 104 1018 l 1,3,-1
 207 1196 l 1,4,-1
 1192 674 l 1,5,-1
 207 152 l 1,0,-1
EndSplineSet
EndChar

StartChar: question
Encoding: 63 63 34
Width: 997
GlyphClass: 1
Flags: W
LayerCount: 2
Fore
SplineSet
575 424 m 1,0,-1
 369 424 l 1,1,-1
 406 580 l 2,2,3
 443 732 443 732 543 797 c 0,4,5
 592 828 592 828 656 861 c 0,6,7
 711 889 711 889 747 912 c 0,8,9
 819 954 819 954 850 1061 c 0,10,11
 856 1087 856 1087 856 1109 c 0,12,13
 856 1174 856 1174 805.5 1202.5 c 128,-1,14
 755 1231 755 1231 672 1231 c 0,15,16
 543 1231 543 1231 469.5 1163.5 c 128,-1,17
 396 1096 396 1096 371 981 c 1,18,-1
 162 1001 l 1,19,20
 213 1214 213 1214 353 1324 c 128,-1,21
 493 1434 493 1434 684 1434 c 0,22,23
 788 1434 788 1434 874.5 1398.5 c 128,-1,24
 961 1363 961 1363 1013 1292.5 c 128,-1,25
 1065 1222 1065 1222 1065 1115 c 0,26,27
 1065 1049 1065 1049 1043 975 c 128,-1,28
 1021 901 1021 901 981 845 c 0,29,30
 935 784 935 784 880 746 c 128,-1,31
 825 708 825 708 745 671 c 0,32,33
 679 640 679 640 646.5 615 c 128,-1,34
 614 590 614 590 606 557 c 2,35,-1
 575 424 l 1,0,-1
512 0 m 1,36,-1
 246 0 l 1,37,-1
 305 264 l 1,38,-1
 571 264 l 1,39,-1
 512 0 l 1,36,-1
EndSplineSet
EndChar

StartChar: at
Encoding: 64 64 35
Width: 2009
GlyphClass: 1
Flags: W
LayerCount: 2
Fore
SplineSet
813 -348 m 0,0,1
 608 -348 608 -348 440 -270.5 c 128,-1,2
 272 -193 272 -193 173 -35 c 0,3,4
 79 116 79 116 79 320 c 0,5,6
 79 424 79 424 106 543 c 0,7,8
 165 792 165 792 322.5 992 c 128,-1,9
 480 1192 480 1192 717 1314 c 0,10,11
 949 1432 949 1432 1214 1432 c 0,12,13
 1394 1432 1394 1432 1531 1378.5 c 128,-1,14
 1668 1325 1668 1325 1760.5 1231 c 128,-1,15
 1853 1137 1853 1137 1900 1011 c 128,-1,16
 1947 885 1947 885 1947 741 c 0,17,18
 1947 533 1947 533 1855.5 330.5 c 128,-1,19
 1764 128 1764 128 1598 9 c 0,20,21
 1476 -76 1476 -76 1329 -76 c 0,22,23
 1209 -76 1209 -76 1151.5 -21.5 c 128,-1,24
 1094 33 1094 33 1094 118 c 0,25,26
 1094 143 1094 143 1098 164 c 1,27,28
 954 43 954 43 784 43 c 0,29,30
 651 43 651 43 583.5 123.5 c 128,-1,31
 516 204 516 204 516 335 c 0,32,33
 516 485 516 485 608.5 664.5 c 128,-1,34
 701 844 701 844 871 970 c 0,35,36
 1000 1061 1000 1061 1143 1061 c 0,37,38
 1240 1061 1240 1061 1298 1019.5 c 128,-1,39
 1356 978 1356 978 1378 915 c 1,40,-1
 1421 1012 l 1,41,-1
 1618 1001 l 1,42,43
 1586 928 1586 928 1516 779 c 0,44,45
 1428 590 1428 590 1359 433 c 0,46,47
 1305 306 1305 306 1284 213 c 0,48,49
 1277 178 1277 178 1277 165 c 0,50,51
 1277 141 1277 141 1292 132 c 128,-1,52
 1307 123 1307 123 1343 123 c 0,53,54
 1443 123 1443 123 1525 189 c 0,55,56
 1610 259 1610 259 1663.5 360.5 c 128,-1,57
 1717 462 1717 462 1741 571 c 0,58,59
 1760 651 1760 651 1760 732 c 0,60,61
 1760 870 1760 870 1699 987.5 c 128,-1,62
 1638 1105 1638 1105 1505 1178 c 0,63,64
 1378 1245 1378 1245 1198 1245 c 0,65,66
 1027 1245 1027 1245 876.5 1186 c 128,-1,67
 726 1127 726 1127 606 1024.5 c 128,-1,68
 486 922 486 922 404.5 788 c 128,-1,69
 323 654 323 654 287 502 c 0,70,71
 267 418 267 418 267 337 c 0,72,73
 267 179 267 179 341.5 70 c 128,-1,74
 416 -39 416 -39 544.5 -95.5 c 128,-1,75
 673 -152 673 -152 834 -152 c 0,76,77
 964 -152 964 -152 1090 -109 c 1,78,-1
 1128 -299 l 1,79,80
 982 -348 982 -348 813 -348 c 0,0,1
819 238 m 2,81,82
 901 238 901 238 974 279.5 c 128,-1,83
 1047 321 1047 321 1106 388.5 c 128,-1,84
 1165 456 1165 456 1206 536 c 128,-1,85
 1247 616 1247 616 1266 694 c 0,86,87
 1274 734 1274 734 1274 761 c 0,88,89
 1274 866 1274 866 1159 866 c 0,90,91
 998 866 998 866 866 718 c 0,92,93
 806 651 806 651 765 571.5 c 128,-1,94
 724 492 724 492 705 414 c 0,95,96
 697 374 697 374 697 347 c 0,97,98
 697 238 697 238 813 238 c 2,99,-1
 819 238 l 2,81,82
EndSplineSet
EndChar

StartChar: A
Encoding: 65 65 36
Width: 1343
GlyphClass: 1
Flags: W
LayerCount: 2
Fore
SplineSet
1214 0 m 1,0,-1
 944 0 l 1,1,-1
 905 307 l 1,2,-1
 356 307 l 1,3,-1
 176 0 l 1,4,-1
 -104 0 l 1,5,-1
 786 1413 l 1,6,-1
 977 1413 l 1,7,-1
 1214 0 l 1,0,-1
870 524 m 1,8,-1
 803 1040 l 1,9,-1
 494 524 l 1,10,-1
 870 524 l 1,8,-1
EndSplineSet
Substitution2: "Single Substitution lookup 3 subtable" ordfeminine
Substitution2: "Single Substitution lookup 2 subtable" ordfeminine
Position2: "'cpsp' Capital Spacing lookup 0 per glyph data 0" dx=5 dy=0 dh=10 dv=0
EndChar

StartChar: B
Encoding: 66 66 37
Width: 1274
GlyphClass: 1
Flags: W
LayerCount: 2
Fore
SplineSet
625 0 m 2,0,-1
 68 0 l 1,1,-1
 393 1413 l 1,2,-1
 877 1413 l 2,3,4
 1034 1413 1034 1413 1138 1344 c 0,5,6
 1256 1266 1256 1266 1256 1113 c 0,7,8
 1256 968 1256 968 1161 855 c 0,9,10
 1100 783 1100 783 1024 745 c 1,11,12
 1096 714 1096 714 1136.5 638.5 c 128,-1,13
 1177 563 1177 563 1177 473 c 0,14,15
 1177 428 1177 428 1167 387 c 0,16,17
 1137 262 1137 262 1054.5 175.5 c 128,-1,18
 972 89 972 89 858.5 44.5 c 128,-1,19
 745 0 745 0 625 0 c 2,0,-1
770 844 m 2,20,21
 855 844 855 844 923.5 890 c 128,-1,22
 992 936 992 936 1016 1040 c 0,23,24
 1020 1055 1020 1055 1020 1072 c 0,25,26
 1020 1131 1020 1131 969.5 1157.5 c 128,-1,27
 919 1184 919 1184 840 1184 c 2,28,-1
 594 1184 l 1,29,-1
 516 844 l 1,30,-1
 770 844 l 2,20,21
672 242 m 2,31,32
 767 242 767 242 837.5 295 c 128,-1,33
 908 348 908 348 936 461 c 0,34,35
 940 483 940 483 940 493 c 0,36,37
 940 548 940 548 895 586.5 c 128,-1,38
 850 625 850 625 762 625 c 2,39,-1
 465 625 l 1,40,-1
 377 242 l 1,41,-1
 672 242 l 2,31,32
EndSplineSet
Position2: "'cpsp' Capital Spacing lookup 0 per glyph data 0" dx=5 dy=0 dh=10 dv=0
EndChar

StartChar: C
Encoding: 67 67 38
Width: 1432
GlyphClass: 1
Flags: W
LayerCount: 2
Fore
SplineSet
659 -20 m 0,0,1
 470 -20 470 -20 348.5 49 c 128,-1,2
 227 118 227 118 168 238.5 c 128,-1,3
 109 359 109 359 109 512 c 0,4,5
 109 653 109 653 155 802.5 c 128,-1,6
 201 952 201 952 291 1084 c 0,7,8
 401 1244 401 1244 574 1340 c 128,-1,9
 747 1436 747 1436 967 1436 c 0,10,11
 1182 1436 1182 1436 1325 1327.5 c 128,-1,12
 1468 1219 1468 1219 1501 1020 c 1,13,-1
 1249 946 l 1,14,15
 1243 1040 1243 1040 1202.5 1099.5 c 128,-1,16
 1162 1159 1162 1159 1093 1186.5 c 128,-1,17
 1024 1214 1024 1214 936 1214 c 0,18,19
 786 1214 786 1214 673 1143.5 c 128,-1,20
 560 1073 560 1073 486 955.5 c 128,-1,21
 412 838 412 838 379 694 c 0,22,23
 359 606 359 606 359 532 c 0,24,25
 359 387 359 387 439 304 c 128,-1,26
 519 221 519 221 688 221 c 0,27,28
 838 221 838 221 950 290 c 128,-1,29
 1062 359 1062 359 1145 494 c 1,30,-1
 1358 377 l 1,31,32
 1223 174 1223 174 1041.5 77 c 128,-1,33
 860 -20 860 -20 659 -20 c 0,0,1
EndSplineSet
Position2: "'cpsp' Capital Spacing lookup 0 per glyph data 0" dx=5 dy=0 dh=10 dv=0
EndChar

StartChar: D
Encoding: 68 68 39
Width: 1409
GlyphClass: 1
Flags: W
LayerCount: 2
Fore
SplineSet
481 0 m 2,0,-1
 68 0 l 1,1,-1
 393 1413 l 1,2,-1
 797 1413 l 2,3,4
 1002 1413 1002 1413 1135 1351.5 c 128,-1,5
 1268 1290 1268 1290 1332.5 1176.5 c 128,-1,6
 1397 1063 1397 1063 1397 906 c 0,7,8
 1397 802 1397 802 1368 674 c 0,9,10
 1290 346 1290 346 1061 173 c 128,-1,11
 832 0 832 0 481 0 c 2,0,-1
498 233 m 2,12,13
 744 233 744 233 905 350 c 128,-1,14
 1066 467 1066 467 1126 729 c 0,15,16
 1149 830 1149 830 1149 903 c 0,17,18
 1149 1047 1149 1047 1056.5 1113.5 c 128,-1,19
 964 1180 964 1180 752 1180 c 2,20,-1
 594 1180 l 1,21,-1
 375 233 l 1,22,-1
 498 233 l 2,12,13
EndSplineSet
Position2: "'cpsp' Capital Spacing lookup 0 per glyph data 0" dx=5 dy=0 dh=10 dv=0
EndChar

StartChar: E
Encoding: 69 69 40
Width: 1245
GlyphClass: 1
Flags: W
LayerCount: 2
Fore
SplineSet
1008 0 m 1,0,-1
 68 0 l 1,1,-1
 393 1413 l 1,2,-1
 1333 1413 l 1,3,-1
 1280 1180 l 1,4,-1
 594 1180 l 1,5,-1
 510 823 l 1,6,-1
 1149 823 l 1,7,-1
 1096 590 l 1,8,-1
 457 590 l 1,9,-1
 377 240 l 1,10,-1
 1063 240 l 1,11,-1
 1008 0 l 1,0,-1
EndSplineSet
Position2: "'cpsp' Capital Spacing lookup 0 per glyph data 0" dx=5 dy=0 dh=10 dv=0
EndChar

StartChar: F
Encoding: 70 70 41
Width: 1235
GlyphClass: 1
Flags: W
LayerCount: 2
Fore
SplineSet
322 0 m 1,0,-1
 68 0 l 1,1,-1
 393 1413 l 1,2,-1
 1395 1413 l 1,3,-1
 1341 1180 l 1,4,-1
 594 1180 l 1,5,-1
 510 823 l 1,6,-1
 1169 823 l 1,7,-1
 1116 590 l 1,8,-1
 457 590 l 1,9,-1
 322 0 l 1,0,-1
EndSplineSet
Position2: "'cpsp' Capital Spacing lookup 0 per glyph data 0" dx=5 dy=0 dh=10 dv=0
EndChar

StartChar: G
Encoding: 71 71 42
Width: 1534
GlyphClass: 1
Flags: W
LayerCount: 2
Fore
SplineSet
659 -20 m 0,0,1
 470 -20 470 -20 348.5 49 c 128,-1,2
 227 118 227 118 168 238.5 c 128,-1,3
 109 359 109 359 109 512 c 0,4,5
 109 654 109 654 155.5 804 c 128,-1,6
 202 954 202 954 290 1084 c 0,7,8
 400 1244 400 1244 573 1340 c 128,-1,9
 746 1436 746 1436 967 1436 c 0,10,11
 1183 1436 1183 1436 1320 1326.5 c 128,-1,12
 1457 1217 1457 1217 1499 1020 c 1,13,-1
 1260 946 l 1,14,15
 1245 1085 1245 1085 1161 1149.5 c 128,-1,16
 1077 1214 1077 1214 940 1214 c 0,17,18
 789 1214 789 1214 675 1142.5 c 128,-1,19
 561 1071 561 1071 486.5 954 c 128,-1,20
 412 837 412 837 379 694 c 0,21,22
 358 600 358 600 358 529 c 0,23,24
 358 381 358 381 438.5 294 c 128,-1,25
 519 207 519 207 686 207 c 0,26,27
 850 207 850 207 984 308.5 c 128,-1,28
 1118 410 1118 410 1178 569 c 1,29,-1
 854 559 l 1,30,-1
 901 764 l 1,31,-1
 1468 764 l 1,32,-1
 1292 0 l 1,33,-1
 1092 0 l 1,34,-1
 1116 188 l 1,35,36
 1034 86 1034 86 914 33 c 128,-1,37
 794 -20 794 -20 659 -20 c 0,0,1
EndSplineSet
Position2: "'cpsp' Capital Spacing lookup 0 per glyph data 0" dx=5 dy=0 dh=10 dv=0
EndChar

StartChar: H
Encoding: 72 72 43
Width: 1491
GlyphClass: 1
Flags: W
LayerCount: 2
Fore
SplineSet
1194 0 m 1,0,-1
 940 0 l 1,1,-1
 1075 590 l 1,2,-1
 457 590 l 1,3,-1
 322 0 l 1,4,-1
 68 0 l 1,5,-1
 393 1413 l 1,6,-1
 647 1413 l 1,7,-1
 510 823 l 1,8,-1
 1128 823 l 1,9,-1
 1266 1413 l 1,10,-1
 1520 1413 l 1,11,-1
 1194 0 l 1,0,-1
EndSplineSet
Position2: "'cpsp' Capital Spacing lookup 0 per glyph data 0" dx=5 dy=0 dh=10 dv=0
EndChar

StartChar: I
Encoding: 73 73 44
Width: 618
GlyphClass: 1
Flags: W
LayerCount: 2
Fore
SplineSet
322 0 m 1,0,-1
 68 0 l 1,1,-1
 393 1413 l 1,2,-1
 647 1413 l 1,3,-1
 322 0 l 1,0,-1
EndSplineSet
Position2: "'cpsp' Capital Spacing lookup 0 per glyph data 0" dx=5 dy=0 dh=10 dv=0
EndChar

StartChar: J
Encoding: 74 74 45
Width: 1139
GlyphClass: 1
Flags: W
LayerCount: 2
Fore
SplineSet
401 -20 m 0,0,1
 271 -20 271 -20 184.5 31.5 c 128,-1,2
 98 83 98 83 55.5 170.5 c 128,-1,3
 13 258 13 258 13 365 c 0,4,5
 13 400 13 400 20 451 c 1,6,-1
 270 459 l 1,7,8
 264 423 264 423 264 390 c 0,9,10
 264 310 264 310 303 262.5 c 128,-1,11
 342 215 342 215 430 215 c 0,12,13
 565 215 565 215 634 290 c 0,14,15
 699 362 699 362 735 516 c 2,16,-1
 943 1413 l 1,17,-1
 1196 1413 l 1,18,-1
 985 500 l 2,19,20
 929 258 929 258 786 119 c 128,-1,21
 643 -20 643 -20 401 -20 c 0,0,1
EndSplineSet
Position2: "'cpsp' Capital Spacing lookup 0 per glyph data 0" dx=5 dy=0 dh=10 dv=0
EndChar

StartChar: K
Encoding: 75 75 46
Width: 1491
GlyphClass: 1
Flags: W
LayerCount: 2
Fore
SplineSet
1356 0 m 1,0,-1
 1047 0 l 1,1,-1
 766 664 l 1,2,-1
 408 367 l 1,3,-1
 322 0 l 1,4,-1
 68 0 l 1,5,-1
 393 1413 l 1,6,-1
 647 1413 l 1,7,-1
 475 676 l 1,8,-1
 1333 1413 l 1,9,-1
 1677 1413 l 1,10,-1
 977 834 l 1,11,-1
 1356 0 l 1,0,-1
EndSplineSet
Position2: "'cpsp' Capital Spacing lookup 0 per glyph data 0" dx=5 dy=0 dh=10 dv=0
EndChar

StartChar: L
Encoding: 76 76 47
Width: 1063
GlyphClass: 1
Flags: W
LayerCount: 2
Fore
SplineSet
926 0 m 1,0,-1
 68 0 l 1,1,-1
 393 1413 l 1,2,-1
 647 1413 l 1,3,-1
 377 240 l 1,4,-1
 981 240 l 1,5,-1
 926 0 l 1,0,-1
EndSplineSet
Position2: "'cpsp' Capital Spacing lookup 0 per glyph data 0" dx=5 dy=0 dh=10 dv=0
EndChar

StartChar: M
Encoding: 77 77 48
Width: 1798
GlyphClass: 1
Flags: W
LayerCount: 2
Fore
SplineSet
1501 0 m 1,0,-1
 1257 0 l 1,1,-1
 1503 1057 l 1,2,-1
 936 123 l 1,3,-1
 690 123 l 1,4,-1
 557 1057 l 1,5,-1
 311 0 l 1,6,-1
 68 0 l 1,7,-1
 393 1413 l 1,8,-1
 733 1413 l 1,9,-1
 874 408 l 1,10,-1
 1483 1413 l 1,11,-1
 1827 1413 l 1,12,-1
 1501 0 l 1,0,-1
EndSplineSet
Position2: "'cpsp' Capital Spacing lookup 0 per glyph data 0" dx=5 dy=0 dh=10 dv=0
EndChar

StartChar: N
Encoding: 78 78 49
Width: 1454
GlyphClass: 1
Flags: W
LayerCount: 2
Fore
SplineSet
1157 0 m 1,0,-1
 905 0 l 1,1,-1
 543 991 l 1,2,-1
 311 0 l 1,3,-1
 68 0 l 1,4,-1
 393 1413 l 1,5,-1
 643 1413 l 1,6,-1
 1008 424 l 1,7,-1
 1239 1413 l 1,8,-1
 1483 1413 l 1,9,-1
 1157 0 l 1,0,-1
EndSplineSet
Position2: "'cpsp' Capital Spacing lookup 0 per glyph data 0" dx=5 dy=0 dh=10 dv=0
EndChar

StartChar: O
Encoding: 79 79 50
Width: 1528
GlyphClass: 1
Flags: W
LayerCount: 2
Fore
SplineSet
657 -20 m 0,0,1
 469 -20 469 -20 347.5 49 c 128,-1,2
 226 118 226 118 167 237.5 c 128,-1,3
 108 357 108 357 108 510 c 0,4,5
 108 644 108 644 153 795.5 c 128,-1,6
 198 947 198 947 290 1083 c 0,7,8
 400 1243 400 1243 573 1338.5 c 128,-1,9
 746 1434 746 1434 967 1434 c 0,10,11
 1154 1434 1154 1434 1275.5 1365 c 128,-1,12
 1397 1296 1397 1296 1456 1176 c 128,-1,13
 1515 1056 1515 1056 1515 902 c 0,14,15
 1515 759 1515 759 1469 609.5 c 128,-1,16
 1423 460 1423 460 1334 331 c 0,17,18
 1224 171 1224 171 1051 75.5 c 128,-1,19
 878 -20 878 -20 657 -20 c 0,0,1
682 205 m 0,20,21
 831 205 831 205 943 276 c 0,22,23
 1160 416 1160 416 1231 729 c 0,24,25
 1252 818 1252 818 1252 898 c 0,26,27
 1252 1041 1252 1041 1177 1124.5 c 128,-1,28
 1102 1208 1102 1208 940 1208 c 0,29,30
 792 1208 792 1208 681 1138 c 0,31,32
 566 1063 566 1063 495.5 945.5 c 128,-1,33
 425 828 425 828 393 684 c 0,34,35
 372 596 372 596 372 514 c 0,36,37
 372 372 372 372 446.5 288.5 c 128,-1,38
 521 205 521 205 682 205 c 0,20,21
EndSplineSet
Substitution2: "Single Substitution lookup 3 subtable" ordmasculine
Substitution2: "Single Substitution lookup 2 subtable" ordmasculine
Position2: "'cpsp' Capital Spacing lookup 0 per glyph data 0" dx=5 dy=0 dh=10 dv=0
EndChar

StartChar: P
Encoding: 80 80 51
Width: 1167
GlyphClass: 1
Flags: W
LayerCount: 2
Fore
SplineSet
319 0 m 1,0,-1
 68 0 l 1,1,-1
 393 1413 l 1,2,-1
 829 1413 l 2,3,4
 948 1413 948 1413 1042.5 1375.5 c 128,-1,5
 1137 1338 1137 1338 1191.5 1264.5 c 128,-1,6
 1246 1191 1246 1191 1246 1081 c 0,7,8
 1246 996 1246 996 1214.5 912 c 128,-1,9
 1183 828 1183 828 1123 763 c 0,10,11
 1036 671 1036 671 913.5 628.5 c 128,-1,12
 791 586 791 586 651 586 c 2,13,-1
 455 586 l 1,14,-1
 319 0 l 1,0,-1
692 823 m 2,15,16
 949 823 949 823 991 1018 c 0,17,18
 997 1041 997 1041 997 1060 c 0,19,20
 997 1176 997 1176 793 1176 c 2,21,-1
 590 1176 l 1,22,-1
 508 823 l 1,23,-1
 692 823 l 2,15,16
EndSplineSet
Position2: "'cpsp' Capital Spacing lookup 0 per glyph data 0" dx=5 dy=0 dh=10 dv=0
EndChar

StartChar: Q
Encoding: 81 81 52
Width: 1573
GlyphClass: 1
Flags: W
LayerCount: 2
Fore
SplineSet
1206 -119 m 1,0,-1
 1051 78 l 1,1,2
 880 -20 880 -20 657 -20 c 0,3,4
 469 -20 469 -20 347.5 49 c 128,-1,5
 226 118 226 118 167 237.5 c 128,-1,6
 108 357 108 357 108 510 c 0,7,8
 108 644 108 644 153 795.5 c 128,-1,9
 198 947 198 947 290 1083 c 0,10,11
 400 1243 400 1243 573 1338.5 c 128,-1,12
 746 1434 746 1434 967 1434 c 0,13,14
 1156 1434 1156 1434 1277 1364.5 c 128,-1,15
 1398 1295 1398 1295 1456.5 1174 c 128,-1,16
 1515 1053 1515 1053 1515 900 c 0,17,18
 1515 731 1515 731 1447 547 c 128,-1,19
 1379 363 1379 363 1243 219 c 1,20,-1
 1403 35 l 1,21,-1
 1206 -119 l 1,0,-1
686 219 m 0,22,23
 794 219 794 219 905 264 c 1,24,-1
 756 436 l 1,25,-1
 950 586 l 1,26,-1
 1102 422 l 1,27,28
 1206 555 1206 555 1245 729 c 0,29,30
 1264 808 1264 808 1264 883 c 0,31,32
 1264 1026 1264 1026 1184.5 1110 c 128,-1,33
 1105 1194 1105 1194 938 1194 c 0,34,35
 786 1194 786 1194 672.5 1126.5 c 128,-1,36
 559 1059 559 1059 485.5 944 c 128,-1,37
 412 829 412 829 379 684 c 0,38,39
 359 601 359 601 359 529 c 0,40,41
 359 386 359 386 438.5 302.5 c 128,-1,42
 518 219 518 219 686 219 c 0,22,23
EndSplineSet
Position2: "'cpsp' Capital Spacing lookup 0 per glyph data 0" dx=5 dy=0 dh=10 dv=0
EndChar

StartChar: R
Encoding: 82 82 53
Width: 1268
GlyphClass: 1
Flags: W
LayerCount: 2
Fore
SplineSet
1126 -2 m 1,0,-1
 852 -2 l 1,1,-1
 643 604 l 1,2,-1
 461 604 l 1,3,-1
 319 -2 l 1,4,-1
 66 -2 l 1,5,-1
 393 1413 l 1,6,-1
 844 1413 l 2,7,8
 956 1413 956 1413 1048.5 1374.5 c 128,-1,9
 1141 1336 1141 1336 1196 1261 c 128,-1,10
 1251 1186 1251 1186 1251 1077 c 0,11,12
 1251 997 1251 997 1219 914.5 c 128,-1,13
 1187 832 1187 832 1114 760 c 0,14,15
 1018 667 1018 667 885 625 c 1,16,-1
 1126 -2 l 1,0,-1
727 811 m 1,17,18
 829 817 829 817 901.5 870.5 c 128,-1,19
 974 924 974 924 995 1016 c 0,20,21
 1000 1039 1000 1039 1000 1056 c 0,22,23
 1000 1114 1000 1114 952 1150 c 128,-1,24
 904 1186 904 1186 807 1186 c 2,25,-1
 596 1186 l 1,26,-1
 510 811 l 1,27,-1
 727 811 l 1,17,18
EndSplineSet
Position2: "'cpsp' Capital Spacing lookup 0 per glyph data 0" dx=5 dy=0 dh=10 dv=0
EndChar

StartChar: S
Encoding: 83 83 54
Width: 1137
GlyphClass: 1
Flags: W
LayerCount: 2
Fore
SplineSet
522 -16 m 0,0,1
 424 -16 424 -16 334 10.5 c 128,-1,2
 244 37 244 37 175.5 90.5 c 128,-1,3
 107 144 107 144 66 224 c 128,-1,4
 25 304 25 304 25 410 c 1,5,-1
 285 453 l 1,6,7
 285 392 285 392 305.5 348 c 128,-1,8
 326 304 326 304 361.5 275.5 c 128,-1,9
 397 247 397 247 445.5 233 c 128,-1,10
 494 219 494 219 551 219 c 0,11,12
 599 219 599 219 645 230 c 128,-1,13
 691 241 691 241 726.5 265.5 c 128,-1,14
 762 290 762 290 783.5 328.5 c 128,-1,15
 805 367 805 367 805 422 c 0,16,17
 805 469 805 469 788 503 c 128,-1,18
 771 537 771 537 742 563 c 128,-1,19
 713 589 713 589 674.5 610.5 c 128,-1,20
 636 632 636 632 594 654 c 0,21,22
 536 684 536 684 476.5 717.5 c 128,-1,23
 417 751 417 751 368.5 795.5 c 128,-1,24
 320 840 320 840 289 900 c 128,-1,25
 258 960 258 960 258 1044 c 0,26,27
 258 1141 258 1141 297.5 1214 c 128,-1,28
 337 1287 337 1287 402.5 1336 c 128,-1,29
 468 1385 468 1385 551.5 1409.5 c 128,-1,30
 635 1434 635 1434 723 1434 c 0,31,32
 791 1434 791 1434 859 1419.5 c 128,-1,33
 927 1405 927 1405 986.5 1373.5 c 128,-1,34
 1046 1342 1046 1342 1092 1293 c 128,-1,35
 1138 1244 1138 1244 1163 1176 c 1,36,-1
 944 1071 l 1,37,38
 933 1107 933 1107 910.5 1135 c 128,-1,39
 888 1163 888 1163 858 1181.5 c 128,-1,40
 828 1200 828 1200 792.5 1209.5 c 128,-1,41
 757 1219 757 1219 721 1219 c 256,42,43
 685 1219 685 1219 648.5 1209 c 128,-1,44
 612 1199 612 1199 583 1179 c 128,-1,45
 554 1159 554 1159 536 1128.5 c 128,-1,46
 518 1098 518 1098 518 1057 c 0,47,48
 518 1015 518 1015 538 985 c 128,-1,49
 558 955 558 955 591.5 930 c 128,-1,50
 625 905 625 905 668.5 883 c 128,-1,51
 712 861 712 861 759 836 c 0,52,53
 814 806 814 806 869 770 c 128,-1,54
 924 734 924 734 967.5 686 c 128,-1,55
 1011 638 1011 638 1038 576 c 128,-1,56
 1065 514 1065 514 1065 432 c 0,57,58
 1065 321 1065 321 1017.5 237 c 128,-1,59
 970 153 970 153 893 97 c 128,-1,60
 816 41 816 41 719 12.5 c 128,-1,61
 622 -16 622 -16 522 -16 c 0,0,1
EndSplineSet
Position2: "'cpsp' Capital Spacing lookup 0 per glyph data 0" dx=5 dy=0 dh=10 dv=0
EndChar

StartChar: T
Encoding: 84 84 55
Width: 1180
GlyphClass: 1
Flags: W
LayerCount: 2
Fore
SplineSet
602 0 m 1,0,-1
 348 0 l 1,1,-1
 621 1186 l 1,2,-1
 178 1186 l 1,3,-1
 231 1413 l 1,4,-1
 1370 1413 l 1,5,-1
 1317 1186 l 1,6,-1
 874 1186 l 1,7,-1
 602 0 l 1,0,-1
EndSplineSet
Position2: "'cpsp' Capital Spacing lookup 0 per glyph data 0" dx=5 dy=0 dh=10 dv=0
EndChar

StartChar: U
Encoding: 85 85 56
Width: 1380
GlyphClass: 1
Flags: W
LayerCount: 2
Fore
SplineSet
584 -20 m 0,0,1
 429 -20 429 -20 331 28 c 128,-1,2
 233 76 233 76 186.5 163.5 c 128,-1,3
 140 251 140 251 140 370 c 0,4,5
 140 459 140 459 164 561 c 2,6,-1
 360 1413 l 1,7,-1
 614 1413 l 1,8,-1
 420 569 l 2,9,10
 397 472 397 472 397 405 c 0,11,12
 397 309 397 309 450 267 c 128,-1,13
 503 225 503 225 614 225 c 0,14,15
 781 225 781 225 869.5 316.5 c 128,-1,16
 958 408 958 408 997 590 c 2,17,-1
 1188 1413 l 1,18,-1
 1442 1413 l 1,19,-1
 1243 551 l 2,20,21
 1111 -20 1111 -20 584 -20 c 0,0,1
EndSplineSet
Position2: "'cpsp' Capital Spacing lookup 0 per glyph data 0" dx=5 dy=0 dh=10 dv=0
EndChar

StartChar: V
Encoding: 86 86 57
Width: 1343
GlyphClass: 1
Flags: W
LayerCount: 2
Fore
SplineSet
655 0 m 1,0,-1
 465 0 l 1,1,-1
 225 1413 l 1,2,-1
 502 1413 l 1,3,-1
 649 412 l 1,4,-1
 1262 1413 l 1,5,-1
 1544 1413 l 1,6,-1
 655 0 l 1,0,-1
EndSplineSet
Position2: "'cpsp' Capital Spacing lookup 0 per glyph data 0" dx=5 dy=0 dh=10 dv=0
EndChar

StartChar: W
Encoding: 87 87 58
Width: 2003
GlyphClass: 1
Flags: W
LayerCount: 2
Fore
SplineSet
1391 0 m 1,0,-1
 1146 0 l 1,1,-1
 1072 1012 l 1,2,-1
 531 0 l 1,3,-1
 286 0 l 1,4,-1
 188 1413 l 1,5,-1
 452 1413 l 1,6,-1
 513 373 l 1,7,-1
 1066 1413 l 1,8,-1
 1263 1413 l 1,9,-1
 1336 373 l 1,10,-1
 1877 1413 l 1,11,-1
 2141 1413 l 1,12,-1
 1391 0 l 1,0,-1
EndSplineSet
Position2: "'cpsp' Capital Spacing lookup 0 per glyph data 1" dx=5 dy=1 dh=10 dv=2
EndChar

StartChar: X
Encoding: 88 88 59
Width: 1343
GlyphClass: 1
Flags: W
LayerCount: 2
Fore
SplineSet
1200 0 m 1,0,-1
 903 0 l 1,1,-1
 684 537 l 1,2,-1
 215 0 l 1,3,-1
 -94 0 l 1,4,-1
 545 707 l 1,5,-1
 240 1413 l 1,6,-1
 539 1413 l 1,7,-1
 752 868 l 1,8,-1
 1223 1413 l 1,9,-1
 1530 1413 l 1,10,-1
 893 707 l 1,11,-1
 1200 0 l 1,0,-1
EndSplineSet
Position2: "'cpsp' Capital Spacing lookup 0 per glyph data 0" dx=5 dy=0 dh=10 dv=0
EndChar

StartChar: Y
Encoding: 89 89 60
Width: 1395
GlyphClass: 1
Flags: W
LayerCount: 2
Fore
SplineSet
711 0 m 1,0,-1
 457 0 l 1,1,-1
 586 551 l 1,2,-1
 209 1413 l 1,3,-1
 504 1413 l 1,4,-1
 758 778 l 1,5,-1
 1309 1413 l 1,6,-1
 1612 1413 l 1,7,-1
 840 551 l 1,8,-1
 711 0 l 1,0,-1
EndSplineSet
Position2: "'cpsp' Capital Spacing lookup 0 per glyph data 0" dx=5 dy=0 dh=10 dv=0
EndChar

StartChar: Z
Encoding: 90 90 61
Width: 1272
GlyphClass: 1
Flags: W
LayerCount: 2
Fore
SplineSet
1083 0 m 1,0,-1
 -55 0 l 1,1,-1
 -18 176 l 1,2,-1
 1001 1180 l 1,3,-1
 262 1180 l 1,4,-1
 315 1413 l 1,5,-1
 1409 1413 l 1,6,-1
 1368 1229 l 1,7,-1
 354 229 l 1,8,-1
 1137 229 l 1,9,-1
 1083 0 l 1,0,-1
EndSplineSet
Position2: "'cpsp' Capital Spacing lookup 0 per glyph data 0" dx=5 dy=0 dh=10 dv=0
EndChar

StartChar: bracketleft
Encoding: 91 91 62
Width: 641
GlyphClass: 1
Flags: W
LayerCount: 2
Fore
SplineSet
455 -164 m 1,0,-1
 23 -164 l 1,1,-1
 424 1573 l 1,2,-1
 856 1573 l 1,3,-1
 819 1411 l 1,4,-1
 584 1411 l 1,5,-1
 258 0 l 1,6,-1
 494 0 l 1,7,-1
 455 -164 l 1,0,-1
EndSplineSet
EndChar

StartChar: backslash
Encoding: 92 92 63
Width: 934
GlyphClass: 1
Flags: W
LayerCount: 2
Fore
SplineSet
754 -430 m 1,0,-1
 530 -430 l 1,1,-1
 201 1516 l 1,2,-1
 422 1516 l 1,3,-1
 754 -430 l 1,0,-1
EndSplineSet
EndChar

StartChar: bracketright
Encoding: 93 93 64
Width: 641
GlyphClass: 1
Flags: W
LayerCount: 2
Fore
SplineSet
311 -164 m 1,0,-1
 -121 -164 l 1,1,-1
 -82 0 l 1,2,-1
 154 0 l 1,3,-1
 479 1411 l 1,4,-1
 244 1411 l 1,5,-1
 281 1573 l 1,6,-1
 713 1573 l 1,7,-1
 311 -164 l 1,0,-1
EndSplineSet
EndChar

StartChar: asciicircum
Encoding: 94 94 65
Width: 981
GlyphClass: 1
Flags: W
LayerCount: 2
Fore
SplineSet
985 805 m 1,0,-1
 750 805 l 1,1,-1
 635 1106 l 1,2,-1
 379 805 l 1,3,-1
 131 805 l 1,4,-1
 715 1497 l 1,5,-1
 985 805 l 1,0,-1
EndSplineSet
EndChar

StartChar: underscore
Encoding: 95 95 66
Width: 1247
GlyphClass: 1
Flags: W
LayerCount: 2
Fore
SplineSet
891 -184 m 1,0,-1
 41 -184 l 1,1,-1
 84 0 l 1,2,-1
 934 0 l 1,3,-1
 891 -184 l 1,0,-1
EndSplineSet
EndChar

StartChar: a
Encoding: 97 97 68
Width: 1204
GlyphClass: 1
Flags: W
LayerCount: 2
Fore
SplineSet
399 -20 m 0,0,1
 282 -20 282 -20 204.5 31 c 128,-1,2
 127 82 127 82 88.5 170 c 128,-1,3
 50 258 50 258 50 371 c 0,4,5
 50 476 50 476 83 589 c 128,-1,6
 116 702 116 702 179 801 c 0,7,8
 228 876 228 876 294 934 c 128,-1,9
 360 992 360 992 441 1026 c 128,-1,10
 522 1060 522 1060 615 1060 c 0,11,12
 699 1060 699 1060 773 1028.5 c 128,-1,13
 847 997 847 997 887 931 c 1,14,-1
 917 1039 l 1,15,-1
 1175 1039 l 1,16,-1
 935 0 l 1,17,-1
 699 0 l 1,18,-1
 713 100 l 1,19,20
 590 -20 590 -20 399 -20 c 0,0,1
482 205 m 0,21,22
 575 205 575 205 643.5 249.5 c 128,-1,23
 712 294 712 294 757 369.5 c 128,-1,24
 802 445 802 445 823 543 c 0,25,26
 837 604 837 604 837 650 c 0,27,28
 837 735 837 735 793.5 787 c 128,-1,29
 750 839 750 839 653 839 c 0,30,31
 563 839 563 839 493 793 c 128,-1,32
 423 747 423 747 376.5 669.5 c 128,-1,33
 330 592 330 592 309 495 c 0,34,35
 297 441 297 441 297 393 c 0,36,37
 297 310 297 310 340.5 257.5 c 128,-1,38
 384 205 384 205 482 205 c 0,21,22
EndSplineSet
Substitution2: "Single Substitution lookup 3 subtable" ordfeminine
Substitution2: "Single Substitution lookup 2 subtable" ordfeminine
EndChar

StartChar: b
Encoding: 98 98 69
Width: 1210
GlyphClass: 1
Flags: W
LayerCount: 2
Fore
SplineSet
598 -20 m 0,0,1
 514 -20 514 -20 440 11.5 c 128,-1,2
 366 43 366 43 326 109 c 1,3,-1
 296 0 l 1,4,-1
 34 0 l 1,5,-1
 372 1411 l 1,6,-1
 634 1411 l 1,7,-1
 509 947 l 1,8,9
 632 1060 632 1060 813 1060 c 0,10,11
 931 1060 931 1060 1008 1009 c 128,-1,12
 1085 958 1085 958 1123.5 869.5 c 128,-1,13
 1162 781 1162 781 1162 667 c 0,14,15
 1162 541 1162 541 1121.5 419 c 128,-1,16
 1081 297 1081 297 1006 198 c 128,-1,17
 931 99 931 99 827 39.5 c 128,-1,18
 723 -20 723 -20 598 -20 c 0,0,1
563 205 m 0,19,20
 695 205 695 205 784 299.5 c 128,-1,21
 873 394 873 394 905 543 c 0,22,23
 918 598 918 598 918 648 c 0,24,25
 918 732 918 732 874.5 785.5 c 128,-1,26
 831 839 831 839 733 839 c 0,27,28
 643 839 643 839 573 793.5 c 128,-1,29
 503 748 503 748 456.5 670.5 c 128,-1,30
 410 593 410 593 388 495 c 0,31,32
 376 441 376 441 375 395 c 0,33,34
 375 311 375 311 419.5 258 c 128,-1,35
 464 205 464 205 563 205 c 0,19,20
EndSplineSet
EndChar

StartChar: c
Encoding: 99 99 70
Width: 1033
GlyphClass: 1
Flags: W
LayerCount: 2
Fore
SplineSet
447 -20 m 0,0,1
 310 -20 310 -20 221 33.5 c 128,-1,2
 132 87 132 87 89 179.5 c 128,-1,3
 46 272 46 272 46 387 c 0,4,5
 46 551 46 551 130 716 c 128,-1,6
 214 881 214 881 384 984 c 0,7,8
 509 1056 509 1056 665 1056 c 0,9,10
 771 1056 771 1056 851 1017 c 128,-1,11
 931 978 931 978 980.5 909 c 128,-1,12
 1030 840 1030 840 1049 750 c 1,13,-1
 795 675 l 1,14,15
 791 753 791 753 747.5 789.5 c 128,-1,16
 704 826 704 826 633 826 c 0,17,18
 544 826 544 826 476.5 780.5 c 128,-1,19
 409 735 409 735 365 659.5 c 128,-1,20
 321 584 321 584 301 493 c 0,21,22
 289 441 289 441 289 393 c 0,23,24
 289 313 289 313 330.5 261 c 128,-1,25
 372 209 372 209 468 209 c 0,26,27
 552 209 552 209 620 257.5 c 128,-1,28
 688 306 688 306 726 382 c 1,29,-1
 936 270 l 1,30,31
 848 123 848 123 719 51.5 c 128,-1,32
 590 -20 590 -20 447 -20 c 0,0,1
EndSplineSet
EndChar

StartChar: d
Encoding: 100 100 71
Width: 1208
GlyphClass: 1
Flags: W
LayerCount: 2
Fore
SplineSet
399 -20 m 0,0,1
 282 -20 282 -20 204.5 31 c 128,-1,2
 127 82 127 82 88.5 170 c 128,-1,3
 50 258 50 258 50 371 c 0,4,5
 50 476 50 476 83 589 c 128,-1,6
 116 702 116 702 179 801 c 0,7,8
 228 876 228 876 294 934 c 128,-1,9
 360 992 360 992 441 1026 c 128,-1,10
 522 1060 522 1060 615 1060 c 0,11,12
 699 1060 699 1060 773 1028.5 c 128,-1,13
 847 997 847 997 887 931 c 1,14,-1
 1017 1413 l 1,15,-1
 1275 1413 l 1,16,-1
 935 0 l 1,17,-1
 699 0 l 1,18,-1
 713 100 l 1,19,20
 590 -20 590 -20 399 -20 c 0,0,1
482 205 m 0,21,22
 575 205 575 205 643.5 249.5 c 128,-1,23
 712 294 712 294 757 369.5 c 128,-1,24
 802 445 802 445 823 543 c 0,25,26
 837 604 837 604 837 650 c 0,27,28
 837 735 837 735 793.5 787 c 128,-1,29
 750 839 750 839 653 839 c 0,30,31
 563 839 563 839 493 793 c 128,-1,32
 423 747 423 747 376.5 669.5 c 128,-1,33
 330 592 330 592 309 495 c 0,34,35
 297 441 297 441 297 393 c 0,36,37
 297 310 297 310 340.5 257.5 c 128,-1,38
 384 205 384 205 482 205 c 0,21,22
EndSplineSet
EndChar

StartChar: e
Encoding: 101 101 72
Width: 1087
GlyphClass: 1
Flags: W
LayerCount: 2
Fore
SplineSet
462 -12 m 0,0,1
 320 -12 320 -12 227.5 40.5 c 128,-1,2
 135 93 135 93 89.5 184 c 128,-1,3
 44 275 44 275 44 389 c 0,4,5
 44 549 44 549 127 713.5 c 128,-1,6
 210 878 210 878 376 980 c 1,7,8
 501 1052 501 1052 655 1052 c 0,9,10
 861 1052 861 1052 954 949.5 c 128,-1,11
 1047 847 1047 847 1047 681 c 0,12,13
 1047 616 1047 616 1034 545 c 128,-1,14
 1021 474 1021 474 1003 429 c 1,15,-1
 293 429 l 1,16,-1
 291 395 l 1,17,18
 291 215 291 215 484 215 c 0,19,20
 573 215 573 215 641 240 c 128,-1,21
 709 265 709 265 774 325 c 1,22,-1
 917 152 l 1,23,24
 729 -12 729 -12 462 -12 c 0,0,1
815 605 m 1,25,26
 818 637 818 637 818 662 c 0,27,28
 818 762 818 762 773.5 804.5 c 128,-1,29
 729 847 729 847 636 847 c 0,30,31
 562 847 562 847 505 814.5 c 128,-1,32
 448 782 448 782 405.5 728 c 128,-1,33
 363 674 363 674 337 605 c 1,34,-1
 815 605 l 1,25,26
EndSplineSet
EndChar

StartChar: f
Encoding: 102 102 73
Width: 720
GlyphClass: 1
Flags: W
LayerCount: 2
Fore
SplineSet
354 0 m 1,0,-1
 92 0 l 1,1,-1
 281 835 l 1,2,-1
 92 835 l 1,3,-1
 140 1037 l 1,4,-1
 332 1037 l 1,5,-1
 368 1170 l 2,6,7
 402 1296 402 1296 498.5 1365 c 128,-1,8
 595 1434 595 1434 758 1434 c 0,9,10
 845 1434 845 1434 941 1389 c 1,11,-1
 815 1206 l 1,12,13
 779 1225 779 1225 737 1225 c 0,14,15
 696 1225 696 1225 665.5 1202.5 c 128,-1,16
 635 1180 635 1180 622 1137 c 2,17,-1
 592 1039 l 1,18,-1
 835 1039 l 1,19,-1
 786 835 l 1,20,-1
 543 835 l 1,21,-1
 354 0 l 1,0,-1
EndSplineSet
EndChar

StartChar: g
Encoding: 103 103 74
Width: 1204
GlyphClass: 1
Flags: W
LayerCount: 2
Fore
SplineSet
359 -438 m 0,0,1
 194 -438 194 -438 94.5 -378 c 128,-1,2
 -5 -318 -5 -318 -57 -215 c 1,3,-1
 154 -98 l 1,4,5
 171 -153 171 -153 228 -189 c 128,-1,6
 285 -225 285 -225 384 -225 c 0,7,8
 492 -225 492 -225 570 -167.5 c 128,-1,9
 648 -110 648 -110 679 10 c 2,10,-1
 706 113 l 1,11,12
 587 0 587 0 401 0 c 0,13,14
 284 0 284 0 206.5 51 c 128,-1,15
 129 102 129 102 90.5 189 c 128,-1,16
 52 276 52 276 52 387 c 0,17,18
 52 485 52 485 83.5 595 c 128,-1,19
 115 705 115 705 178 804 c 0,20,21
 226 878 226 878 292 935.5 c 128,-1,22
 358 993 358 993 439 1026.5 c 128,-1,23
 520 1060 520 1060 613 1060 c 0,24,25
 697 1060 697 1060 770.5 1028.5 c 128,-1,26
 844 997 844 997 885 931 c 1,27,-1
 915 1039 l 1,28,-1
 1171 1039 l 1,29,-1
 929 2 l 2,30,31
 879 -213 879 -213 729.5 -325.5 c 128,-1,32
 580 -438 580 -438 359 -438 c 0,0,1
486 225 m 0,33,34
 616 225 616 225 704 317 c 0,35,36
 767 384 767 384 802 475.5 c 128,-1,37
 837 567 837 567 837 649 c 0,38,39
 837 732 837 732 793 785.5 c 128,-1,40
 749 839 749 839 651 839 c 0,41,42
 562 839 562 839 492 793.5 c 128,-1,43
 422 748 422 748 375.5 672.5 c 128,-1,44
 329 597 329 597 309 505 c 0,45,46
 298 453 298 453 298 411 c 0,47,48
 298 330 298 330 342 277.5 c 128,-1,49
 386 225 386 225 486 225 c 0,33,34
EndSplineSet
EndChar

StartChar: h
Encoding: 104 104 75
Width: 1197
GlyphClass: 1
Flags: W
LayerCount: 2
Fore
SplineSet
969 0 m 1,0,-1
 716 0 l 1,1,-1
 854 609 l 2,2,3
 868 666 868 666 868 716 c 0,4,5
 868 828 868 828 754 828 c 0,6,7
 676 828 676 828 605 788 c 128,-1,8
 534 748 534 748 483.5 688 c 128,-1,9
 433 628 433 628 417 564 c 2,10,-1
 290 0 l 1,11,-1
 32 0 l 1,12,-1
 370 1413 l 1,13,-1
 628 1413 l 1,14,-1
 498 931 l 1,15,16
 633 1056 633 1056 814 1056 c 0,17,18
 970 1056 970 1056 1044.5 968.5 c 128,-1,19
 1119 881 1119 881 1119 744 c 0,20,21
 1119 679 1119 679 1104 613 c 2,22,-1
 969 0 l 1,0,-1
EndSplineSet
EndChar

StartChar: i
Encoding: 105 105 76
Width: 532
GlyphClass: 1
Flags: W
LayerCount: 2
Fore
SplineSet
256 0 m 1,0,-1
 31 0 l 1,1,-1
 260 1039 l 1,2,-1
 485 1039 l 1,3,-1
 256 0 l 1,0,-1
520 1188 m 1,4,-1
 295 1188 l 1,5,-1
 347 1413 l 1,6,-1
 572 1413 l 1,7,-1
 520 1188 l 1,4,-1
EndSplineSet
Substitution2: "'locl' Localized Forms in Latin lookup 5 subtable" i.loclTRK
Substitution2: "Single Substitution lookup 2 subtable" dotlessi
Substitution2: "'aalt' Access All Alternates lookup 0 subtable" i.loclTRK
EndChar

StartChar: j
Encoding: 106 106 77
Width: 578
GlyphClass: 1
Flags: W
LayerCount: 2
Fore
SplineSet
559 1188 m 1,0,-1
 316 1188 l 1,1,-1
 368 1413 l 1,2,-1
 611 1413 l 1,3,-1
 559 1188 l 1,0,-1
-120 -438 m 0,4,5
 -203 -438 -203 -438 -292 -401 c 1,6,-1
 -201 -207 l 1,7,8
 -153 -219 -153 -219 -100 -219 c 0,9,10
 -15 -219 -15 -219 8 -110 c 2,11,-1
 275 1039 l 1,12,-1
 518 1039 l 1,13,-1
 248 -116 l 2,14,15
 227 -210 227 -210 179 -282.5 c 128,-1,16
 131 -355 131 -355 56.5 -396.5 c 128,-1,17
 -18 -438 -18 -438 -120 -438 c 0,4,5
EndSplineSet
Substitution2: "Single Substitution lookup 2 subtable" uni0237
EndChar

StartChar: k
Encoding: 107 107 78
Width: 1164
GlyphClass: 1
Flags: W
LayerCount: 2
Fore
SplineSet
1046 0 m 1,0,-1
 752 0 l 1,1,-1
 561 482 l 1,2,-1
 358 305 l 1,3,-1
 285 0 l 1,4,-1
 32 0 l 1,5,-1
 353 1413 l 1,6,-1
 617 1413 l 1,7,-1
 422 607 l 1,8,-1
 914 1039 l 1,9,-1
 1248 1039 l 1,10,-1
 764 636 l 1,11,-1
 1046 0 l 1,0,-1
EndSplineSet
EndChar

StartChar: l
Encoding: 108 108 79
Width: 583
GlyphClass: 1
Flags: W
LayerCount: 2
Fore
SplineSet
253 -20 m 0,0,1
 165 -20 165 -20 114.5 14.5 c 128,-1,2
 64 49 64 49 64 130 c 0,3,4
 64 166 64 166 75 209 c 2,5,-1
 354 1413 l 1,6,-1
 607 1413 l 1,7,8
 325 243 325 243 325 235 c 0,9,10
 325 199 325 199 381 199 c 0,11,12
 402 199 402 199 465 207 c 1,13,-1
 428 -2 l 1,14,15
 327 -20 327 -20 253 -20 c 0,0,1
EndSplineSet
EndChar

StartChar: m
Encoding: 109 109 80
Width: 1798
GlyphClass: 1
Flags: W
LayerCount: 2
Fore
SplineSet
1567 0 m 1,0,-1
 1315 0 l 1,1,-1
 1453 609 l 2,2,3
 1466 667 1466 667 1466 712 c 0,4,5
 1466 831 1466 831 1352 831 c 0,6,7
 1275 831 1275 831 1214.5 793 c 128,-1,8
 1154 755 1154 755 1113.5 695.5 c 128,-1,9
 1073 636 1073 636 1057 566 c 2,10,-1
 929 0 l 1,11,-1
 671 0 l 1,12,-1
 811 614 l 2,13,14
 825 676 825 676 825 716 c 0,15,16
 825 831 825 831 711 831 c 0,17,18
 633 831 633 831 573 793 c 128,-1,19
 513 755 513 755 472.5 695.5 c 128,-1,20
 432 636 432 636 415 566 c 2,21,-1
 287 0 l 1,22,-1
 32 0 l 1,23,-1
 270 1039 l 1,24,-1
 526 1039 l 1,25,-1
 500 943 l 1,26,27
 618 1058 618 1058 775 1058 c 0,28,29
 878 1058 878 1058 943.5 1016.5 c 128,-1,30
 1009 975 1009 975 1041 904 c 1,31,32
 1124 985 1124 985 1220 1020.5 c 128,-1,33
 1316 1056 1316 1056 1411 1056 c 0,34,35
 1518 1056 1518 1056 1585.5 1014 c 128,-1,36
 1653 972 1653 972 1685.5 900.5 c 128,-1,37
 1718 829 1718 829 1718 740 c 0,38,39
 1718 678 1718 678 1703 613 c 2,40,-1
 1567 0 l 1,0,-1
EndSplineSet
EndChar

StartChar: n
Encoding: 110 110 81
Width: 1199
GlyphClass: 1
Flags: W
LayerCount: 2
Fore
SplineSet
969 0 m 1,0,-1
 716 0 l 1,1,-1
 854 609 l 2,2,3
 868 666 868 666 868 716 c 0,4,5
 868 828 868 828 754 828 c 0,6,7
 676 828 676 828 605 788 c 128,-1,8
 534 748 534 748 483.5 688 c 128,-1,9
 433 628 433 628 417 564 c 2,10,-1
 290 0 l 1,11,-1
 32 0 l 1,12,-1
 270 1039 l 1,13,-1
 528 1039 l 1,14,-1
 498 931 l 1,15,16
 633 1056 633 1056 814 1056 c 0,17,18
 970 1056 970 1056 1044.5 968.5 c 128,-1,19
 1119 881 1119 881 1119 744 c 0,20,21
 1119 679 1119 679 1104 613 c 2,22,-1
 969 0 l 1,0,-1
EndSplineSet
EndChar

StartChar: o
Encoding: 111 111 82
Width: 1150
GlyphClass: 1
Flags: W
LayerCount: 2
Fore
SplineSet
467 -20 m 0,0,1
 329 -20 329 -20 234 35.5 c 128,-1,2
 139 91 139 91 90 186 c 128,-1,3
 41 281 41 281 41 401 c 0,4,5
 41 490 41 490 73.5 594.5 c 128,-1,6
 106 699 106 699 180 796 c 0,7,8
 267 910 267 910 396.5 981 c 128,-1,9
 526 1052 526 1052 683 1052 c 0,10,11
 822 1052 822 1052 917 996.5 c 128,-1,12
 1012 941 1012 941 1060.5 845.5 c 128,-1,13
 1109 750 1109 750 1109 632 c 0,14,15
 1109 461 1109 461 1015 301.5 c 128,-1,16
 921 142 921 142 749 49 c 0,17,18
 617 -20 617 -20 467 -20 c 0,0,1
488 190 m 0,19,20
 585 190 585 190 658 237 c 128,-1,21
 731 284 731 284 778.5 362 c 128,-1,22
 826 440 826 440 848 539 c 0,23,24
 860 592 860 592 861 642 c 0,25,26
 861 730 861 730 814 785.5 c 128,-1,27
 767 841 767 841 661 841 c 0,28,29
 564 841 564 841 491.5 794 c 128,-1,30
 419 747 419 747 371 668.5 c 128,-1,31
 323 590 323 590 301 492 c 0,32,33
 289 440 289 440 289 389 c 0,34,35
 289 301 289 301 335.5 245.5 c 128,-1,36
 382 190 382 190 488 190 c 0,19,20
EndSplineSet
Substitution2: "Single Substitution lookup 3 subtable" ordmasculine
Substitution2: "Single Substitution lookup 2 subtable" ordmasculine
EndChar

StartChar: p
Encoding: 112 112 83
Width: 1208
GlyphClass: 1
Flags: W
LayerCount: 2
Fore
SplineSet
185 -438 m 1,0,-1
 -73 -438 l 1,1,-1
 272 1039 l 1,2,-1
 524 1039 l 1,3,-1
 504 947 l 1,4,5
 625 1060 625 1060 809 1060 c 0,6,7
 926 1060 926 1060 1003.5 1008.5 c 128,-1,8
 1081 957 1081 957 1119.5 868.5 c 128,-1,9
 1158 780 1158 780 1158 666 c 0,10,11
 1158 492 1158 492 1076.5 321 c 128,-1,12
 995 150 995 150 840 51 c 0,13,14
 727 -20 727 -20 593 -20 c 0,15,16
 509 -20 509 -20 435 12 c 128,-1,17
 361 44 361 44 321 109 c 1,18,-1
 185 -438 l 1,0,-1
556 205 m 0,19,20
 649 205 649 205 718 249.5 c 128,-1,21
 787 294 787 294 832.5 370 c 128,-1,22
 878 446 878 446 899 543 c 0,23,24
 912 600 912 600 912 649 c 0,25,26
 912 733 912 733 868.5 787 c 128,-1,27
 825 841 825 841 726 841 c 0,28,29
 638 841 638 841 568.5 795.5 c 128,-1,30
 499 750 499 750 452.5 672 c 128,-1,31
 406 594 406 594 384 495 c 0,32,33
 372 441 372 441 371 393 c 0,34,35
 371 310 371 310 414.5 257.5 c 128,-1,36
 458 205 458 205 556 205 c 0,19,20
EndSplineSet
EndChar

StartChar: q
Encoding: 113 113 84
Width: 1202
GlyphClass: 1
Flags: W
LayerCount: 2
Fore
SplineSet
827 -438 m 1,0,-1
 571 -438 l 1,1,-1
 704 92 l 1,2,3
 584 -20 584 -20 399 -20 c 0,4,5
 282 -20 282 -20 204.5 31 c 128,-1,6
 127 82 127 82 88.5 170 c 128,-1,7
 50 258 50 258 50 371 c 0,8,9
 50 476 50 476 83 589 c 128,-1,10
 116 702 116 702 179 801 c 0,11,12
 228 876 228 876 294 934 c 128,-1,13
 360 992 360 992 441 1026 c 128,-1,14
 522 1060 522 1060 615 1060 c 0,15,16
 699 1060 699 1060 773 1028.5 c 128,-1,17
 847 997 847 997 887 931 c 1,18,-1
 923 1039 l 1,19,-1
 1173 1039 l 1,20,-1
 827 -438 l 1,0,-1
482 205 m 0,21,22
 575 205 575 205 643.5 249.5 c 128,-1,23
 712 294 712 294 757 369.5 c 128,-1,24
 802 445 802 445 823 543 c 0,25,26
 837 604 837 604 837 650 c 0,27,28
 837 735 837 735 793.5 787 c 128,-1,29
 750 839 750 839 653 839 c 0,30,31
 563 839 563 839 493 793 c 128,-1,32
 423 747 423 747 376.5 669.5 c 128,-1,33
 330 592 330 592 309 495 c 0,34,35
 297 441 297 441 297 393 c 0,36,37
 297 310 297 310 340.5 257.5 c 128,-1,38
 384 205 384 205 482 205 c 0,21,22
EndSplineSet
EndChar

StartChar: r
Encoding: 114 114 85
Width: 851
GlyphClass: 1
Flags: W
LayerCount: 2
Fore
SplineSet
277 0 m 1,0,-1
 32 0 l 1,1,-1
 270 1039 l 1,2,-1
 512 1039 l 1,3,-1
 479 882 l 1,4,5
 534 974 534 974 609.5 1014 c 128,-1,6
 685 1054 685 1054 758 1054 c 0,7,8
 814 1054 814 1054 871.5 1035.5 c 128,-1,9
 929 1017 929 1017 969 982 c 1,10,-1
 817 794 l 1,11,12
 760 828 760 828 695 828 c 0,13,14
 592 828 592 828 509 737.5 c 128,-1,15
 426 647 426 647 386 476 c 2,16,-1
 277 0 l 1,0,-1
EndSplineSet
EndChar

StartChar: s
Encoding: 115 115 86
Width: 925
GlyphClass: 1
Flags: W
LayerCount: 2
Fore
SplineSet
379 -20 m 0,0,1
 313 -20 313 -20 244.5 -1.5 c 128,-1,2
 176 17 176 17 120.5 53.5 c 128,-1,3
 65 90 65 90 26.5 145.5 c 128,-1,4
 -12 201 -12 201 -19 275 c 1,5,-1
 192 346 l 1,6,7
 204 265 204 265 256 223.5 c 128,-1,8
 308 182 308 182 384 182 c 0,9,10
 415 182 415 182 448.5 191 c 128,-1,11
 482 200 482 200 509.5 218 c 128,-1,12
 537 236 537 236 555.5 263.5 c 128,-1,13
 574 291 574 291 574 329 c 0,14,15
 574 359 574 359 558 378 c 128,-1,16
 542 397 542 397 515 410 c 128,-1,17
 488 423 488 423 453.5 433 c 128,-1,18
 419 443 419 443 383 454 c 0,19,20
 341 468 341 468 299.5 486.5 c 128,-1,21
 258 505 258 505 224.5 535 c 128,-1,22
 191 565 191 565 171 608.5 c 128,-1,23
 151 652 151 652 151 714 c 0,24,25
 151 800 151 800 186.5 864 c 128,-1,26
 222 928 222 928 280 970 c 128,-1,27
 338 1012 338 1012 410.5 1033 c 128,-1,28
 483 1054 483 1054 557 1054 c 0,29,30
 617 1054 617 1054 675 1041.5 c 128,-1,31
 733 1029 733 1029 783.5 1002 c 128,-1,32
 834 975 834 975 873 932.5 c 128,-1,33
 912 890 912 890 932 831 c 1,34,-1
 726 744 l 1,35,36
 708 810 708 810 658 838.5 c 128,-1,37
 608 867 608 867 546 867 c 0,38,39
 523 867 523 867 495 861.5 c 128,-1,40
 467 856 467 856 444 843.5 c 128,-1,41
 421 831 421 831 406 811 c 128,-1,42
 391 791 391 791 391 760 c 0,43,44
 391 733 391 733 406 714.5 c 128,-1,45
 421 696 421 696 446.5 683 c 128,-1,46
 472 670 472 670 505 659.5 c 128,-1,47
 538 649 538 649 574 637 c 0,48,49
 617 621 617 621 660 600.5 c 128,-1,50
 703 580 703 580 737.5 548.5 c 128,-1,51
 772 517 772 517 794 470.5 c 128,-1,52
 816 424 816 424 816 357 c 0,53,54
 816 266 816 266 778 196 c 128,-1,55
 740 126 740 126 678 77.5 c 128,-1,56
 616 29 616 29 537.5 4.5 c 128,-1,57
 459 -20 459 -20 379 -20 c 0,0,1
EndSplineSet
Substitution2: "'hist' Historical Forms lookup 18 subtable" longs
Substitution2: "'aalt' Access All Alternates lookup 0 subtable" longs
EndChar

StartChar: t
Encoding: 116 116 87
Width: 778
GlyphClass: 1
Flags: W
LayerCount: 2
Fore
SplineSet
405 -20 m 0,0,1
 273 -20 273 -20 203.5 44.5 c 128,-1,2
 134 109 134 109 134 216 c 0,3,4
 134 259 134 259 144 302 c 2,5,-1
 261 835 l 1,6,-1
 98 835 l 1,7,-1
 146 1039 l 1,8,-1
 312 1039 l 1,9,-1
 367 1263 l 1,10,-1
 649 1421 l 1,11,-1
 549 1039 l 1,12,-1
 819 1039 l 1,13,-1
 770 835 l 1,14,-1
 499 835 l 1,15,-1
 382 317 l 2,16,17
 376 290 376 290 376 270 c 0,18,19
 376 228 376 228 400 211.5 c 128,-1,20
 424 195 424 195 468 195 c 0,21,22
 545 195 545 195 629 239 c 1,23,-1
 586 6 l 1,24,25
 554 -5 554 -5 503 -12.5 c 128,-1,26
 452 -20 452 -20 405 -20 c 0,0,1
EndSplineSet
EndChar

StartChar: u
Encoding: 117 117 88
Width: 1199
GlyphClass: 1
Flags: W
LayerCount: 2
Fore
SplineSet
387 -23 m 0,0,1
 232 -23 232 -23 158 68.5 c 128,-1,2
 84 160 84 160 84 302 c 0,3,4
 84 371 84 371 99 439 c 2,5,-1
 232 1039 l 1,6,-1
 486 1039 l 1,7,-1
 346 424 l 2,8,9
 332 364 332 364 332 326 c 0,10,11
 332 209 332 209 462 209 c 2,12,-1
 472 209 l 2,13,14
 582 209 582 209 670.5 282 c 128,-1,15
 759 355 759 355 799 534 c 2,16,-1
 915 1039 l 1,17,-1
 1173 1039 l 1,18,-1
 933 0 l 1,19,-1
 683 0 l 1,20,-1
 706 109 l 1,21,22
 634 39 634 39 551 8 c 128,-1,23
 468 -23 468 -23 387 -23 c 0,0,1
EndSplineSet
EndChar

StartChar: v
Encoding: 118 118 89
Width: 1039
GlyphClass: 1
Flags: W
LayerCount: 2
Fore
SplineSet
506 0 m 1,0,-1
 298 0 l 1,1,-1
 113 1039 l 1,2,-1
 386 1039 l 1,3,-1
 471 328 l 1,4,-1
 890 1039 l 1,5,-1
 1169 1039 l 1,6,-1
 506 0 l 1,0,-1
EndSplineSet
EndChar

StartChar: w
Encoding: 119 119 90
Width: 1513
GlyphClass: 1
Flags: W
LayerCount: 2
Fore
SplineSet
429 -4 m 1,0,-1
 208 -4 l 1,1,-1
 132 1039 l 1,2,-1
 390 1039 l 1,3,-1
 414 388 l 1,4,-1
 760 1039 l 1,5,-1
 980 1039 l 1,6,-1
 1022 390 l 1,7,-1
 1355 1039 l 1,8,-1
 1628 1039 l 1,9,-1
 1067 0 l 1,10,-1
 837 0 l 1,11,-1
 793 681 l 1,12,-1
 429 -4 l 1,0,-1
EndSplineSet
EndChar

StartChar: x
Encoding: 120 120 91
Width: 1079
GlyphClass: 1
Flags: W
LayerCount: 2
Fore
SplineSet
937 0 m 1,0,-1
 632 0 l 1,1,-1
 500 349 l 1,2,-1
 203 0 l 1,3,-1
 -113 0 l 1,4,-1
 366 524 l 1,5,-1
 134 1039 l 1,6,-1
 437 1039 l 1,7,-1
 571 697 l 1,8,-1
 867 1039 l 1,9,-1
 1185 1039 l 1,10,-1
 703 524 l 1,11,-1
 937 0 l 1,0,-1
EndSplineSet
EndChar

StartChar: y
Encoding: 121 121 92
Width: 1078
GlyphClass: 1
Flags: W
LayerCount: 2
Fore
SplineSet
264 -430 m 1,0,-1
 -17 -430 l 1,1,-1
 287 40 l 1,2,-1
 115 1039 l 1,3,-1
 390 1039 l 1,4,-1
 484 326 l 1,5,-1
 918 1039 l 1,6,-1
 1201 1039 l 1,7,-1
 264 -430 l 1,0,-1
EndSplineSet
EndChar

StartChar: z
Encoding: 122 122 93
Width: 1048
GlyphClass: 1
Flags: W
LayerCount: 2
Fore
SplineSet
852 0 m 1,0,-1
 -63 0 l 1,1,-1
 -28 162 l 1,2,-1
 708 835 l 1,3,-1
 156 835 l 1,4,-1
 205 1039 l 1,5,-1
 1091 1039 l 1,6,-1
 1052 865 l 1,7,-1
 341 205 l 1,8,-1
 901 205 l 1,9,-1
 852 0 l 1,0,-1
EndSplineSet
EndChar

StartChar: braceleft
Encoding: 123 123 94
Width: 618
GlyphClass: 1
Flags: W
LayerCount: 2
Fore
SplineSet
334 -156 m 2,0,-1
 262 -156 l 2,1,2
 142 -156 142 -156 104 -33 c 1,3,4
 87 -12 87 -12 87 37 c 0,5,6
 87 82 87 82 100 137 c 0,7,8
 186 507 186 507 186 515 c 0,9,10
 186 544 186 544 162.5 559.5 c 128,-1,11
 139 575 139 575 90 594 c 1,12,-1
 82 598 l 1,13,-1
 106 758 l 1,14,15
 258 800 258 800 279 905 c 2,16,-1
 377 1331 l 2,17,18
 405 1461 405 1461 477 1520 c 128,-1,19
 549 1579 549 1579 672 1579 c 0,20,21
 753 1579 753 1579 807 1575 c 1,22,-1
 782 1413 l 1,23,24
 760 1418 760 1418 731.5 1421.5 c 128,-1,25
 703 1425 703 1425 690 1425 c 0,26,27
 605 1425 605 1425 594 1380 c 2,28,-1
 477 870 l 2,29,30
 447 732 447 732 287 657 c 1,31,32
 332 635 332 635 361 597 c 128,-1,33
 390 559 390 559 390 511 c 0,34,35
 390 494 390 494 303 121 c 0,36,37
 296 93 296 93 296 66 c 0,38,39
 296 2 296 2 361 2 c 0,40,41
 394 2 394 2 446 14 c 1,42,-1
 422 -152 l 1,43,44
 410 -152 410 -152 379.5 -154 c 128,-1,45
 349 -156 349 -156 334 -156 c 2,0,-1
EndSplineSet
EndChar

StartChar: bar
Encoding: 124 124 95
Width: 623
GlyphClass: 1
Flags: W
LayerCount: 2
Fore
SplineSet
168 -512 m 1,0,-1
 -12 -512 l 1,1,-1
 461 1534 l 1,2,-1
 641 1534 l 1,3,-1
 168 -512 l 1,0,-1
EndSplineSet
EndChar

StartChar: braceright
Encoding: 125 125 96
Width: 618
GlyphClass: 1
Flags: W
LayerCount: 2
Fore
SplineSet
66 -156 m 2,0,-1
 -6 -156 l 2,1,2
 -20 -156 -20 -156 -47.5 -154 c 128,-1,3
 -75 -152 -75 -152 -90 -152 c 1,4,-1
 -66 10 l 1,5,6
 -33 2 -33 2 0 2 c 0,7,8
 62 2 62 2 97.5 42 c 128,-1,9
 133 82 133 82 145 141 c 2,10,-1
 227 502 l 2,11,12
 255 609 255 609 410 678 c 1,13,14
 310 736 310 736 310 836 c 0,15,16
 310 863 310 863 317 891 c 0,17,18
 436 1401 436 1401 437 1411 c 0,19,20
 437 1418 437 1418 432.5 1421.5 c 128,-1,21
 428 1425 428 1425 383 1425 c 0,22,23
 367 1425 367 1425 332 1420 c 128,-1,24
 297 1415 297 1415 270 1409 c 1,25,-1
 295 1575 l 1,26,27
 349 1579 349 1579 430 1579 c 0,28,29
 536 1579 536 1579 584 1531 c 128,-1,30
 632 1483 632 1483 632 1401 c 0,31,32
 632 1356 632 1356 621 1311 c 0,33,34
 517 863 517 863 517 847 c 0,35,36
 517 812 517 812 539 791.5 c 128,-1,37
 561 771 561 771 616 750 c 1,38,-1
 592 590 l 1,39,40
 543 573 543 573 513 559.5 c 128,-1,41
 483 546 483 546 458.5 526 c 128,-1,42
 434 506 434 506 428 477 c 2,43,-1
 346 117 l 2,44,45
 320 -4 320 -4 272 -70 c 1,46,47
 229 -112 229 -112 179 -134 c 128,-1,48
 129 -156 129 -156 66 -156 c 2,0,-1
EndSplineSet
EndChar

StartChar: asciitilde
Encoding: 126 126 97
Width: 1157
GlyphClass: 1
Flags: W
LayerCount: 2
Fore
SplineSet
735 379 m 0,0,1
 663 379 663 379 609 396 c 128,-1,2
 555 413 555 413 498 446 c 0,3,4
 463 465 463 465 442.5 473 c 128,-1,5
 422 481 422 481 401 481 c 0,6,7
 363 481 363 481 352.5 466 c 128,-1,8
 342 451 342 451 342 406 c 1,9,-1
 172 406 l 1,10,11
 172 535 172 535 234 593 c 128,-1,12
 296 651 296 651 399 651 c 0,13,14
 484 651 484 651 541.5 633.5 c 128,-1,15
 599 616 599 616 657 584 c 0,16,17
 687 568 687 568 705 560.5 c 128,-1,18
 723 553 723 553 741 553 c 0,19,20
 782 553 782 553 794.5 571.5 c 128,-1,21
 807 590 807 590 807 645 c 1,22,-1
 985 645 l 1,23,24
 985 379 985 379 735 379 c 0,0,1
EndSplineSet
EndChar

StartChar: exclamdown
Encoding: 161 161 99
Width: 635
GlyphClass: 1
Flags: W
LayerCount: 2
Fore
SplineSet
506 735 m 1,0,-1
 240 735 l 1,1,-1
 299 999 l 1,2,-1
 565 999 l 1,3,-1
 506 735 l 1,0,-1
223 -434 m 1,4,-1
 -18 -434 l 1,5,-1
 242 571 l 1,6,-1
 426 571 l 1,7,-1
 223 -434 l 1,4,-1
EndSplineSet
EndChar

StartChar: cent
Encoding: 162 162 100
Width: 1116
GlyphClass: 1
Flags: W
LayerCount: 2
Fore
SplineSet
512 -205 m 1,0,-1
 330 -205 l 1,1,-1
 381 -18 l 1,2,3
 283 2 283 2 220.5 55 c 128,-1,4
 158 108 158 108 129 186.5 c 128,-1,5
 100 265 100 265 100 359 c 0,6,7
 100 463 100 463 129.5 561.5 c 128,-1,8
 159 660 159 660 212 744 c 0,9,10
 273 846 273 846 372 919 c 128,-1,11
 471 992 471 992 606 1018 c 1,12,-1
 655 1200 l 1,13,-1
 836 1200 l 1,14,-1
 786 1014 l 1,15,16
 1012 978 1012 978 1069 713 c 1,17,-1
 842 649 l 1,18,19
 839 740 839 740 800.5 781.5 c 128,-1,20
 762 823 762 823 674 823 c 0,21,22
 585 823 585 823 517 774.5 c 128,-1,23
 449 726 449 726 403.5 647.5 c 128,-1,24
 358 569 358 569 336 475 c 0,25,26
 322 414 322 414 322 363 c 0,27,28
 322 279 322 279 362.5 225.5 c 128,-1,29
 403 172 403 172 498 172 c 0,30,31
 588 172 588 172 655 220 c 128,-1,32
 722 268 722 268 772 367 c 1,33,-1
 956 266 l 1,34,35
 814 18 814 18 559 -23 c 1,36,-1
 512 -205 l 1,0,-1
EndSplineSet
EndChar

StartChar: sterling
Encoding: 163 163 101
Width: 1200
GlyphClass: 1
Flags: W
LayerCount: 2
Fore
SplineSet
1063 0 m 1,0,-1
 23 0 l 1,1,-1
 68 197 l 1,2,3
 236 273 236 273 313.5 373 c 128,-1,4
 391 473 391 473 391 610 c 1,5,-1
 166 610 l 1,6,-1
 213 805 l 1,7,-1
 391 805 l 1,8,9
 382 858 382 858 382 909 c 0,10,11
 382 1048 382 1048 444 1172 c 128,-1,12
 506 1296 506 1296 627 1374 c 0,13,14
 743 1446 743 1446 891 1446 c 0,15,16
 995 1446 995 1446 1073 1401 c 128,-1,17
 1151 1356 1151 1356 1197.5 1283 c 128,-1,18
 1244 1210 1244 1210 1255 1124 c 1,19,-1
 1057 1075 l 1,20,21
 1043 1158 1043 1158 991 1199.5 c 128,-1,22
 939 1241 939 1241 870 1241 c 0,23,24
 778 1241 778 1241 713 1191.5 c 128,-1,25
 648 1142 648 1142 614 1063.5 c 128,-1,26
 580 985 580 985 580 898 c 0,27,28
 580 849 580 849 590 805 c 1,29,-1
 1073 805 l 1,30,-1
 1026 610 l 1,31,-1
 590 610 l 1,32,33
 590 487 590 487 541.5 365.5 c 128,-1,34
 493 244 493 244 393 201 c 1,35,-1
 1110 205 l 1,36,-1
 1063 0 l 1,0,-1
EndSplineSet
EndChar

StartChar: currency
Encoding: 164 164 102
Width: 1176
GlyphClass: 1
Flags: W
LayerCount: 2
Fore
SplineSet
877 129 m 1,0,-1
 793 231 l 1,1,2
 666 156 666 156 530 156 c 0,3,4
 382 156 382 156 272 244 c 1,5,-1
 135 129 l 1,6,-1
 33 264 l 1,7,-1
 170 377 l 1,8,9
 136 449 136 449 136 539 c 256,10,11
 136 629 136 629 173 723.5 c 128,-1,12
 210 818 210 818 287 901 c 1,13,-1
 205 995 l 1,14,-1
 360 1130 l 1,15,-1
 442 1028 l 1,16,17
 573 1105 573 1105 709 1105 c 0,18,19
 859 1105 859 1105 963 1018 c 1,20,-1
 1098 1128 l 1,21,-1
 1202 999 l 1,22,-1
 1067 887 l 1,23,24
 1102 809 1102 809 1102 721 c 0,25,26
 1102 631 1102 631 1064.5 536.5 c 128,-1,27
 1027 442 1027 442 950 358 c 1,28,-1
 1034 264 l 1,29,-1
 877 129 l 1,0,-1
545 344 m 0,30,31
 635 344 635 344 735.5 401.5 c 128,-1,32
 836 459 836 459 894 565 c 0,33,34
 930 635 930 635 930 706 c 0,35,36
 930 800 930 800 867 859.5 c 128,-1,37
 804 919 804 919 710 919 c 0,38,39
 618 919 618 919 516 860.5 c 128,-1,40
 414 802 414 802 360 699 c 0,41,42
 324 628 324 628 324 557 c 0,43,44
 324 490 324 490 354.5 442.5 c 128,-1,45
 385 395 385 395 435.5 369.5 c 128,-1,46
 486 344 486 344 545 344 c 0,30,31
EndSplineSet
EndChar

StartChar: yen
Encoding: 165 165 103
Width: 1319
GlyphClass: 1
Flags: W
LayerCount: 2
Fore
SplineSet
649 0 m 1,0,-1
 440 0 l 1,1,-1
 485 195 l 1,2,-1
 186 195 l 1,3,-1
 227 379 l 1,4,-1
 526 379 l 1,5,-1
 555 496 l 1,6,-1
 256 496 l 1,7,-1
 299 682 l 1,8,-1
 514 682 l 1,9,-1
 209 1413 l 1,10,-1
 455 1413 l 1,11,-1
 711 743 l 1,12,-1
 1282 1413 l 1,13,-1
 1536 1413 l 1,14,-1
 895 680 l 1,15,-1
 1104 680 l 1,16,-1
 1063 496 l 1,17,-1
 764 496 l 1,18,-1
 735 379 l 1,19,-1
 1034 379 l 1,20,-1
 993 195 l 1,21,-1
 694 195 l 1,22,-1
 649 0 l 1,0,-1
EndSplineSet
EndChar

StartChar: brokenbar
Encoding: 166 166 104
Width: 643
GlyphClass: 1
Flags: W
LayerCount: 2
Fore
SplineSet
475 731 m 1,0,-1
 274 731 l 1,1,-1
 446 1475 l 1,2,-1
 647 1475 l 1,3,-1
 475 731 l 1,0,-1
236 -307 m 1,4,-1
 35 -307 l 1,5,-1
 203 420 l 1,6,-1
 403 420 l 1,7,-1
 236 -307 l 1,4,-1
EndSplineSet
EndChar

StartChar: section
Encoding: 167 167 105
Width: 1106
GlyphClass: 1
Flags: W
LayerCount: 2
Fore
SplineSet
455 -18 m 0,0,1
 349 -18 349 -18 261 15.5 c 128,-1,2
 173 49 173 49 122 118 c 0,3,4
 74 183 74 183 74 287 c 1,5,-1
 317 336 l 1,6,-1
 317 330 l 2,7,8
 317 246 317 246 357.5 212 c 128,-1,9
 398 178 398 178 489 178 c 0,10,11
 581 178 581 178 646 213 c 128,-1,12
 711 248 711 248 725 313 c 0,13,14
 727 320 727 320 727 332 c 0,15,16
 727 364 727 364 701 384.5 c 128,-1,17
 675 405 675 405 636 417.5 c 128,-1,18
 597 430 597 430 528 446 c 0,19,20
 432 469 432 469 369.5 491.5 c 128,-1,21
 307 514 307 514 263 560 c 128,-1,22
 219 606 219 606 219 682 c 0,23,24
 219 822 219 822 360 950 c 1,25,26
 313 998 313 998 313 1074 c 0,27,28
 313 1109 313 1109 322 1147 c 0,29,30
 345 1239 345 1239 412 1303.5 c 128,-1,31
 479 1368 479 1368 572 1401 c 128,-1,32
 665 1434 665 1434 764 1434 c 0,33,34
 853 1434 853 1434 925 1406 c 128,-1,35
 997 1378 997 1378 1044 1332 c 128,-1,36
 1091 1286 1091 1286 1108 1233 c 1,37,-1
 895 1141 l 1,38,39
 883 1245 883 1245 737 1245 c 0,40,41
 677 1245 677 1245 628.5 1224 c 128,-1,42
 580 1203 580 1203 550 1169 c 128,-1,43
 520 1135 520 1135 512 1098 c 2,44,-1
 510 1082 l 2,45,46
 510 1054 510 1054 534.5 1035.5 c 128,-1,47
 559 1017 559 1017 596 1006 c 128,-1,48
 633 995 633 995 699 981 c 0,49,50
 798 960 798 960 863 937 c 128,-1,51
 928 914 928 914 974.5 866 c 128,-1,52
 1021 818 1021 818 1021 738 c 0,53,54
 1021 654 1021 654 970 566 c 0,55,56
 941 517 941 517 885 467 c 1,57,58
 929 422 929 422 929 342 c 0,59,60
 929 309 929 309 920 268 c 0,61,62
 896 168 896 168 824 104 c 128,-1,63
 752 40 752 40 655.5 11 c 128,-1,64
 559 -18 559 -18 455 -18 c 0,0,1
688 573 m 1,65,66
 789 605 789 605 815 705 c 0,67,68
 818 717 818 717 818 726 c 0,69,70
 818 788 818 788 721 816 c 2,71,-1
 663 831 l 1,72,-1
 551 856 l 1,73,74
 497 834 497 834 466 794 c 0,75,76
 428 747 428 747 422 696 c 1,77,78
 422 641 422 641 517 614 c 0,79,80
 559 601 559 601 688 573 c 1,65,66
EndSplineSet
EndChar

StartChar: copyright
Encoding: 169 169 107
Width: 1778
GlyphClass: 1
Flags: W
LayerCount: 2
Fore
SplineSet
938 -49 m 0,0,1
 789 -49 789 -49 659 -1 c 128,-1,2
 529 47 529 47 426.5 131.5 c 128,-1,3
 324 216 324 216 256 328 c 0,4,5
 150 501 150 501 150 707 c 0,6,7
 150 850 150 850 200.5 974.5 c 128,-1,8
 251 1099 251 1099 339 1197 c 128,-1,9
 427 1295 427 1295 543 1361 c 0,10,11
 724 1462 724 1462 938 1462 c 0,12,13
 1087 1462 1087 1462 1216.5 1414 c 128,-1,14
 1346 1366 1346 1366 1448 1281.5 c 128,-1,15
 1550 1197 1550 1197 1618 1086 c 0,16,17
 1724 912 1724 912 1724 707 c 0,18,19
 1724 563 1724 563 1674 438.5 c 128,-1,20
 1624 314 1624 314 1536 216 c 128,-1,21
 1448 118 1448 118 1333 53 c 0,22,23
 1152 -49 1152 -49 938 -49 c 0,0,1
938 139 m 0,24,25
 1105 139 1105 139 1240 218.5 c 128,-1,26
 1375 298 1375 298 1455 425 c 0,27,28
 1536 556 1536 556 1536 707 c 0,29,30
 1536 865 1536 865 1452.5 993 c 128,-1,31
 1369 1121 1369 1121 1235 1197 c 0,32,33
 1097 1274 1097 1274 938 1274 c 0,34,35
 770 1274 770 1274 635.5 1194.5 c 128,-1,36
 501 1115 501 1115 422 989 c 0,37,38
 340 858 340 858 340 707 c 0,39,40
 340 549 340 549 423.5 420.5 c 128,-1,41
 507 292 507 292 641 217 c 0,42,43
 778 139 778 139 938 139 c 0,24,25
954 264 m 0,44,45
 824 264 824 264 738 325 c 128,-1,46
 652 386 652 386 608.5 486.5 c 128,-1,47
 565 587 565 587 565 705 c 0,48,49
 565 791 565 791 588.5 870 c 128,-1,50
 612 949 612 949 660 1010.5 c 128,-1,51
 708 1072 708 1072 781.5 1108.5 c 128,-1,52
 855 1145 855 1145 954 1145 c 0,53,54
 1074 1145 1074 1145 1162 1086.5 c 128,-1,55
 1250 1028 1250 1028 1309 901 c 1,56,-1
 1135 827 l 1,57,58
 1103 895 1103 895 1062 924.5 c 128,-1,59
 1021 954 1021 954 954 954 c 0,60,61
 883 954 883 954 838.5 921 c 128,-1,62
 794 888 794 888 773 832 c 128,-1,63
 752 776 752 776 752 705 c 256,64,65
 752 634 752 634 772.5 578 c 128,-1,66
 793 522 793 522 837 489.5 c 128,-1,67
 881 457 881 457 952 457 c 0,68,69
 1020 457 1020 457 1060.5 486 c 128,-1,70
 1101 515 1101 515 1133 584 c 1,71,-1
 1309 510 l 1,72,73
 1249 382 1249 382 1161 323 c 128,-1,74
 1073 264 1073 264 954 264 c 0,44,45
EndSplineSet
EndChar

StartChar: ordfeminine
Encoding: 170 170 108
Width: 807
GlyphClass: 2
Flags: W
LayerCount: 2
Fore
SplineSet
381 709 m 0,0,1
 291 709 291 709 230 759 c 128,-1,2
 169 809 169 809 169 894 c 0,3,4
 169 922 169 922 176 950 c 0,5,6
 199 1053 199 1053 283.5 1100 c 128,-1,7
 368 1147 368 1147 494 1147 c 1,8,-1
 696 1157 l 1,9,10
 702 1186 702 1186 702 1208 c 0,11,12
 702 1256 702 1256 673.5 1277 c 128,-1,13
 645 1298 645 1298 586 1298 c 0,14,15
 478 1298 478 1298 375 1182 c 1,16,-1
 268 1280 l 1,17,18
 344 1361 344 1361 420 1397.5 c 128,-1,19
 496 1434 496 1434 596 1434 c 0,20,21
 721 1434 721 1434 783 1371.5 c 128,-1,22
 845 1309 845 1309 845 1214 c 0,23,24
 845 1178 845 1178 836 1139 c 2,25,-1
 739 723 l 1,26,-1
 606 723 l 1,27,-1
 625 799 l 1,28,29
 529 709 529 709 381 709 c 0,0,1
414 846 m 0,30,31
 469 846 469 846 520.5 872.5 c 128,-1,32
 572 899 572 899 610.5 939.5 c 128,-1,33
 649 980 649 980 666 1024 c 1,34,-1
 485 1014 l 2,35,36
 427 1014 427 1014 382 985 c 0,37,38
 332 953 332 953 325 897 c 0,39,40
 325 875 325 875 352.5 860.5 c 128,-1,41
 380 846 380 846 414 846 c 0,30,31
EndSplineSet
EndChar

StartChar: guillemotleft
Encoding: 171 171 109
Width: 954
GlyphClass: 1
Flags: W
LayerCount: 2
Fore
SplineSet
367 156 m 1,0,-1
 18 510 l 1,1,-1
 526 866 l 1,2,-1
 481 655 l 1,3,-1
 266 510 l 1,4,-1
 412 367 l 1,5,-1
 367 156 l 1,0,-1
729 156 m 1,6,-1
 381 510 l 1,7,-1
 889 866 l 1,8,-1
 844 655 l 1,9,-1
 629 510 l 1,10,-1
 774 367 l 1,11,-1
 729 156 l 1,6,-1
EndSplineSet
EndChar

StartChar: logicalnot
Encoding: 172 172 110
Width: 1300
GlyphClass: 1
Flags: W
LayerCount: 2
Fore
SplineSet
1083 291 m 1,0,-1
 850 291 l 1,1,-1
 850 580 l 1,2,-1
 135 580 l 1,3,-1
 135 797 l 1,4,-1
 1083 797 l 1,5,-1
 1083 291 l 1,0,-1
EndSplineSet
EndChar

StartChar: uni00AD
Encoding: 173 173 111
Width: 1010
GlyphClass: 1
Flags: W
LayerCount: 2
Fore
SplineSet
870 508 m 1,0,-1
 143 508 l 1,1,-1
 186 692 l 1,2,-1
 913 692 l 1,3,-1
 870 508 l 1,0,-1
EndSplineSet
EndChar

StartChar: registered
Encoding: 174 174 112
Width: 1778
GlyphClass: 1
Flags: W
LayerCount: 2
Fore
SplineSet
938 -47 m 0,0,1
 789 -47 789 -47 659 1 c 128,-1,2
 529 49 529 49 426.5 133.5 c 128,-1,3
 324 218 324 218 256 330 c 0,4,5
 150 503 150 503 150 709 c 0,6,7
 150 852 150 852 200.5 976.5 c 128,-1,8
 251 1101 251 1101 339 1199 c 128,-1,9
 427 1297 427 1297 543 1363 c 0,10,11
 724 1464 724 1464 938 1464 c 0,12,13
 1087 1464 1087 1464 1216.5 1416 c 128,-1,14
 1346 1368 1346 1368 1448 1283.5 c 128,-1,15
 1550 1199 1550 1199 1618 1088 c 0,16,17
 1724 914 1724 914 1724 709 c 0,18,19
 1724 565 1724 565 1674 440.5 c 128,-1,20
 1624 316 1624 316 1536 218 c 128,-1,21
 1448 120 1448 120 1333 55 c 0,22,23
 1152 -47 1152 -47 938 -47 c 0,0,1
938 133 m 0,24,25
 1108 133 1108 133 1244.5 213.5 c 128,-1,26
 1381 294 1381 294 1462 423 c 0,27,28
 1544 555 1544 555 1544 709 c 0,29,30
 1544 817 1544 817 1505 911 c 128,-1,31
 1466 1005 1466 1005 1397.5 1080 c 128,-1,32
 1329 1155 1329 1155 1240 1206 c 0,33,34
 1100 1284 1100 1284 938 1284 c 0,35,36
 767 1284 767 1284 630 1203.5 c 128,-1,37
 493 1123 493 1123 413 995 c 0,38,39
 330 863 330 863 330 709 c 0,40,41
 330 548 330 548 414.5 418 c 128,-1,42
 499 288 499 288 635 212 c 0,43,44
 775 133 775 133 938 133 c 0,24,25
1333 289 m 1,45,-1
 1122 289 l 1,46,-1
 950 604 l 1,47,-1
 854 604 l 1,48,-1
 854 289 l 1,49,-1
 670 289 l 1,50,-1
 670 1114 l 1,51,-1
 991 1114 l 2,52,53
 1134 1114 1134 1114 1205 1044.5 c 128,-1,54
 1276 975 1276 975 1276 860 c 0,55,56
 1276 770 1276 770 1236 713.5 c 128,-1,57
 1196 657 1196 657 1135 631 c 1,58,-1
 1333 289 l 1,45,-1
991 778 m 2,59,60
 1051 778 1051 778 1076.5 796.5 c 128,-1,61
 1102 815 1102 815 1102 860 c 0,62,63
 1102 906 1102 906 1078.5 923 c 128,-1,64
 1055 940 1055 940 991 940 c 2,65,-1
 844 940 l 1,66,-1
 844 778 l 1,67,-1
 991 778 l 2,59,60
EndSplineSet
EndChar

StartChar: degree
Encoding: 176 176 114
Width: 805
GlyphClass: 1
Flags: W
LayerCount: 2
Fore
SplineSet
401 848 m 0,0,1
 316 848 316 848 250 889.5 c 128,-1,2
 184 931 184 931 146.5 998 c 128,-1,3
 109 1065 109 1065 109 1141 c 0,4,5
 109 1227 109 1227 151 1293 c 128,-1,6
 193 1359 193 1359 259.5 1396.5 c 128,-1,7
 326 1434 326 1434 401 1434 c 0,8,9
 486 1434 486 1434 552 1393 c 128,-1,10
 618 1352 618 1352 656 1285.5 c 128,-1,11
 694 1219 694 1219 694 1141 c 0,12,13
 694 1056 694 1056 653 990 c 128,-1,14
 612 924 612 924 545.5 886 c 128,-1,15
 479 848 479 848 401 848 c 0,0,1
401 1012 m 0,16,17
 456 1012 456 1012 494 1049.5 c 128,-1,18
 532 1087 532 1087 532 1141 c 0,19,20
 532 1197 532 1197 492.5 1233.5 c 128,-1,21
 453 1270 453 1270 401 1270 c 0,22,23
 346 1270 346 1270 309 1231 c 128,-1,24
 272 1192 272 1192 272 1141 c 0,25,26
 272 1084 272 1084 311.5 1048 c 128,-1,27
 351 1012 351 1012 401 1012 c 0,16,17
EndSplineSet
EndChar

StartChar: plusminus
Encoding: 177 177 115
Width: 1331
GlyphClass: 1
Flags: W
LayerCount: 2
Fore
SplineSet
758 106 m 1,0,-1
 573 106 l 1,1,-1
 573 532 l 1,2,-1
 117 532 l 1,3,-1
 117 717 l 1,4,-1
 573 717 l 1,5,-1
 573 1143 l 1,6,-1
 758 1143 l 1,7,-1
 758 717 l 1,8,-1
 1214 717 l 1,9,-1
 1214 532 l 1,10,-1
 758 532 l 1,11,-1
 758 106 l 1,0,-1
1212 -184 m 1,12,-1
 119 -184 l 1,13,-1
 119 0 l 1,14,-1
 1212 0 l 1,15,-1
 1212 -184 l 1,12,-1
EndSplineSet
EndChar

StartChar: twosuperior
Encoding: 178 178 116
Width: 812
GlyphClass: 2
Flags: W
LayerCount: 2
Fore
SplineSet
680 486 m 1,0,-1
 -41 486 l 1,1,-1
 -12 641 l 1,2,-1
 0 647 l 1,3,4
 243 776 243 776 394 897 c 1,5,6
 581 1025 581 1025 614 1155 c 0,7,8
 618 1173 618 1173 618 1189 c 0,9,10
 618 1270 618 1270 518 1270 c 0,11,12
 457 1270 457 1270 413 1241 c 128,-1,13
 369 1212 369 1212 340.5 1167 c 128,-1,14
 312 1122 312 1122 297 1072 c 1,15,-1
 138 1095 l 1,16,17
 159 1184 159 1184 214.5 1262.5 c 128,-1,18
 270 1341 270 1341 355.5 1391 c 128,-1,19
 441 1441 441 1441 548 1441 c 0,20,21
 669 1441 669 1441 738 1379 c 128,-1,22
 807 1317 807 1317 807 1221 c 0,23,24
 807 1146 807 1146 766 1073 c 128,-1,25
 725 1000 725 1000 654 927 c 128,-1,26
 583 854 583 854 489 780 c 1,27,28
 370 702 370 702 276 653 c 1,29,-1
 720 658 l 1,30,-1
 680 486 l 1,0,-1
EndSplineSet
EndChar

StartChar: threesuperior
Encoding: 179 179 117
Width: 837
GlyphClass: 2
Flags: W
LayerCount: 2
Fore
SplineSet
333 462 m 0,0,1
 249 462 249 462 178.5 489 c 128,-1,2
 108 516 108 516 65 571 c 128,-1,3
 22 626 22 626 22 709 c 0,4,5
 22 749 22 749 33 789 c 1,6,-1
 212 785 l 1,7,8
 207 767 207 767 207 748 c 0,9,10
 207 692 207 692 249 665 c 128,-1,11
 291 638 291 638 355 638 c 0,12,13
 438 638 438 638 503.5 677 c 128,-1,14
 569 716 569 716 588 785 c 0,15,16
 592 801 592 801 592 813 c 0,17,18
 592 858 592 858 551.5 879 c 128,-1,19
 511 900 511 900 446 900 c 2,20,-1
 345 900 l 1,21,-1
 381 1070 l 1,22,-1
 474 1070 l 2,23,24
 532 1070 532 1070 575 1099 c 128,-1,25
 618 1128 618 1128 633 1185 c 0,26,27
 636 1195 636 1195 636 1205 c 0,28,29
 636 1239 636 1239 604.5 1256.5 c 128,-1,30
 573 1274 573 1274 524 1274 c 0,31,32
 461 1274 461 1274 408.5 1240 c 128,-1,33
 356 1206 356 1206 338 1146 c 1,34,-1
 182 1168 l 1,35,36
 217 1306 217 1306 322.5 1379 c 128,-1,37
 428 1452 428 1452 554 1452 c 0,38,39
 627 1452 627 1452 687.5 1427 c 128,-1,40
 748 1402 748 1402 784 1353.5 c 128,-1,41
 820 1305 820 1305 820 1235 c 0,42,43
 820 1172 820 1172 783 1105.5 c 128,-1,44
 746 1039 746 1039 672 990 c 1,45,46
 769 936 769 936 769 818 c 0,47,48
 769 762 769 762 746 701 c 128,-1,49
 723 640 723 640 675 590 c 0,50,51
 607 523 607 523 517 492.5 c 128,-1,52
 427 462 427 462 333 462 c 0,0,1
EndSplineSet
EndChar

StartChar: uni00B5
Encoding: 181 181 119
Width: 1341
GlyphClass: 1
Flags: W
LayerCount: 2
Fore
SplineSet
258 -266 m 1,0,-1
 45 -266 l 1,1,-1
 347 1039 l 1,2,-1
 583 1039 l 1,3,-1
 439 403 l 2,4,5
 428 347 428 347 427 311 c 0,6,7
 427 251 427 251 457.5 219.5 c 128,-1,8
 488 188 488 188 553 188 c 0,9,10
 635 188 635 188 709.5 229.5 c 128,-1,11
 784 271 784 271 835.5 334.5 c 128,-1,12
 887 398 887 398 903 466 c 2,13,-1
 1033 1039 l 1,14,-1
 1270 1039 l 1,15,-1
 1031 0 l 1,16,-1
 795 0 l 1,17,-1
 820 90 l 1,18,19
 760 40 760 40 679.5 8.5 c 128,-1,20
 599 -23 599 -23 512 -23 c 256,21,22
 425 -23 425 -23 349 12 c 1,23,-1
 258 -266 l 1,0,-1
EndSplineSet
EndChar

StartChar: paragraph
Encoding: 182 182 120
Width: 1262
GlyphClass: 1
Flags: W
LayerCount: 2
Fore
SplineSet
516 -246 m 1,0,-1
 346 -246 l 1,1,-1
 553 623 l 1,2,3
 454 623 454 623 368.5 660 c 128,-1,4
 283 697 283 697 230.5 769 c 128,-1,5
 178 841 178 841 178 945 c 0,6,7
 178 1017 178 1017 207.5 1095.5 c 128,-1,8
 237 1174 237 1174 298 1240 c 0,9,10
 385 1328 385 1328 497 1370.5 c 128,-1,11
 609 1413 609 1413 723 1413 c 2,12,-1
 899 1413 l 1,13,-1
 516 -246 l 1,0,-1
868 -246 m 1,14,-1
 696 -246 l 1,15,-1
 1079 1413 l 1,16,-1
 1251 1413 l 1,17,-1
 868 -246 l 1,14,-1
EndSplineSet
EndChar

StartChar: periodcentered
Encoding: 183 183 121
Width: 616
GlyphClass: 1
Flags: W
LayerCount: 2
Fore
SplineSet
354 651 m 0,0,1
 294 651 294 651 261.5 689.5 c 128,-1,2
 229 728 229 728 229 783 c 0,3,4
 229 864 229 864 294 912 c 0,5,6
 341 948 341 948 397 948 c 0,7,8
 454 948 454 948 489.5 911.5 c 128,-1,9
 525 875 525 875 525 819 c 0,10,11
 525 789 525 789 510.5 753.5 c 128,-1,12
 496 718 496 718 460 689 c 0,13,14
 412 651 412 651 354 651 c 0,0,1
EndSplineSet
EndChar

StartChar: cedilla
Encoding: 184 184 122
Width: 551
GlyphClass: 4
Flags: W
AnchorPoint: "Anchor-3" 37 -500 basemark 0
LayerCount: 2
Fore
SplineSet
25 -522 m 0,0,1
 -44 -522 -44 -522 -91.5 -481.5 c 128,-1,2
 -139 -441 -139 -441 -152 -383 c 1,3,-1
 -10 -346 l 1,4,5
 -5 -383 -5 -383 37 -383 c 0,6,7
 80 -383 80 -383 111 -354 c 0,8,9
 149 -320 149 -320 156 -269 c 1,10,11
 156 -237 156 -237 120.5 -216 c 128,-1,12
 85 -195 85 -195 18 -195 c 2,13,-1
 -59 -195 l 1,14,-1
 100 -2 l 1,15,-1
 250 -2 l 1,16,-1
 141 -102 l 1,17,18
 219 -113 219 -113 257 -157 c 128,-1,19
 295 -201 295 -201 295 -264 c 0,20,21
 295 -369 295 -369 215.5 -445.5 c 128,-1,22
 136 -522 136 -522 25 -522 c 0,0,1
EndSplineSet
EndChar

StartChar: onesuperior
Encoding: 185 185 123
Width: 855
GlyphClass: 2
Flags: W
LayerCount: 2
Fore
SplineSet
490 486 m 1,0,-1
 301 486 l 1,1,-1
 482 1160 l 1,2,-1
 246 1160 l 1,3,-1
 306 1305 l 1,4,-1
 416 1305 l 2,5,6
 461 1305 461 1305 497.5 1330.5 c 128,-1,7
 534 1356 534 1356 547 1403 c 2,8,-1
 554 1428 l 1,9,-1
 743 1428 l 1,10,-1
 490 486 l 1,0,-1
EndSplineSet
EndChar

StartChar: ordmasculine
Encoding: 186 186 124
Width: 844
GlyphClass: 2
Flags: W
LayerCount: 2
Fore
SplineSet
483 711 m 0,0,1
 389 711 389 711 323.5 749.5 c 128,-1,2
 258 788 258 788 224 853.5 c 128,-1,3
 190 919 190 919 190 1000 c 0,4,5
 190 1120 190 1120 251 1218.5 c 128,-1,6
 312 1317 312 1317 411 1375.5 c 128,-1,7
 510 1434 510 1434 625 1434 c 0,8,9
 718 1434 718 1434 783 1395.5 c 128,-1,10
 848 1357 848 1357 882 1291.5 c 128,-1,11
 916 1226 916 1226 916 1146 c 0,12,13
 916 1024 916 1024 855 925.5 c 128,-1,14
 794 827 794 827 695 769 c 128,-1,15
 596 711 596 711 483 711 c 0,0,1
492 856 m 0,16,17
 563 856 563 856 614.5 887.5 c 128,-1,18
 666 919 666 919 699 973 c 128,-1,19
 732 1027 732 1027 748 1096 c 0,20,21
 757 1131 757 1131 757 1163 c 0,22,23
 757 1220 757 1220 723.5 1255 c 128,-1,24
 690 1290 690 1290 616 1290 c 0,25,26
 545 1290 545 1290 493 1258.5 c 128,-1,27
 441 1227 441 1227 407.5 1173.5 c 128,-1,28
 374 1120 374 1120 358 1051 c 0,29,30
 350 1014 350 1014 350 985 c 0,31,32
 350 856 350 856 492 856 c 0,16,17
EndSplineSet
EndChar

StartChar: guillemotright
Encoding: 187 187 125
Width: 956
GlyphClass: 1
Flags: W
LayerCount: 2
Fore
SplineSet
68 156 m 1,0,-1
 113 367 l 1,1,-1
 328 510 l 1,2,-1
 184 655 l 1,3,-1
 227 866 l 1,4,-1
 575 510 l 1,5,-1
 68 156 l 1,0,-1
430 156 m 1,6,-1
 475 367 l 1,7,-1
 690 510 l 1,8,-1
 547 655 l 1,9,-1
 590 866 l 1,10,-1
 938 510 l 1,11,-1
 430 156 l 1,6,-1
EndSplineSet
EndChar

StartChar: questiondown
Encoding: 191 191 126
Width: 993
GlyphClass: 1
Flags: W
LayerCount: 2
Fore
SplineSet
692 735 m 1,0,-1
 426 735 l 1,1,-1
 485 999 l 1,2,-1
 752 999 l 1,3,-1
 692 735 l 1,0,-1
313 -434 m 0,4,5
 207 -434 207 -434 121 -398.5 c 128,-1,6
 35 -363 35 -363 -16.5 -292.5 c 128,-1,7
 -68 -222 -68 -222 -68 -117 c 0,8,9
 -68 -44 -68 -44 -44 30.5 c 128,-1,10
 -20 105 -20 105 17 155 c 0,11,12
 63 216 63 216 118 254 c 128,-1,13
 173 292 173 292 252 328 c 0,14,15
 318 359 318 359 350.5 384 c 128,-1,16
 383 409 383 409 391 442 c 2,17,-1
 422 575 l 1,18,-1
 629 575 l 1,19,-1
 592 420 l 2,20,21
 555 270 555 270 454 203 c 0,22,23
 402 169 402 169 334 134 c 0,24,25
 283 108 283 108 250 88 c 0,26,27
 178 46 178 46 147 -61 c 0,28,29
 141 -87 141 -87 141 -107 c 0,30,31
 141 -231 141 -231 324 -231 c 0,32,33
 428 -231 428 -231 509.5 -174 c 128,-1,34
 591 -117 591 -117 618 -12 c 1,35,-1
 829 -33 l 1,36,37
 777 -230 777 -230 631.5 -332 c 128,-1,38
 486 -434 486 -434 313 -434 c 0,4,5
EndSplineSet
EndChar

StartChar: Aring
Encoding: 197 197 132
Width: 1343
GlyphClass: 1
Flags: W
LayerCount: 2
Fore
SplineSet
1214 0 m 1,0,-1
 950 0 l 1,1,-1
 911 307 l 1,2,-1
 356 307 l 1,3,-1
 176 0 l 1,4,-1
 -104 0 l 1,5,-1
 739 1331 l 1,6,7
 708 1356 708 1356 691.5 1396.5 c 128,-1,8
 675 1437 675 1437 675 1481 c 0,9,10
 675 1559 675 1559 716 1618.5 c 128,-1,11
 757 1678 757 1678 819.5 1711.5 c 128,-1,12
 882 1745 882 1745 944 1745 c 0,13,14
 1033 1745 1033 1745 1086.5 1687.5 c 128,-1,15
 1140 1630 1140 1630 1140 1551 c 0,16,17
 1140 1475 1140 1475 1099.5 1414.5 c 128,-1,18
 1059 1354 1059 1354 995 1319 c 1,19,-1
 1214 0 l 1,0,-1
885 1403 m 0,20,21
 943 1403 943 1403 981.5 1447.5 c 128,-1,22
 1020 1492 1020 1492 1020 1542 c 0,23,24
 1020 1584 1020 1584 994 1605 c 128,-1,25
 968 1626 968 1626 928 1626 c 0,26,27
 885 1626 885 1626 855.5 1605 c 128,-1,28
 826 1584 826 1584 810.5 1552.5 c 128,-1,29
 795 1521 795 1521 795 1489 c 0,30,31
 795 1451 795 1451 819.5 1427 c 128,-1,32
 844 1403 844 1403 885 1403 c 0,20,21
877 524 m 1,33,-1
 808 1049 l 1,34,-1
 494 524 l 1,35,-1
 877 524 l 1,33,-1
EndSplineSet
Position2: "'cpsp' Capital Spacing lookup 0 per glyph data 0" dx=5 dy=0 dh=10 dv=0
EndChar

StartChar: AE
Encoding: 198 198 133
Width: 1858
GlyphClass: 1
Flags: W
LayerCount: 2
Fore
SplineSet
1642 0 m 1,0,-1
 662 0 l 1,1,-1
 731 307 l 1,2,-1
 336 307 l 1,3,-1
 156 0 l 1,4,-1
 -104 0 l 1,5,-1
 780 1413 l 1,6,-1
 1968 1413 l 1,7,-1
 1919 1200 l 1,8,-1
 1171 1200 l 1,9,-1
 1081 813 l 1,10,-1
 1741 813 l 1,11,-1
 1692 600 l 1,12,-1
 1032 600 l 1,13,-1
 944 219 l 1,14,-1
 1692 219 l 1,15,-1
 1642 0 l 1,0,-1
776 504 m 1,16,-1
 938 1200 l 1,17,-1
 893 1200 l 1,18,-1
 461 504 l 1,19,-1
 776 504 l 1,16,-1
EndSplineSet
Position2: "'cpsp' Capital Spacing lookup 0 per glyph data 0" dx=5 dy=0 dh=10 dv=0
EndChar

StartChar: Ccedilla
Encoding: 199 199 134
Width: 1432
GlyphClass: 1
Flags: W
LayerCount: 2
Fore
SplineSet
519 -522 m 0,0,1
 450 -522 450 -522 402.5 -481.5 c 128,-1,2
 355 -441 355 -441 342 -383 c 1,3,-1
 484 -346 l 1,4,5
 489 -383 489 -383 531 -383 c 0,6,7
 574 -383 574 -383 605 -354 c 0,8,9
 643 -320 643 -320 650 -269 c 1,10,11
 650 -237 650 -237 614.5 -216 c 128,-1,12
 579 -195 579 -195 512 -195 c 2,13,-1
 435 -195 l 1,14,-1
 582 -17 l 1,15,16
 420 -1 420 -1 315 70 c 128,-1,17
 210 141 210 141 159.5 255 c 128,-1,18
 109 369 109 369 109 512 c 0,19,20
 109 653 109 653 155 802.5 c 128,-1,21
 201 952 201 952 291 1084 c 0,22,23
 401 1244 401 1244 574 1340 c 128,-1,24
 747 1436 747 1436 967 1436 c 0,25,26
 1182 1436 1182 1436 1325 1327.5 c 128,-1,27
 1468 1219 1468 1219 1501 1020 c 1,28,-1
 1249 946 l 1,29,30
 1243 1040 1243 1040 1202.5 1099.5 c 128,-1,31
 1162 1159 1162 1159 1093 1186.5 c 128,-1,32
 1024 1214 1024 1214 936 1214 c 0,33,34
 786 1214 786 1214 673 1143.5 c 128,-1,35
 560 1073 560 1073 486 955.5 c 128,-1,36
 412 838 412 838 379 694 c 0,37,38
 359 606 359 606 359 532 c 0,39,40
 359 387 359 387 439 304 c 128,-1,41
 519 221 519 221 688 221 c 0,42,43
 838 221 838 221 950 290 c 128,-1,44
 1062 359 1062 359 1145 494 c 1,45,-1
 1358 377 l 1,46,47
 1234 190 1234 190 1071.5 93.5 c 128,-1,48
 909 -3 909 -3 727 -17 c 1,49,-1
 635 -102 l 1,50,51
 713 -113 713 -113 751 -157 c 128,-1,52
 789 -201 789 -201 789 -264 c 0,53,54
 789 -369 789 -369 709.5 -445.5 c 128,-1,55
 630 -522 630 -522 519 -522 c 0,0,1
EndSplineSet
Position2: "'cpsp' Capital Spacing lookup 0 per glyph data 0" dx=5 dy=0 dh=10 dv=0
EndChar

StartChar: Eth
Encoding: 208 208 143
Width: 1430
GlyphClass: 1
Flags: W
LayerCount: 2
Fore
SplineSet
494 0 m 2,0,-1
 90 0 l 1,1,-1
 233 621 l 1,2,-1
 121 621 l 1,3,-1
 162 805 l 1,4,-1
 274 805 l 1,5,-1
 416 1413 l 1,6,-1
 809 1413 l 2,7,8
 1101 1413 1101 1413 1259.5 1281.5 c 128,-1,9
 1418 1150 1418 1150 1418 897 c 0,10,11
 1418 753 1418 753 1368.5 594.5 c 128,-1,12
 1319 436 1319 436 1219 309 c 0,13,14
 1100 161 1100 161 917 80.5 c 128,-1,15
 734 0 734 0 494 0 c 2,0,-1
506 219 m 2,16,17
 668 219 668 219 803 273 c 128,-1,18
 938 327 938 327 1032 440 c 128,-1,19
 1126 553 1126 553 1167 729 c 0,20,21
 1187 818 1187 818 1187 887 c 0,22,23
 1187 1049 1187 1049 1080.5 1122.5 c 128,-1,24
 974 1196 974 1196 768 1196 c 2,25,-1
 598 1196 l 1,26,-1
 508 805 l 1,27,-1
 889 805 l 1,28,-1
 848 621 l 1,29,-1
 467 621 l 1,30,-1
 373 219 l 1,31,-1
 506 219 l 2,16,17
EndSplineSet
Position2: "'cpsp' Capital Spacing lookup 0 per glyph data 0" dx=5 dy=0 dh=10 dv=0
EndChar

StartChar: multiply
Encoding: 215 215 150
Width: 1090
GlyphClass: 1
Flags: W
LayerCount: 2
Fore
SplineSet
221 172 m 1,0,-1
 92 301 l 1,1,-1
 414 625 l 1,2,-1
 113 926 l 1,3,-1
 244 1057 l 1,4,-1
 545 756 l 1,5,-1
 868 1077 l 1,6,-1
 997 948 l 1,7,-1
 676 625 l 1,8,-1
 977 324 l 1,9,-1
 846 193 l 1,10,-1
 545 494 l 1,11,-1
 221 172 l 1,0,-1
EndSplineSet
EndChar

StartChar: Oslash
Encoding: 216 216 151
Width: 1528
GlyphClass: 1
Flags: W
LayerCount: 2
Fore
SplineSet
657 -20 m 0,0,1
 479 -20 479 -20 353 46 c 1,2,-1
 314 0 l 1,3,-1
 125 0 l 1,4,-1
 238 134 l 1,5,6
 171 207 171 207 139.5 303.5 c 128,-1,7
 108 400 108 400 108 510 c 0,8,9
 108 659 108 659 157 809.5 c 128,-1,10
 206 960 206 960 290 1083 c 0,11,12
 400 1243 400 1243 573 1338.5 c 128,-1,13
 746 1434 746 1434 967 1434 c 0,14,15
 1146 1434 1146 1434 1271 1367 c 1,16,-1
 1309 1413 l 1,17,-1
 1495 1413 l 1,18,-1
 1384 1281 l 1,19,20
 1515 1138 1515 1138 1515 901 c 0,21,22
 1515 760 1515 760 1469 610.5 c 128,-1,23
 1423 461 1423 461 1334 331 c 0,24,25
 1224 171 1224 171 1051 75.5 c 128,-1,26
 878 -20 878 -20 657 -20 c 0,0,1
410 340 m 1,27,-1
 1109 1174 l 1,28,29
 1041 1208 1041 1208 940 1208 c 0,30,31
 792 1208 792 1208 681 1138 c 0,32,33
 566 1063 566 1063 495.5 945.5 c 128,-1,34
 425 828 425 828 393 684 c 0,35,36
 372 596 372 596 372 515 c 0,37,38
 372 409 372 409 410 340 c 1,27,-1
682 205 m 0,39,40
 831 205 831 205 943 276 c 0,41,42
 1160 416 1160 416 1231 729 c 0,43,44
 1252 818 1252 818 1252 899 c 0,45,46
 1252 1004 1252 1004 1213 1075 c 1,47,-1
 514 239 l 1,48,49
 582 205 582 205 682 205 c 0,39,40
EndSplineSet
Position2: "'cpsp' Capital Spacing lookup 0 per glyph data 0" dx=5 dy=0 dh=10 dv=0
EndChar

StartChar: Thorn
Encoding: 222 222 157
Width: 1147
GlyphClass: 1
Flags: W
LayerCount: 2
Fore
SplineSet
299 0 m 1,0,-1
 68 0 l 1,1,-1
 393 1413 l 1,2,-1
 625 1413 l 1,3,-1
 580 1219 l 1,4,-1
 829 1219 l 2,5,6
 952 1219 952 1219 1031.5 1181 c 128,-1,7
 1111 1143 1111 1143 1149.5 1074.5 c 128,-1,8
 1188 1006 1188 1006 1188 916 c 0,9,10
 1188 862 1188 862 1174 797 c 0,11,12
 1128 599 1128 599 974 498 c 128,-1,13
 820 397 820 397 598 397 c 2,14,-1
 389 397 l 1,15,-1
 299 0 l 1,0,-1
633 608 m 2,16,17
 767 608 767 608 846 666.5 c 128,-1,18
 925 725 925 725 950 834 c 0,19,20
 956 861 956 861 956 885 c 0,21,22
 956 955 956 955 901.5 987.5 c 128,-1,23
 847 1020 847 1020 741 1020 c 2,24,-1
 535 1020 l 1,25,-1
 438 608 l 1,26,-1
 633 608 l 2,16,17
EndSplineSet
Position2: "'cpsp' Capital Spacing lookup 0 per glyph data 0" dx=5 dy=0 dh=10 dv=0
EndChar

StartChar: germandbls
Encoding: 223 223 158
Width: 1217
GlyphClass: 1
Flags: W
LayerCount: 2
Fore
SplineSet
645 -18 m 0,0,1
 549 -18 549 -18 437 23 c 1,2,-1
 563 221 l 1,3,4
 607 203 607 203 667 203 c 0,5,6
 738 203 738 203 790.5 243.5 c 128,-1,7
 843 284 843 284 856 342 c 0,8,9
 859 357 859 357 859 367 c 0,10,11
 859 402 859 402 837.5 431.5 c 128,-1,12
 816 461 816 461 771 507 c 0,13,14
 733 545 733 545 708 573.5 c 128,-1,15
 683 602 683 602 666 639.5 c 128,-1,16
 649 677 649 677 649 723 c 0,17,18
 649 753 649 753 656 784 c 0,19,20
 667 829 667 829 691.5 861.5 c 128,-1,21
 716 894 716 894 744 914.5 c 128,-1,22
 772 935 772 935 818 962 c 0,23,24
 859 986 859 986 883.5 1003.5 c 128,-1,25
 908 1021 908 1021 928 1045.5 c 128,-1,26
 948 1070 948 1070 955 1104 c 0,27,28
 957 1111 957 1111 957 1126 c 0,29,30
 957 1168 957 1168 920.5 1196.5 c 128,-1,31
 884 1225 884 1225 804 1225 c 0,32,33
 695 1225 695 1225 622 1165.5 c 128,-1,34
 549 1106 549 1106 525 1010 c 2,35,-1
 285 0 l 1,36,-1
 34 0 l 1,37,-1
 278 1030 l 2,38,39
 309 1158 309 1158 389.5 1249.5 c 128,-1,40
 470 1341 470 1341 580.5 1387.5 c 128,-1,41
 691 1434 691 1434 806 1434 c 0,42,43
 910 1434 910 1434 998 1395.5 c 128,-1,44
 1086 1357 1086 1357 1138.5 1287 c 128,-1,45
 1191 1217 1191 1217 1191 1122 c 0,46,47
 1191 1085 1191 1085 1182 1042 c 0,48,49
 1168 980 1168 980 1135.5 937.5 c 128,-1,50
 1103 895 1103 895 1066.5 869.5 c 128,-1,51
 1030 844 1030 844 977 815 c 0,52,53
 929 789 929 789 905.5 771.5 c 128,-1,54
 882 754 882 754 877 729 c 2,55,-1
 876 720 l 2,56,57
 876 705 876 705 888 691 c 0,58,59
 904 673 904 673 944 642 c 0,60,61
 991 605 991 605 1023 572.5 c 128,-1,62
 1055 540 1055 540 1078.5 491.5 c 128,-1,63
 1102 443 1102 443 1102 380 c 0,64,65
 1102 340 1102 340 1092 299 c 0,66,67
 1070 207 1070 207 1004.5 134.5 c 128,-1,68
 939 62 939 62 844.5 22 c 128,-1,69
 750 -18 750 -18 645 -18 c 0,0,1
EndSplineSet
EndChar

StartChar: ae
Encoding: 230 230 165
Width: 1724
GlyphClass: 1
Flags: W
LayerCount: 2
Fore
SplineSet
301 -20 m 0,0,1
 215 -20 215 -20 145 12 c 128,-1,2
 75 44 75 44 34 104 c 128,-1,3
 -7 164 -7 164 -7 247 c 0,4,5
 -7 285 -7 285 2 326 c 0,6,7
 38 481 38 481 160 547 c 128,-1,8
 282 613 282 613 474 616 c 2,9,-1
 760 616 l 1,10,11
 771 673 771 673 771 710 c 0,12,13
 771 783 771 783 730 816 c 128,-1,14
 689 849 689 849 597 849 c 0,15,16
 513 849 513 849 438.5 804 c 128,-1,17
 364 759 364 759 311 699 c 1,18,-1
 160 855 l 1,19,20
 265 960 265 960 380 1008 c 128,-1,21
 495 1056 495 1056 629 1056 c 0,22,23
 751 1056 751 1056 829.5 1010 c 128,-1,24
 908 964 908 964 941 892 c 1,25,26
 1107 1052 1107 1052 1310 1052 c 0,27,28
 1506 1052 1506 1052 1594 948.5 c 128,-1,29
 1682 845 1682 845 1682 681 c 0,30,31
 1682 620 1682 620 1669 542 c 128,-1,32
 1656 464 1656 464 1636 440 c 1,33,-1
 926 440 l 1,34,-1
 925 408 l 1,35,36
 925 215 925 215 1120 215 c 0,37,38
 1213 215 1213 215 1280 241.5 c 128,-1,39
 1347 268 1347 268 1408 325 c 1,40,-1
 1552 152 l 1,41,42
 1362 -12 1362 -12 1093 -12 c 0,43,44
 960 -12 960 -12 878.5 32.5 c 128,-1,45
 797 77 797 77 764 152 c 1,46,47
 567 -20 567 -20 301 -20 c 0,0,1
1452 616 m 1,48,-1
 1454 659 l 1,49,50
 1454 759 1454 759 1408.5 803 c 128,-1,51
 1363 847 1363 847 1271 847 c 0,52,53
 1197 847 1197 847 1139.5 815.5 c 128,-1,54
 1082 784 1082 784 1040.5 732 c 128,-1,55
 999 680 999 680 973 616 c 1,56,-1
 1452 616 l 1,48,-1
357 180 m 0,57,58
 436 180 436 180 510.5 220.5 c 128,-1,59
 585 261 585 261 639 320.5 c 128,-1,60
 693 380 693 380 717 440 c 1,61,-1
 455 440 l 2,62,63
 361 437 361 437 299 391 c 0,64,65
 226 337 226 337 219 258 c 0,66,67
 219 217 219 217 257 198.5 c 128,-1,68
 295 180 295 180 357 180 c 0,57,58
EndSplineSet
EndChar

StartChar: ccedilla
Encoding: 231 231 166
Width: 1027
GlyphClass: 1
Flags: W
LayerCount: 2
Fore
SplineSet
277 -522 m 0,0,1
 207 -522 207 -522 159 -481.5 c 128,-1,2
 111 -441 111 -441 98 -383 c 1,3,-1
 240 -345 l 1,4,5
 245 -383 245 -383 288 -383 c 0,6,7
 332 -383 332 -383 364 -353 c 0,8,9
 403 -318 403 -318 410 -265 c 1,10,11
 410 -232 410 -232 374 -210.5 c 128,-1,12
 338 -189 338 -189 269 -189 c 2,13,-1
 191 -189 l 1,14,-1
 344 1 l 1,15,16
 195 29 195 29 120 135.5 c 128,-1,17
 45 242 45 242 45 395 c 0,18,19
 45 601 45 601 176 797 c 0,20,21
 227 871 227 871 298.5 929.5 c 128,-1,22
 370 988 370 988 461.5 1022 c 128,-1,23
 553 1056 553 1056 661 1056 c 0,24,25
 767 1056 767 1056 846.5 1017 c 128,-1,26
 926 978 926 978 975.5 910 c 128,-1,27
 1025 842 1025 842 1043 753 c 1,28,-1
 790 680 l 1,29,30
 786 755 786 755 742.5 790.5 c 128,-1,31
 699 826 699 826 629 826 c 0,32,33
 541 826 541 826 474.5 782 c 128,-1,34
 408 738 408 738 364.5 665 c 128,-1,35
 321 592 321 592 301 504 c 0,36,37
 289 453 289 453 289 407 c 0,38,39
 289 329 289 329 330 279 c 128,-1,40
 371 229 371 229 465 229 c 0,41,42
 548 229 548 229 615.5 276 c 128,-1,43
 683 323 683 323 720 397 c 1,44,-1
 930 288 l 1,45,46
 849 150 849 150 734 77.5 c 128,-1,47
 619 5 619 5 487 -6 c 1,48,-1
 395 -92 l 1,49,50
 473 -103 473 -103 511 -148.5 c 128,-1,51
 549 -194 549 -194 549 -258 c 0,52,53
 549 -365 549 -365 469 -443.5 c 128,-1,54
 389 -522 389 -522 277 -522 c 0,0,1
EndSplineSet
EndChar

StartChar: eth
Encoding: 240 240 175
Width: 1201
GlyphClass: 1
Flags: W
LayerCount: 2
Fore
SplineSet
490 -16 m 0,0,1
 340 -16 340 -16 242 40 c 128,-1,2
 144 96 144 96 96 192.5 c 128,-1,3
 48 289 48 289 48 411 c 0,4,5
 48 511 48 511 81 615 c 128,-1,6
 114 719 114 719 181 814 c 0,7,8
 262 924 262 924 385.5 992 c 128,-1,9
 509 1060 509 1060 665 1060 c 0,10,11
 752 1060 752 1060 816.5 1035.5 c 128,-1,12
 881 1011 881 1011 931 960 c 1,13,14
 925 1066 925 1066 868 1138 c 128,-1,15
 811 1210 811 1210 718 1259 c 1,16,-1
 604 1147 l 1,17,-1
 508 1208 l 1,18,-1
 608 1305 l 1,19,20
 571 1318 571 1318 480 1346 c 1,21,-1
 629 1514 l 1,22,23
 699 1489 699 1489 766 1457 c 1,24,-1
 864 1552 l 1,25,-1
 959 1496 l 1,26,-1
 867 1403 l 1,27,28
 1021 1295 1021 1295 1092 1154.5 c 128,-1,29
 1163 1014 1163 1014 1163 835 c 0,30,31
 1163 706 1163 706 1126 550 c 0,32,33
 1061 274 1061 274 895 129 c 128,-1,34
 729 -16 729 -16 490 -16 c 0,0,1
504 209 m 0,35,36
 602 209 602 209 679 258 c 128,-1,37
 756 307 756 307 807.5 387 c 128,-1,38
 859 467 859 467 881 563 c 0,39,40
 891 613 891 613 891 649 c 0,41,42
 891 742 891 742 839.5 802.5 c 128,-1,43
 788 863 788 863 679 863 c 0,44,45
 581 863 581 863 504 814.5 c 128,-1,46
 427 766 427 766 375 686.5 c 128,-1,47
 323 607 323 607 301 513 c 0,48,49
 291 469 291 469 291 423 c 0,50,51
 291 362 291 362 313.5 313.5 c 128,-1,52
 336 265 336 265 383 237 c 128,-1,53
 430 209 430 209 504 209 c 0,35,36
EndSplineSet
EndChar

StartChar: divide
Encoding: 247 247 182
Width: 1266
GlyphClass: 1
Flags: W
LayerCount: 2
Fore
SplineSet
766 834 m 1,0,-1
 500 834 l 1,1,-1
 500 1098 l 1,2,-1
 766 1098 l 1,3,-1
 766 834 l 1,0,-1
1182 537 m 1,4,-1
 84 537 l 1,5,-1
 84 721 l 1,6,-1
 1182 721 l 1,7,-1
 1182 537 l 1,4,-1
766 143 m 1,8,-1
 500 143 l 1,9,-1
 500 408 l 1,10,-1
 766 408 l 1,11,-1
 766 143 l 1,8,-1
EndSplineSet
EndChar

StartChar: oslash
Encoding: 248 248 183
Width: 1150
GlyphClass: 1
Flags: W
LayerCount: 2
Fore
SplineSet
464 -20 m 0,0,1
 335 -20 335 -20 239 30 c 1,2,-1
 213 -1 l 1,3,-1
 79 -1 l 1,4,-1
 156 90 l 1,5,6
 42 206 42 206 42 398 c 0,7,8
 42 570 42 570 135.5 729 c 128,-1,9
 229 888 229 888 404 983 c 0,10,11
 535 1052 535 1052 686 1052 c 0,12,13
 813 1052 813 1052 909 1004 c 1,14,-1
 939 1039 l 1,15,-1
 1071 1039 l 1,16,-1
 992 945 l 1,17,18
 1109 823 1109 823 1109 635 c 0,19,20
 1109 463 1109 463 1014.5 303 c 128,-1,21
 920 143 920 143 747 49 c 0,22,23
 615 -20 615 -20 464 -20 c 0,0,1
311 282 m 1,24,-1
 756 825 l 1,25,26
 718 841 718 841 661 841 c 0,27,28
 564 841 564 841 491.5 794 c 128,-1,29
 419 747 419 747 371 668.5 c 128,-1,30
 323 590 323 590 301 492 c 0,31,32
 289 440 289 440 289 389 c 0,33,34
 289 324 289 324 311 282 c 1,24,-1
488 190 m 0,35,36
 585 190 585 190 658 237 c 128,-1,37
 731 284 731 284 778.5 362 c 128,-1,38
 826 440 826 440 848 539 c 0,39,40
 860 592 860 592 861 641 c 0,41,42
 861 709 861 709 836 754 c 1,43,-1
 391 208 l 1,44,45
 431 190 431 190 488 190 c 0,35,36
EndSplineSet
EndChar

StartChar: thorn
Encoding: 254 254 189
Width: 1193
GlyphClass: 1
Flags: W
LayerCount: 2
Fore
SplineSet
168 -438 m 1,0,-1
 -73 -438 l 1,1,-1
 372 1413 l 1,2,-1
 614 1413 l 1,3,-1
 492 966 l 1,4,5
 616 1060 616 1060 788 1060 c 0,6,7
 906 1060 906 1060 985 1009 c 128,-1,8
 1064 958 1064 958 1103 870 c 128,-1,9
 1142 782 1142 782 1142 668 c 0,10,11
 1142 565 1142 565 1109.5 452 c 128,-1,12
 1077 339 1077 339 1012 238 c 0,13,14
 938 123 938 123 825.5 51.5 c 128,-1,15
 713 -20 713 -20 568 -20 c 0,16,17
 476 -20 476 -20 409.5 10.5 c 128,-1,18
 343 41 343 41 301 90 c 1,19,-1
 168 -438 l 1,0,-1
551 190 m 0,20,21
 644 190 644 190 715 236.5 c 128,-1,22
 786 283 786 283 834 362.5 c 128,-1,23
 882 442 882 442 905 544 c 0,24,25
 918 594 918 594 918 650 c 0,26,27
 918 737 918 737 873 792 c 128,-1,28
 828 847 828 847 726 847 c 0,29,30
 633 847 633 847 562 800.5 c 128,-1,31
 491 754 491 754 443 675 c 128,-1,32
 395 596 395 596 372 496 c 0,33,34
 359 438 359 438 359 389 c 0,35,36
 359 301 359 301 404 245.5 c 128,-1,37
 449 190 449 190 551 190 c 0,20,21
EndSplineSet
EndChar

StartChar: Aogonek
Encoding: 260 260 195
Width: 1343
GlyphClass: 1
Flags: W
LayerCount: 2
Fore
SplineSet
995 -451 m 0,0,1
 910 -451 910 -451 856 -405 c 128,-1,2
 802 -359 802 -359 802 -278 c 0,3,4
 802 -256 802 -256 809 -223 c 0,5,6
 828 -140 828 -140 892 -84 c 128,-1,7
 956 -28 956 -28 1012 0 c 1,8,-1
 944 0 l 1,9,-1
 905 307 l 1,10,-1
 356 307 l 1,11,-1
 176 0 l 1,12,-1
 -104 0 l 1,13,-1
 786 1413 l 1,14,-1
 977 1413 l 1,15,-1
 1214 0 l 1,16,-1
 1121 0 l 1,17,-1
 1221 -4 l 1,18,19
 1195 -11 1195 -11 1139.5 -40 c 128,-1,20
 1084 -69 1084 -69 1024 -121 c 0,21,22
 967 -172 967 -172 952 -236 c 1,23,-1
 948 -263 l 2,24,25
 948 -285 948 -285 960.5 -293 c 128,-1,26
 973 -301 973 -301 997 -301 c 0,27,28
 1063 -301 1063 -301 1124 -236 c 1,29,-1
 1231 -338 l 1,30,31
 1131 -451 1131 -451 995 -451 c 0,0,1
870 524 m 1,32,-1
 803 1040 l 1,33,-1
 494 524 l 1,34,-1
 870 524 l 1,32,-1
EndSplineSet
Position2: "'cpsp' Capital Spacing lookup 0 per glyph data 0" dx=5 dy=0 dh=10 dv=0
EndChar

StartChar: aogonek
Encoding: 261 261 196
Width: 1088
GlyphClass: 1
Flags: W
LayerCount: 2
Fore
SplineSet
622 -451 m 0,0,1
 533 -451 533 -451 478.5 -404 c 128,-1,2
 424 -357 424 -357 424 -278 c 0,3,4
 424 -255 424 -255 431 -223 c 0,5,6
 460 -107 460 -107 593 -24 c 0,7,8
 639 5 639 5 644 5 c 2,9,-1
 645 4 l 1,10,-1
 694 2 l 1,11,-1
 707 100 l 1,12,13
 587 -20 587 -20 396 -20 c 0,14,15
 282 -20 282 -20 204.5 30.5 c 128,-1,16
 127 81 127 81 88.5 169.5 c 128,-1,17
 50 258 50 258 50 371 c 0,18,19
 50 451 50 451 70 543 c 0,20,21
 102 683 102 683 178.5 801 c 128,-1,22
 255 919 255 919 367 989.5 c 128,-1,23
 479 1060 479 1060 611 1060 c 0,24,25
 699 1060 699 1060 771.5 1027 c 128,-1,26
 844 994 844 994 881 931 c 1,27,-1
 911 1039 l 1,28,-1
 1169 1039 l 1,29,-1
 930 0 l 1,30,-1
 750 0 l 1,31,-1
 854 -4 l 1,32,33
 828 -11 828 -11 767.5 -41 c 128,-1,34
 707 -71 707 -71 648.5 -121.5 c 128,-1,35
 590 -172 590 -172 574 -236 c 0,36,37
 570 -258 570 -258 570 -263 c 0,38,39
 570 -285 570 -285 584 -293 c 128,-1,40
 598 -301 598 -301 621 -301 c 0,41,42
 690 -301 690 -301 753 -236 c 1,43,-1
 864 -338 l 1,44,45
 761 -451 761 -451 622 -451 c 0,0,1
480 205 m 0,46,47
 572 205 572 205 639.5 249.5 c 128,-1,48
 707 294 707 294 752 369.5 c 128,-1,49
 797 445 797 445 817 543 c 0,50,51
 830 604 830 604 831 650 c 0,52,53
 831 735 831 735 788 787 c 128,-1,54
 745 839 745 839 649 839 c 0,55,56
 559 839 559 839 490 793 c 128,-1,57
 421 747 421 747 375.5 669.5 c 128,-1,58
 330 592 330 592 309 495 c 0,59,60
 297 441 297 441 297 393 c 0,61,62
 297 310 297 310 340 257.5 c 128,-1,63
 383 205 383 205 480 205 c 0,46,47
EndSplineSet
EndChar

StartChar: dcaron
Encoding: 271 271 206
Width: 1438
GlyphClass: 1
Flags: W
LayerCount: 2
Fore
SplineSet
399 -20 m 0,0,1
 282 -20 282 -20 204.5 31 c 128,-1,2
 127 82 127 82 88.5 170 c 128,-1,3
 50 258 50 258 50 371 c 0,4,5
 50 476 50 476 83 589 c 128,-1,6
 116 702 116 702 179 801 c 0,7,8
 228 876 228 876 294 934 c 128,-1,9
 360 992 360 992 441 1026 c 128,-1,10
 522 1060 522 1060 615 1060 c 0,11,12
 699 1060 699 1060 773 1028.5 c 128,-1,13
 847 997 847 997 887 931 c 1,14,-1
 1017 1413 l 1,15,-1
 1275 1413 l 1,16,-1
 935 0 l 1,17,-1
 679 0 l 1,18,-1
 704 92 l 1,19,20
 583 -20 583 -20 399 -20 c 0,0,1
1432 998 m 1,21,-1
 1279 998 l 1,22,-1
 1506 1413 l 1,23,-1
 1777 1413 l 1,24,-1
 1432 998 l 1,21,-1
482 205 m 0,25,26
 575 205 575 205 643.5 249.5 c 128,-1,27
 712 294 712 294 757 369.5 c 128,-1,28
 802 445 802 445 823 543 c 0,29,30
 837 604 837 604 837 650 c 0,31,32
 837 735 837 735 793.5 787 c 128,-1,33
 750 839 750 839 653 839 c 0,34,35
 563 839 563 839 493 793 c 128,-1,36
 423 747 423 747 376.5 669.5 c 128,-1,37
 330 592 330 592 309 495 c 0,38,39
 297 441 297 441 297 393 c 0,40,41
 297 310 297 310 340.5 257.5 c 128,-1,42
 384 205 384 205 482 205 c 0,25,26
EndSplineSet
EndChar

StartChar: dcroat
Encoding: 273 273 208
Width: 1212
GlyphClass: 1
Flags: W
LayerCount: 2
Fore
SplineSet
399 -20 m 0,0,1
 282 -20 282 -20 204.5 31 c 128,-1,2
 127 82 127 82 88.5 170 c 128,-1,3
 50 258 50 258 50 371 c 0,4,5
 50 476 50 476 83 589 c 128,-1,6
 116 702 116 702 179 801 c 0,7,8
 228 876 228 876 294 934 c 128,-1,9
 360 992 360 992 441 1026 c 128,-1,10
 522 1060 522 1060 615 1060 c 0,11,12
 699 1060 699 1060 773 1028.5 c 128,-1,13
 847 997 847 997 887 931 c 1,14,-1
 948 1158 l 1,15,-1
 685 1158 l 1,16,-1
 723 1322 l 1,17,-1
 990 1322 l 1,18,-1
 1017 1413 l 1,19,-1
 1275 1413 l 1,20,-1
 1249 1322 l 1,21,-1
 1384 1322 l 1,22,-1
 1345 1158 l 1,23,-1
 1209 1158 l 1,24,-1
 935 0 l 1,25,-1
 699 0 l 1,26,-1
 713 100 l 1,27,28
 590 -20 590 -20 399 -20 c 0,0,1
482 205 m 0,29,30
 575 205 575 205 643.5 249.5 c 128,-1,31
 712 294 712 294 757 369.5 c 128,-1,32
 802 445 802 445 823 543 c 0,33,34
 837 604 837 604 837 650 c 0,35,36
 837 735 837 735 793.5 787 c 128,-1,37
 750 839 750 839 653 839 c 0,38,39
 563 839 563 839 493 793 c 128,-1,40
 423 747 423 747 376.5 669.5 c 128,-1,41
 330 592 330 592 309 495 c 0,42,43
 297 441 297 441 297 393 c 0,44,45
 297 310 297 310 340.5 257.5 c 128,-1,46
 384 205 384 205 482 205 c 0,29,30
EndSplineSet
EndChar

StartChar: Eogonek
Encoding: 280 280 215
Width: 1245
GlyphClass: 1
Flags: W
LayerCount: 2
Fore
SplineSet
786 -451 m 0,0,1
 701 -451 701 -451 647 -405 c 128,-1,2
 593 -359 593 -359 593 -278 c 0,3,4
 593 -256 593 -256 600 -223 c 0,5,6
 619 -140 619 -140 683 -84 c 128,-1,7
 747 -28 747 -28 803 0 c 1,8,-1
 68 0 l 1,9,-1
 393 1413 l 1,10,-1
 1333 1413 l 1,11,-1
 1280 1180 l 1,12,-1
 594 1180 l 1,13,-1
 510 823 l 1,14,-1
 1149 823 l 1,15,-1
 1096 590 l 1,16,-1
 457 590 l 1,17,-1
 377 240 l 1,18,-1
 1063 240 l 1,19,-1
 1008 0 l 1,20,-1
 912 0 l 1,21,-1
 1012 -4 l 1,22,23
 986 -11 986 -11 930.5 -40 c 128,-1,24
 875 -69 875 -69 815 -121 c 0,25,26
 758 -172 758 -172 743 -236 c 1,27,-1
 739 -263 l 2,28,29
 739 -285 739 -285 751.5 -293 c 128,-1,30
 764 -301 764 -301 788 -301 c 0,31,32
 854 -301 854 -301 915 -236 c 1,33,-1
 1022 -338 l 1,34,35
 922 -451 922 -451 786 -451 c 0,0,1
EndSplineSet
Position2: "'cpsp' Capital Spacing lookup 0 per glyph data 0" dx=5 dy=0 dh=10 dv=0
EndChar

StartChar: eogonek
Encoding: 281 281 216
Width: 1081
GlyphClass: 1
Flags: W
LayerCount: 2
Fore
SplineSet
504 -404 m 0,0,1
 417 -404 417 -404 361.5 -358 c 128,-1,2
 306 -312 306 -312 306 -231 c 0,3,4
 306 -109 306 -109 426 -11 c 1,5,6
 297 -5 297 -5 212 48 c 128,-1,7
 127 101 127 101 85.5 190 c 128,-1,8
 44 279 44 279 44 390 c 0,9,10
 44 482 44 482 75 586 c 128,-1,11
 106 690 106 690 172 790 c 0,12,13
 223 865 223 865 293.5 924 c 128,-1,14
 364 983 364 983 454.5 1017.5 c 128,-1,15
 545 1052 545 1052 651 1052 c 0,16,17
 856 1052 856 1052 948.5 949.5 c 128,-1,18
 1041 847 1041 847 1041 681 c 0,19,20
 1041 616 1041 616 1028 545 c 128,-1,21
 1015 474 1015 474 997 429 c 1,22,-1
 293 429 l 1,23,-1
 291 395 l 1,24,25
 291 215 291 215 482 215 c 0,26,27
 570 215 570 215 637 240 c 128,-1,28
 704 265 704 265 768 325 c 1,29,-1
 911 152 l 1,30,31
 799 59 799 59 676 20 c 1,32,33
 601 -15 601 -15 537 -68 c 128,-1,34
 473 -121 473 -121 456 -189 c 1,35,-1
 452 -216 l 2,36,37
 452 -238 452 -238 465 -246 c 128,-1,38
 478 -254 478 -254 503 -254 c 0,39,40
 572 -254 572 -254 635 -189 c 1,41,-1
 747 -291 l 1,42,43
 644 -404 644 -404 504 -404 c 0,0,1
809 605 m 1,44,45
 812 637 812 637 812 662 c 0,46,47
 812 762 812 762 768 804.5 c 128,-1,48
 724 847 724 847 632 847 c 0,49,50
 559 847 559 847 502 814.5 c 128,-1,51
 445 782 445 782 403.5 728 c 128,-1,52
 362 674 362 674 336 605 c 1,53,-1
 809 605 l 1,44,45
EndSplineSet
EndChar

StartChar: uni0123
Encoding: 291 291 226
Width: 1077
GlyphClass: 1
Flags: W
LayerCount: 2
Fore
SplineSet
777 1149 m 1,0,-1
 509 1149 l 1,1,-1
 852 1434 l 1,2,-1
 1003 1434 l 1,3,-1
 777 1149 l 1,0,-1
359 -438 m 0,4,5
 194 -438 194 -438 94.5 -378 c 128,-1,6
 -5 -318 -5 -318 -57 -215 c 1,7,-1
 154 -98 l 1,8,9
 171 -153 171 -153 228 -189 c 128,-1,10
 285 -225 285 -225 384 -225 c 0,11,12
 492 -225 492 -225 570 -167.5 c 128,-1,13
 648 -110 648 -110 679 10 c 2,14,-1
 706 113 l 1,15,16
 587 0 587 0 401 0 c 0,17,18
 284 0 284 0 206.5 51 c 128,-1,19
 129 102 129 102 90.5 189 c 128,-1,20
 52 276 52 276 52 387 c 0,21,22
 52 485 52 485 83.5 595 c 128,-1,23
 115 705 115 705 178 804 c 0,24,25
 226 878 226 878 292 935.5 c 128,-1,26
 358 993 358 993 439 1026.5 c 128,-1,27
 520 1060 520 1060 613 1060 c 0,28,29
 697 1060 697 1060 770.5 1028.5 c 128,-1,30
 844 997 844 997 885 931 c 1,31,-1
 915 1039 l 1,32,-1
 1171 1039 l 1,33,-1
 929 2 l 2,34,35
 879 -213 879 -213 729.5 -325.5 c 128,-1,36
 580 -438 580 -438 359 -438 c 0,4,5
486 225 m 0,37,38
 616 225 616 225 704 317 c 0,39,40
 767 384 767 384 802 475.5 c 128,-1,41
 837 567 837 567 837 649 c 0,42,43
 837 732 837 732 793 785.5 c 128,-1,44
 749 839 749 839 651 839 c 0,45,46
 562 839 562 839 492 793.5 c 128,-1,47
 422 748 422 748 375.5 672.5 c 128,-1,48
 329 597 329 597 309 505 c 0,49,50
 298 453 298 453 298 411 c 0,51,52
 298 330 298 330 342 277.5 c 128,-1,53
 386 225 386 225 486 225 c 0,37,38
EndSplineSet
EndChar

StartChar: Hbar
Encoding: 294 294 229
Width: 1491
GlyphClass: 1
Flags: W
LayerCount: 2
Fore
SplineSet
1194 0 m 1,0,-1
 940 0 l 1,1,-1
 1075 590 l 1,2,-1
 457 590 l 1,3,-1
 322 0 l 1,4,-1
 68 0 l 1,5,-1
 308 1043 l 1,6,-1
 205 1043 l 1,7,-1
 238 1186 l 1,8,-1
 341 1186 l 1,9,-1
 393 1413 l 1,10,-1
 647 1413 l 1,11,-1
 594 1186 l 1,12,-1
 1213 1186 l 1,13,-1
 1266 1413 l 1,14,-1
 1520 1413 l 1,15,-1
 1468 1186 l 1,16,-1
 1569 1186 l 1,17,-1
 1536 1043 l 1,18,-1
 1435 1043 l 1,19,-1
 1194 0 l 1,0,-1
1128 823 m 1,20,-1
 1179 1043 l 1,21,-1
 561 1043 l 1,22,-1
 510 823 l 1,23,-1
 1128 823 l 1,20,-1
EndSplineSet
Position2: "'cpsp' Capital Spacing lookup 0 per glyph data 0" dx=5 dy=0 dh=10 dv=0
EndChar

StartChar: hbar
Encoding: 295 295 230
Width: 1197
GlyphClass: 1
Flags: W
LayerCount: 2
Fore
SplineSet
969 0 m 1,0,-1
 716 0 l 1,1,-1
 854 609 l 2,2,3
 868 666 868 666 868 716 c 0,4,5
 868 828 868 828 754 828 c 0,6,7
 676 828 676 828 605 788 c 128,-1,8
 534 748 534 748 483.5 688 c 128,-1,9
 433 628 433 628 417 564 c 2,10,-1
 290 0 l 1,11,-1
 32 0 l 1,12,-1
 297 1132 l 1,13,-1
 147 1132 l 1,14,-1
 185 1296 l 1,15,-1
 337 1296 l 1,16,-1
 370 1413 l 1,17,-1
 628 1413 l 1,18,-1
 593 1296 l 1,19,-1
 846 1296 l 1,20,-1
 807 1132 l 1,21,-1
 552 1132 l 1,22,-1
 498 931 l 1,23,24
 633 1056 633 1056 814 1056 c 0,25,26
 970 1056 970 1056 1044.5 968.5 c 128,-1,27
 1119 881 1119 881 1119 744 c 0,28,29
 1119 679 1119 679 1104 613 c 2,30,-1
 969 0 l 1,0,-1
EndSplineSet
EndChar

StartChar: Iogonek
Encoding: 302 302 237
Width: 618
GlyphClass: 1
Flags: W
LayerCount: 2
Fore
SplineSet
100 -451 m 0,0,1
 15 -451 15 -451 -39 -405 c 128,-1,2
 -93 -359 -93 -359 -93 -278 c 0,3,4
 -93 -256 -93 -256 -86 -223 c 0,5,6
 -67 -140 -67 -140 -3 -84 c 128,-1,7
 61 -28 61 -28 117 0 c 1,8,-1
 68 0 l 1,9,-1
 393 1413 l 1,10,-1
 647 1413 l 1,11,-1
 322 0 l 1,12,-1
 226 0 l 1,13,-1
 326 -4 l 1,14,15
 300 -11 300 -11 244.5 -40 c 128,-1,16
 189 -69 189 -69 129 -121 c 0,17,18
 72 -172 72 -172 57 -236 c 1,19,-1
 53 -263 l 2,20,21
 53 -285 53 -285 65.5 -293 c 128,-1,22
 78 -301 78 -301 102 -301 c 0,23,24
 168 -301 168 -301 229 -236 c 1,25,-1
 336 -338 l 1,26,27
 236 -451 236 -451 100 -451 c 0,0,1
EndSplineSet
Position2: "'cpsp' Capital Spacing lookup 0 per glyph data 0" dx=5 dy=0 dh=10 dv=0
EndChar

StartChar: iogonek
Encoding: 303 303 238
Width: 540
GlyphClass: 1
Flags: W
LayerCount: 2
Fore
SplineSet
567 1188 m 1,0,-1
 301 1188 l 1,1,-1
 354 1413 l 1,2,-1
 620 1413 l 1,3,-1
 567 1188 l 1,0,-1
39 -451 m 0,4,5
 -48 -451 -48 -451 -104 -405 c 128,-1,6
 -160 -359 -160 -359 -160 -278 c 0,7,8
 -160 -256 -160 -256 -152 -223 c 0,9,10
 -133 -140 -133 -140 -68.5 -84 c 128,-1,11
 -4 -28 -4 -28 53 0 c 1,12,-1
 32 0 l 1,13,-1
 270 999 l 1,14,-1
 504 999 l 1,15,-1
 266 0 l 1,16,-1
 166 0 l 1,17,-1
 270 -4 l 1,18,19
 243 -11 243 -11 185.5 -40 c 128,-1,20
 128 -69 128 -69 66 -121 c 0,21,22
 7 -172 7 -172 -9 -236 c 1,23,-1
 -14 -263 l 1,24,25
 -14 -285 -14 -285 -1 -293 c 128,-1,26
 12 -301 12 -301 37 -301 c 0,27,28
 106 -301 106 -301 170 -236 c 1,29,-1
 281 -338 l 1,30,31
 179 -451 179 -451 39 -451 c 0,4,5
EndSplineSet
EndChar

StartChar: dotlessi
Encoding: 305 305 240
Width: 516
GlyphClass: 2
Flags: W
LayerCount: 2
Fore
SplineSet
256 0 m 1,0,-1
 31 0 l 1,1,-1
 260 1039 l 1,2,-1
 485 1039 l 1,3,-1
 256 0 l 1,0,-1
EndSplineSet
EndChar

StartChar: kgreenlandic
Encoding: 312 312 247
Width: 1162
GlyphClass: 1
Flags: W
LayerCount: 2
Fore
SplineSet
1046 0 m 1,0,-1
 752 0 l 1,1,-1
 561 482 l 1,2,-1
 358 305 l 1,3,-1
 285 0 l 1,4,-1
 32 0 l 1,5,-1
 270 1039 l 1,6,-1
 524 1039 l 1,7,-1
 422 607 l 1,8,-1
 914 1039 l 1,9,-1
 1248 1039 l 1,10,-1
 764 636 l 1,11,-1
 1046 0 l 1,0,-1
EndSplineSet
EndChar

StartChar: Lcaron
Encoding: 317 317 252
Width: 1063
GlyphClass: 1
Flags: W
LayerCount: 2
Fore
SplineSet
926 0 m 1,0,-1
 68 0 l 1,1,-1
 393 1413 l 1,2,-1
 647 1413 l 1,3,-1
 377 240 l 1,4,-1
 981 240 l 1,5,-1
 926 0 l 1,0,-1
922 958 m 1,6,-1
 774 958 l 1,7,-1
 993 1413 l 1,8,-1
 1253 1413 l 1,9,-1
 922 958 l 1,6,-1
EndSplineSet
Position2: "'cpsp' Capital Spacing lookup 0 per glyph data 0" dx=5 dy=0 dh=10 dv=0
EndChar

StartChar: lcaron
Encoding: 318 318 253
Width: 799
GlyphClass: 1
Flags: W
LayerCount: 2
Fore
SplineSet
253 -20 m 0,0,1
 165 -20 165 -20 114.5 14.5 c 128,-1,2
 64 49 64 49 64 130 c 0,3,4
 64 166 64 166 75 209 c 2,5,-1
 354 1413 l 1,6,-1
 607 1413 l 1,7,8
 325 243 325 243 325 235 c 0,9,10
 325 199 325 199 381 199 c 0,11,12
 402 199 402 199 465 207 c 1,13,-1
 428 -2 l 1,14,15
 327 -20 327 -20 253 -20 c 0,0,1
792 958 m 1,16,-1
 640 958 l 1,17,-1
 867 1413 l 1,18,-1
 1138 1413 l 1,19,-1
 792 958 l 1,16,-1
EndSplineSet
EndChar

StartChar: Lslash
Encoding: 321 321 256
Width: 1087
GlyphClass: 1
Flags: W
LayerCount: 2
Fore
SplineSet
951 0 m 1,0,-1
 93 0 l 1,1,-1
 190 423 l 1,2,-1
 -10 291 l 1,3,-1
 59 551 l 1,4,-1
 248 676 l 1,5,-1
 418 1413 l 1,6,-1
 672 1413 l 1,7,-1
 548 872 l 1,8,-1
 813 1047 l 1,9,-1
 743 788 l 1,10,-1
 490 621 l 1,11,-1
 402 240 l 1,12,-1
 1006 240 l 1,13,-1
 951 0 l 1,0,-1
EndSplineSet
Position2: "'cpsp' Capital Spacing lookup 0 per glyph data 0" dx=5 dy=0 dh=10 dv=0
EndChar

StartChar: lslash
Encoding: 322 322 257
Width: 588
GlyphClass: 1
Flags: W
LayerCount: 2
Fore
SplineSet
253 -20 m 0,0,1
 165 -20 165 -20 114.5 14.5 c 128,-1,2
 64 49 64 49 64 130 c 0,3,4
 64 166 64 166 74 209 c 2,5,-1
 130 451 l 1,6,-1
 2 365 l 1,7,-1
 45 589 l 1,8,-1
 184 684 l 1,9,-1
 354 1413 l 1,10,-1
 607 1413 l 1,11,-1
 479 883 l 1,12,-1
 663 1004 l 1,13,-1
 621 779 l 1,14,-1
 423 649 l 1,15,16
 325 243 325 243 325 235 c 0,17,18
 325 199 325 199 381 199 c 0,19,20
 402 199 402 199 465 207 c 1,21,-1
 428 -2 l 1,22,23
 327 -20 327 -20 253 -20 c 0,0,1
EndSplineSet
EndChar

StartChar: Eng
Encoding: 330 330 265
Width: 1454
GlyphClass: 1
Flags: W
LayerCount: 2
Fore
SplineSet
750 -369 m 2,0,-1
 623 -369 l 1,1,-1
 653 -209 l 1,2,-1
 679 -210 l 2,3,4
 753 -210 753 -210 808 -187.5 c 128,-1,5
 863 -165 863 -165 893.5 -129.5 c 128,-1,6
 924 -94 924 -94 924 -56 c 2,7,-1
 922 -37 l 1,8,-1
 543 997 l 1,9,-1
 311 0 l 1,10,-1
 68 0 l 1,11,-1
 393 1411 l 1,12,-1
 643 1411 l 1,13,-1
 1006 416 l 1,14,-1
 1239 1411 l 1,15,-1
 1481 1411 l 1,16,-1
 1151 -10 l 2,17,18
 1114 -173 1114 -173 1021 -271 c 128,-1,19
 928 -369 928 -369 750 -369 c 2,0,-1
EndSplineSet
Position2: "'cpsp' Capital Spacing lookup 0 per glyph data 0" dx=5 dy=0 dh=10 dv=0
EndChar

StartChar: eng
Encoding: 331 331 266
Width: 1189
GlyphClass: 1
Flags: W
LayerCount: 2
Fore
SplineSet
549 -369 m 2,0,-1
 419 -369 l 1,1,-1
 469 -168 l 1,2,-1
 541 -168 l 2,3,4
 623 -168 623 -168 660.5 -115.5 c 128,-1,5
 698 -63 698 -63 716 15 c 2,6,-1
 852 613 l 2,7,8
 867 677 867 677 867 717 c 0,9,10
 867 839 867 839 750 839 c 0,11,12
 669 839 669 839 596.5 798.5 c 128,-1,13
 524 758 524 758 473.5 696 c 128,-1,14
 423 634 423 634 407 568 c 2,15,-1
 279 7 l 1,16,-1
 32 7 l 1,17,-1
 270 1039 l 1,18,-1
 518 1039 l 1,19,-1
 486 921 l 1,20,21
 560 994 560 994 644 1025 c 128,-1,22
 728 1056 728 1056 808 1056 c 0,23,24
 961 1056 961 1056 1034 970.5 c 128,-1,25
 1107 885 1107 885 1107 750 c 0,26,27
 1107 686 1107 686 1092 620 c 2,28,-1
 934 -68 l 2,29,30
 920 -136 920 -136 889.5 -198.5 c 128,-1,31
 859 -261 859 -261 776.5 -315 c 128,-1,32
 694 -369 694 -369 549 -369 c 2,0,-1
EndSplineSet
EndChar

StartChar: OE
Encoding: 338 338 273
Width: 2255
GlyphClass: 1
Flags: W
LayerCount: 2
Fore
SplineSet
657 -20 m 0,0,1
 469 -20 469 -20 347.5 49 c 128,-1,2
 226 118 226 118 167 237.5 c 128,-1,3
 108 357 108 357 108 510 c 0,4,5
 108 644 108 644 153 795.5 c 128,-1,6
 198 947 198 947 290 1083 c 0,7,8
 400 1243 400 1243 573 1338.5 c 128,-1,9
 746 1434 746 1434 967 1434 c 0,10,11
 1114 1434 1114 1434 1212 1386 c 128,-1,12
 1310 1338 1310 1338 1362 1257 c 1,13,-1
 1403 1413 l 1,14,-1
 2343 1413 l 1,15,-1
 2290 1180 l 1,16,-1
 1604 1180 l 1,17,-1
 1520 823 l 1,18,-1
 2159 823 l 1,19,-1
 2105 590 l 1,20,-1
 1466 590 l 1,21,-1
 1386 240 l 1,22,-1
 2073 240 l 1,23,-1
 2017 0 l 1,24,-1
 1077 0 l 1,25,-1
 1114 139 l 1,26,27
 928 -20 928 -20 657 -20 c 0,0,1
686 219 m 0,28,29
 838 219 838 219 951.5 287 c 128,-1,30
 1065 355 1065 355 1138.5 470 c 128,-1,31
 1212 585 1212 585 1245 729 c 0,32,33
 1264 808 1264 808 1264 883 c 0,34,35
 1264 1026 1264 1026 1184.5 1110 c 128,-1,36
 1105 1194 1105 1194 938 1194 c 0,37,38
 786 1194 786 1194 672.5 1126.5 c 128,-1,39
 559 1059 559 1059 485.5 944 c 128,-1,40
 412 829 412 829 379 684 c 0,41,42
 359 601 359 601 359 529 c 0,43,44
 359 386 359 386 438.5 302.5 c 128,-1,45
 518 219 518 219 686 219 c 0,28,29
EndSplineSet
Position2: "'cpsp' Capital Spacing lookup 0 per glyph data 0" dx=5 dy=0 dh=10 dv=0
EndChar

StartChar: oe
Encoding: 339 339 274
Width: 1879
GlyphClass: 1
Flags: W
LayerCount: 2
Fore
SplineSet
470 -20 m 0,0,1
 331 -20 331 -20 235.5 35 c 128,-1,2
 140 90 140 90 90.5 185.5 c 128,-1,3
 41 281 41 281 41 401 c 0,4,5
 41 490 41 490 73 594.5 c 128,-1,6
 105 699 105 699 180 796 c 0,7,8
 268 910 268 910 398 981 c 128,-1,9
 528 1052 528 1052 688 1052 c 0,10,11
 813 1052 813 1052 900.5 1004 c 128,-1,12
 988 956 988 956 1036 882 c 1,13,14
 1125 971 1125 971 1224 1011.5 c 128,-1,15
 1323 1052 1323 1052 1434 1052 c 0,16,17
 1568 1052 1568 1052 1654.5 1000 c 128,-1,18
 1741 948 1741 948 1783.5 858 c 128,-1,19
 1826 768 1826 768 1826 653 c 0,20,21
 1826 601 1826 601 1817 536.5 c 128,-1,22
 1808 472 1808 472 1787 426 c 1,23,-1
 1079 426 l 1,24,-1
 1078 404 l 2,25,26
 1078 323 1078 323 1128 274 c 128,-1,27
 1178 225 1178 225 1281 225 c 0,28,29
 1446 225 1446 225 1581 351 c 1,30,-1
 1729 168 l 1,31,32
 1510 -12 1510 -12 1250 -12 c 0,33,34
 1115 -12 1115 -12 1024 35.5 c 128,-1,35
 933 83 933 83 891 154 c 1,36,37
 709 -20 709 -20 470 -20 c 0,0,1
480 186 m 0,38,39
 622 186 622 186 714 284 c 128,-1,40
 806 382 806 382 842 540 c 0,41,42
 856 599 856 599 856 652 c 0,43,44
 856 738 856 738 810.5 790.5 c 128,-1,45
 765 843 765 843 663 843 c 0,46,47
 521 843 521 843 429.5 745 c 128,-1,48
 338 647 338 647 301 489 c 0,49,50
 287 430 287 430 287 377 c 0,51,52
 287 291 287 291 332.5 238.5 c 128,-1,53
 378 186 378 186 480 186 c 0,38,39
1592 604 m 1,54,-1
 1593 645 l 2,55,56
 1593 748 1593 748 1551 793.5 c 128,-1,57
 1509 839 1509 839 1415 839 c 0,58,59
 1344 839 1344 839 1288.5 807.5 c 128,-1,60
 1233 776 1233 776 1192 723 c 128,-1,61
 1151 670 1151 670 1126 604 c 1,62,-1
 1592 604 l 1,54,-1
EndSplineSet
EndChar

StartChar: scedilla
Encoding: 351 351 286
Width: 920
GlyphClass: 1
Flags: W
LayerCount: 2
Fore
SplineSet
236 -522 m 0,0,1
 166 -522 166 -522 118 -481.5 c 128,-1,2
 70 -441 70 -441 57 -383 c 1,3,-1
 203 -345 l 1,4,5
 208 -383 208 -383 250 -383 c 0,6,7
 293 -383 293 -383 324 -353 c 0,8,9
 362 -318 362 -318 369 -265 c 1,10,11
 369 -232 369 -232 333.5 -210.5 c 128,-1,12
 298 -189 298 -189 231 -189 c 2,13,-1
 154 -189 l 1,14,-1
 303 -3 l 1,15,16
 156 21 156 21 73 104 c 128,-1,17
 -10 187 -10 187 -19 292 c 1,18,-1
 192 360 l 1,19,20
 202 295 202 295 248 248 c 128,-1,21
 294 201 294 201 382 201 c 0,22,23
 441 201 441 201 483 222.5 c 128,-1,24
 525 244 525 244 547 277 c 128,-1,25
 569 310 569 310 569 344 c 0,26,27
 569 405 569 405 496 434 c 0,28,29
 464 447 464 447 407 465 c 0,30,31
 324 490 324 490 272 517 c 0,32,33
 151 579 151 579 151 722 c 0,34,35
 151 826 151 826 206 900 c 128,-1,36
 261 974 261 974 352.5 1014 c 128,-1,37
 444 1054 444 1054 554 1054 c 0,38,39
 683 1054 683 1054 786 998 c 128,-1,40
 889 942 889 942 928 832 c 1,41,-1
 721 747 l 1,42,43
 706 801 706 801 661.5 834 c 128,-1,44
 617 867 617 867 544 867 c 0,45,46
 473 867 473 867 432 836.5 c 128,-1,47
 391 806 391 806 391 762 c 0,48,49
 391 729 391 729 411 707.5 c 128,-1,50
 431 686 431 686 461.5 672.5 c 128,-1,51
 492 659 492 659 549 640 c 0,52,53
 633 612 633 612 686 582 c 128,-1,54
 739 552 739 552 774 503 c 0,55,56
 811 449 811 449 811 364 c 0,57,58
 811 267 811 267 763 188.5 c 128,-1,59
 715 110 715 110 633 60 c 128,-1,60
 551 10 551 10 448 -4 c 1,61,-1
 354 -93 l 1,62,63
 432 -104 432 -104 470 -149 c 128,-1,64
 508 -194 508 -194 508 -258 c 0,65,66
 508 -365 508 -365 428 -443.5 c 128,-1,67
 348 -522 348 -522 236 -522 c 0,0,1
EndSplineSet
Substitution2: "'locl' Localized Forms in Latin lookup 7 subtable" uni0219
Substitution2: "'locl' Localized Forms in Latin lookup 6 subtable" uni0219
Substitution2: "'aalt' Access All Alternates lookup 0 subtable" uni0219
EndChar

StartChar: uni0163
Encoding: 355 355 290
Width: 774
GlyphClass: 1
Flags: W
LayerCount: 2
Fore
SplineSet
233 -522 m 0,0,1
 164 -522 164 -522 116 -481.5 c 128,-1,2
 68 -441 68 -441 55 -383 c 1,3,-1
 200 -344 l 1,4,5
 205 -383 205 -383 247 -383 c 0,6,7
 290 -383 290 -383 321 -353 c 0,8,9
 359 -318 359 -318 366 -264 c 1,10,11
 366 -231 366 -231 330.5 -209 c 128,-1,12
 295 -187 295 -187 228 -187 c 2,13,-1
 151 -187 l 1,14,-1
 304 7 l 1,15,16
 218 30 218 30 176 88 c 128,-1,17
 134 146 134 146 134 226 c 0,18,19
 134 269 134 269 144 312 c 2,20,-1
 261 835 l 1,21,-1
 98 835 l 1,22,-1
 146 1039 l 1,23,-1
 312 1039 l 1,24,-1
 367 1263 l 1,25,-1
 643 1421 l 1,26,-1
 544 1039 l 1,27,-1
 814 1039 l 1,28,-1
 765 835 l 1,29,-1
 494 835 l 1,30,-1
 382 330 l 2,31,32
 376 304 376 304 376 274 c 256,33,34
 376 244 376 244 399.5 227.5 c 128,-1,35
 423 211 423 211 466 211 c 0,36,37
 541 211 541 211 624 252 c 1,38,-1
 581 22 l 1,39,40
 526 3 526 3 442 -3 c 1,41,-1
 351 -90 l 1,42,43
 429 -101 429 -101 467 -146.5 c 128,-1,44
 505 -192 505 -192 505 -257 c 0,45,46
 505 -365 505 -365 425 -443.5 c 128,-1,47
 345 -522 345 -522 233 -522 c 0,0,1
EndSplineSet
EndChar

StartChar: tcaron
Encoding: 357 357 292
Width: 794
GlyphClass: 1
Flags: W
LayerCount: 2
Fore
SplineSet
849 1175 m 1,0,-1
 698 1175 l 1,1,-1
 947 1599 l 1,2,-1
 1216 1599 l 1,3,-1
 849 1175 l 1,0,-1
383 -20 m 0,4,5
 295 -20 295 -20 240 10 c 128,-1,6
 185 40 185 40 159 92 c 128,-1,7
 133 144 133 144 133 210 c 0,8,9
 133 251 133 251 144 302 c 2,10,-1
 257 818 l 1,11,-1
 94 818 l 1,12,-1
 146 1039 l 1,13,-1
 312 1039 l 1,14,-1
 367 1270 l 1,15,-1
 649 1433 l 1,16,-1
 549 1039 l 1,17,-1
 819 1039 l 1,18,-1
 765 818 l 1,19,-1
 495 818 l 1,20,21
 370 255 370 255 370 242 c 0,22,23
 370 214 370 214 386.5 205.5 c 128,-1,24
 403 197 403 197 438 197 c 0,25,26
 495 197 495 197 538.5 207.5 c 128,-1,27
 582 218 582 218 606.5 229 c 128,-1,28
 631 240 631 240 631 241 c 1,29,-1
 585 20 l 2,30,31
 585 19 585 19 560.5 9 c 128,-1,32
 536 -1 536 -1 490.5 -10.5 c 128,-1,33
 445 -20 445 -20 383 -20 c 0,4,5
EndSplineSet
EndChar

StartChar: Tbar
Encoding: 358 358 293
Width: 1180
GlyphClass: 1
Flags: W
LayerCount: 2
Fore
SplineSet
602 0 m 1,0,-1
 348 0 l 1,1,-1
 492 625 l 1,2,-1
 301 625 l 1,3,-1
 338 789 l 1,4,-1
 530 789 l 1,5,-1
 621 1186 l 1,6,-1
 178 1186 l 1,7,-1
 231 1413 l 1,8,-1
 1370 1413 l 1,9,-1
 1317 1186 l 1,10,-1
 874 1186 l 1,11,-1
 783 789 l 1,12,-1
 973 789 l 1,13,-1
 936 625 l 1,14,-1
 745 625 l 1,15,-1
 602 0 l 1,0,-1
EndSplineSet
Position2: "'cpsp' Capital Spacing lookup 0 per glyph data 0" dx=5 dy=0 dh=10 dv=0
EndChar

StartChar: tbar
Encoding: 359 359 294
Width: 781
GlyphClass: 1
Flags: W
LayerCount: 2
Fore
SplineSet
405 -20 m 0,0,1
 273 -20 273 -20 203.5 44.5 c 128,-1,2
 134 109 134 109 134 215 c 0,3,4
 134 258 134 258 144 301 c 2,5,-1
 174 438 l 1,6,-1
 25 438 l 1,7,-1
 63 602 l 1,8,-1
 212 602 l 1,9,-1
 261 835 l 1,10,-1
 98 835 l 1,11,-1
 146 1039 l 1,12,-1
 312 1039 l 1,13,-1
 367 1263 l 1,14,-1
 649 1421 l 1,15,-1
 549 1039 l 1,16,-1
 819 1039 l 1,17,-1
 770 835 l 1,18,-1
 499 835 l 1,19,-1
 448 602 l 1,20,-1
 714 602 l 1,21,-1
 676 438 l 1,22,-1
 408 438 l 1,23,-1
 382 319 l 2,24,25
 376 292 376 292 376 271 c 0,26,27
 376 228 376 228 400 211.5 c 128,-1,28
 424 195 424 195 468 195 c 0,29,30
 545 195 545 195 629 240 c 1,31,-1
 586 6 l 1,32,33
 554 -5 554 -5 503 -12.5 c 128,-1,34
 452 -20 452 -20 405 -20 c 0,0,1
EndSplineSet
EndChar

StartChar: Uogonek
Encoding: 370 370 305
Width: 1380
GlyphClass: 1
Flags: W
LayerCount: 2
Fore
SplineSet
671 -400 m 0,0,1
 586 -400 586 -400 532 -354 c 128,-1,2
 478 -308 478 -308 478 -227 c 0,3,4
 478 -112 478 -112 583 -20 c 1,5,6
 428 -20 428 -20 330 28 c 128,-1,7
 232 76 232 76 186 163.5 c 128,-1,8
 140 251 140 251 140 370 c 0,9,10
 140 459 140 459 164 561 c 2,11,-1
 360 1413 l 1,12,-1
 614 1413 l 1,13,-1
 420 569 l 2,14,15
 397 472 397 472 397 405 c 0,16,17
 397 309 397 309 450 267 c 128,-1,18
 503 225 503 225 614 225 c 0,19,20
 781 225 781 225 869.5 316.5 c 128,-1,21
 958 408 958 408 997 590 c 2,22,-1
 1188 1413 l 1,23,-1
 1442 1413 l 1,24,-1
 1243 551 l 2,25,26
 1146 130 1146 130 831 19 c 1,27,28
 654 -73 654 -73 628 -185 c 1,29,-1
 624 -212 l 2,30,31
 624 -234 624 -234 636.5 -242 c 128,-1,32
 649 -250 649 -250 673 -250 c 0,33,34
 739 -250 739 -250 800 -185 c 1,35,-1
 907 -287 l 1,36,37
 807 -400 807 -400 671 -400 c 0,0,1
EndSplineSet
Position2: "'cpsp' Capital Spacing lookup 0 per glyph data 0" dx=5 dy=0 dh=10 dv=0
EndChar

StartChar: uogonek
Encoding: 371 371 306
Width: 1193
GlyphClass: 1
Flags: W
LayerCount: 2
Fore
SplineSet
700 -451 m 0,0,1
 613 -451 613 -451 557.5 -405 c 128,-1,2
 502 -359 502 -359 502 -278 c 0,3,4
 502 -256 502 -256 509 -223 c 0,5,6
 528 -140 528 -140 593 -84 c 128,-1,7
 658 -28 658 -28 714 0 c 1,8,-1
 677 0 l 1,9,-1
 700 109 l 1,10,11
 629 39 629 39 547 8 c 128,-1,12
 465 -23 465 -23 384 -23 c 0,13,14
 231 -23 231 -23 157.5 68.5 c 128,-1,15
 84 160 84 160 84 302 c 0,16,17
 84 371 84 371 99 439 c 2,18,-1
 232 1039 l 1,19,-1
 486 1039 l 1,20,-1
 346 424 l 2,21,22
 332 364 332 364 332 326 c 0,23,24
 332 209 332 209 461 209 c 2,25,-1
 470 209 l 2,26,27
 579 209 579 209 666.5 282 c 128,-1,28
 754 355 754 355 795 534 c 2,29,-1
 909 1039 l 1,30,-1
 1167 1039 l 1,31,-1
 928 0 l 1,32,-1
 828 0 l 1,33,-1
 932 -4 l 1,34,35
 905 -11 905 -11 847 -40 c 128,-1,36
 789 -69 789 -69 728.5 -120.5 c 128,-1,37
 668 -172 668 -172 652 -236 c 1,38,-1
 648 -263 l 2,39,40
 648 -285 648 -285 661 -293 c 128,-1,41
 674 -301 674 -301 699 -301 c 0,42,43
 768 -301 768 -301 831 -236 c 1,44,-1
 942 -338 l 1,45,46
 840 -451 840 -451 700 -451 c 0,0,1
EndSplineSet
EndChar

StartChar: longs
Encoding: 383 383 318
Width: 720
GlyphClass: 2
Flags: W
LayerCount: 2
Fore
SplineSet
354 0 m 1,0,-1
 92 0 l 1,1,-1
 281 835 l 1,2,-1
 92 835 l 1,3,-1
 140 1037 l 1,4,-1
 332 1037 l 1,5,-1
 368 1170 l 2,6,7
 402 1296 402 1296 498.5 1365 c 128,-1,8
 595 1434 595 1434 758 1434 c 0,9,10
 845 1434 845 1434 941 1389 c 1,11,-1
 815 1206 l 1,12,13
 779 1225 779 1225 737 1225 c 0,14,15
 696 1225 696 1225 665.5 1197.5 c 128,-1,16
 635 1170 635 1170 622 1118 c 2,17,-1
 354 0 l 1,0,-1
EndSplineSet
EndChar

StartChar: florin
Encoding: 402 402 319
Width: 1079
GlyphClass: 1
Flags: W
LayerCount: 2
Fore
SplineSet
-158 -457 m 1,0,-1
 -122 -252 l 1,1,2
 17 -252 17 -252 100.5 -222 c 128,-1,3
 184 -192 184 -192 231 -130 c 0,4,5
 280 -65 280 -65 307 52 c 2,6,-1
 488 837 l 1,7,-1
 303 837 l 1,8,-1
 352 1039 l 1,9,-1
 537 1039 l 1,10,-1
 571 1163 l 2,11,12
 609 1295 609 1295 717 1371.5 c 128,-1,13
 825 1448 825 1448 945 1448 c 0,14,15
 1016 1448 1016 1448 1071 1421 c 128,-1,16
 1126 1394 1126 1394 1187 1335 c 1,17,-1
 1022 1202 l 1,18,19
 993 1226 993 1226 973.5 1234.5 c 128,-1,20
 954 1243 954 1243 922 1243 c 0,21,22
 877 1243 877 1243 836 1216 c 128,-1,23
 795 1189 795 1189 778 1135 c 2,24,-1
 750 1039 l 1,25,-1
 1067 1039 l 1,26,-1
 1018 837 l 1,27,-1
 701 837 l 1,28,-1
 516 35 l 2,29,30
 481 -121 481 -121 395.5 -230.5 c 128,-1,31
 310 -340 310 -340 172 -398.5 c 128,-1,32
 34 -457 34 -457 -158 -457 c 1,0,-1
EndSplineSet
EndChar

StartChar: uni01C3
Encoding: 451 451 324
Width: 520
GlyphClass: 1
Flags: W
LayerCount: 2
Fore
SplineSet
336 428 m 1,0,-1
 152 428 l 1,1,-1
 354 1434 l 1,2,-1
 596 1434 l 1,3,-1
 336 428 l 1,0,-1
279 0 m 1,4,-1
 12 0 l 1,5,-1
 72 264 l 1,6,-1
 338 264 l 1,7,-1
 279 0 l 1,4,-1
EndSplineSet
EndChar

StartChar: uni01DD
Encoding: 477 477 350
Width: 1077
GlyphClass: 1
Flags: W
LayerCount: 2
Fore
SplineSet
427 -12 m 0,0,1
 220 -12 220 -12 128 89 c 128,-1,2
 36 190 36 190 36 357 c 0,3,4
 36 486 36 486 79 610 c 1,5,-1
 790 610 l 1,6,-1
 792 644 l 1,7,8
 792 824 792 824 598 824 c 0,9,10
 503 824 503 824 436 797.5 c 128,-1,11
 369 771 369 771 308 714 c 1,12,-1
 165 888 l 1,13,14
 352 1052 352 1052 620 1052 c 0,15,16
 762 1052 762 1052 854.5 999.5 c 128,-1,17
 947 947 947 947 992.5 856.5 c 128,-1,18
 1038 766 1038 766 1038 652 c 0,19,20
 1038 546 1038 546 1001.5 434 c 128,-1,21
 965 322 965 322 891.5 224 c 128,-1,22
 818 126 818 126 706 61 c 0,23,24
 581 -12 581 -12 427 -12 c 0,0,1
446 193 m 0,25,26
 520 193 520 193 577.5 225 c 128,-1,27
 635 257 635 257 677 311.5 c 128,-1,28
 719 366 719 366 745 434 c 1,29,-1
 268 413 l 1,30,31
 265 387 265 387 264 363 c 0,32,33
 264 274 264 274 308.5 233.5 c 128,-1,34
 353 193 353 193 446 193 c 0,25,26
EndSplineSet
EndChar

StartChar: uni01E3
Encoding: 483 483 351
Width: 1741
GlyphClass: 1
Flags: W
LayerCount: 2
Fore
SplineSet
1320 1147 m 1,0,-1
 739 1147 l 1,1,-1
 773 1290 l 1,2,-1
 1354 1290 l 1,3,-1
 1320 1147 l 1,0,-1
335 -20 m 0,4,5
 179 -20 179 -20 94 54.5 c 128,-1,6
 9 129 9 129 9 246 c 0,7,8
 9 284 9 284 19 326 c 0,9,10
 85 616 85 616 490 616 c 2,11,-1
 777 616 l 1,12,13
 787 664 787 664 788 705 c 0,14,15
 788 849 788 849 634 849 c 0,16,17
 537 849 537 849 463.5 809.5 c 128,-1,18
 390 770 390 770 328 699 c 1,19,-1
 176 855 l 1,20,21
 372 1056 372 1056 638 1056 c 0,22,23
 878 1056 878 1056 958 892 c 1,24,25
 1046 978 1046 978 1137.5 1015 c 128,-1,26
 1229 1052 1229 1052 1341 1052 c 0,27,28
 1540 1052 1540 1052 1616.5 952.5 c 128,-1,29
 1693 853 1693 853 1693 694 c 0,30,31
 1693 620 1693 620 1676 494 c 0,32,33
 1673 472 1673 472 1654 440 c 1,34,-1
 943 440 l 1,35,-1
 941 409 l 1,36,37
 941 310 941 310 989.5 262.5 c 128,-1,38
 1038 215 1038 215 1145 215 c 0,39,40
 1309 215 1309 215 1424 325 c 1,41,-1
 1570 152 l 1,42,43
 1370 -12 1370 -12 1118 -12 c 0,44,45
 856 -12 856 -12 781 152 c 1,46,47
 694 74 694 74 577.5 27 c 128,-1,48
 461 -20 461 -20 335 -20 c 0,4,5
1469 616 m 1,49,-1
 1471 662 l 1,50,51
 1471 757 1471 757 1427 802 c 128,-1,52
 1383 847 1383 847 1294 847 c 0,53,54
 1087 847 1087 847 990 616 c 1,55,-1
 1469 616 l 1,49,-1
361 180 m 0,56,57
 451 180 451 180 527 220.5 c 128,-1,58
 603 261 603 261 657 320 c 128,-1,59
 711 379 711 379 735 440 c 1,60,-1
 472 440 l 2,61,62
 402 440 402 440 349 412 c 128,-1,63
 296 384 296 384 266 342.5 c 128,-1,64
 236 301 236 301 236 260 c 0,65,66
 236 218 236 218 271.5 199 c 128,-1,67
 307 180 307 180 361 180 c 0,56,57
EndSplineSet
EndChar

StartChar: uni01EB
Encoding: 491 491 353
Width: 1148
GlyphClass: 1
Flags: W
LayerCount: 2
Fore
SplineSet
389 -451 m 0,0,1
 302 -451 302 -451 246.5 -405 c 128,-1,2
 191 -359 191 -359 191 -278 c 0,3,4
 191 -124 191 -124 376 -14 c 1,5,6
 211 15 211 15 126 128.5 c 128,-1,7
 41 242 41 242 41 400 c 0,8,9
 41 491 41 491 73.5 595 c 128,-1,10
 106 699 106 699 180 796 c 0,11,12
 267 910 267 910 396 981 c 128,-1,13
 525 1052 525 1052 682 1052 c 0,14,15
 821 1052 821 1052 915.5 996.5 c 128,-1,16
 1010 941 1010 941 1058.5 845.5 c 128,-1,17
 1107 750 1107 750 1107 632 c 0,18,19
 1107 483 1107 483 1041.5 351 c 128,-1,20
 976 219 976 219 864.5 125.5 c 128,-1,21
 753 32 753 32 610 -4 c 1,22,-1
 620 -4 l 1,23,24
 593 -11 593 -11 535.5 -40 c 128,-1,25
 478 -69 478 -69 416 -121 c 0,26,27
 357 -172 357 -172 341 -236 c 1,28,-1
 337 -263 l 2,29,30
 337 -285 337 -285 350 -293 c 128,-1,31
 363 -301 363 -301 388 -301 c 0,32,33
 457 -301 457 -301 520 -236 c 1,34,-1
 631 -338 l 1,35,36
 529 -451 529 -451 389 -451 c 0,0,1
488 190 m 0,37,38
 584 190 584 190 656.5 237 c 128,-1,39
 729 284 729 284 776.5 362 c 128,-1,40
 824 440 824 440 846 539 c 0,41,42
 858 592 858 592 859 642 c 0,43,44
 859 730 859 730 812 785.5 c 128,-1,45
 765 841 765 841 660 841 c 0,46,47
 564 841 564 841 491 794 c 128,-1,48
 418 747 418 747 370.5 668.5 c 128,-1,49
 323 590 323 590 301 492 c 0,50,51
 289 440 289 440 289 389 c 0,52,53
 289 301 289 301 335.5 245.5 c 128,-1,54
 382 190 382 190 488 190 c 0,37,38
EndSplineSet
EndChar

StartChar: uni0237
Encoding: 567 567 367
Width: 561
GlyphClass: 2
Flags: W
LayerCount: 2
Fore
SplineSet
-120 -438 m 0,0,1
 -203 -438 -203 -438 -292 -401 c 1,2,-1
 -201 -207 l 1,3,4
 -153 -219 -153 -219 -100 -219 c 0,5,6
 -15 -219 -15 -219 8 -110 c 2,7,-1
 275 1039 l 1,8,-1
 518 1039 l 1,9,-1
 248 -116 l 2,10,11
 227 -210 227 -210 179 -282.5 c 128,-1,12
 131 -355 131 -355 56.5 -396.5 c 128,-1,13
 -18 -438 -18 -438 -120 -438 c 0,0,1
EndSplineSet
EndChar

StartChar: uni0250
Encoding: 592 592 368
Width: 1116
GlyphClass: 1
Flags: W
LayerCount: 2
Fore
SplineSet
484 -20 m 0,0,1
 364 -20 364 -20 281.5 20.5 c 128,-1,2
 199 61 199 61 156.5 134 c 128,-1,3
 114 207 114 207 114 302 c 0,4,5
 114 358 114 358 127 415 c 2,6,-1
 264 1035 l 1,7,-1
 458 1035 l 1,8,-1
 450 900 l 1,9,10
 528 984 528 984 613 1020 c 128,-1,11
 698 1056 698 1056 808 1056 c 0,12,13
 894 1056 894 1056 966 1023 c 128,-1,14
 1038 990 1038 990 1081 927.5 c 128,-1,15
 1124 865 1124 865 1124 780 c 0,16,17
 1124 743 1124 743 1115 702 c 0,18,19
 1078 545 1078 545 952.5 481 c 128,-1,20
 827 417 827 417 635 417 c 1,21,-1
 357 407 l 1,22,23
 348 364 348 364 347 332 c 0,24,25
 347 261 347 261 389 227 c 128,-1,26
 431 193 431 193 513 193 c 0,27,28
 593 193 593 193 669 241.5 c 128,-1,29
 745 290 745 290 791 353 c 1,30,-1
 953 186 l 1,31,32
 846 77 846 77 731 28.5 c 128,-1,33
 616 -20 616 -20 484 -20 c 0,0,1
399 583 m 1,34,-1
 651 594 l 2,35,36
 738 594 738 594 799 641 c 0,37,38
 868 696 868 696 877 767 c 1,39,40
 877 842 877 842 743 849 c 1,41,42
 664 849 664 849 591.5 809.5 c 128,-1,43
 519 770 519 770 468 710 c 128,-1,44
 417 650 417 650 399 583 c 1,34,-1
EndSplineSet
EndChar

StartChar: uni0254
Encoding: 596 596 369
Width: 1028
GlyphClass: 1
Flags: W
LayerCount: 2
Fore
SplineSet
369 -20 m 0,0,1
 210 -20 210 -20 110 64 c 128,-1,2
 10 148 10 148 -17 286 c 1,3,-1
 236 360 l 1,4,5
 240 282 240 282 284.5 245.5 c 128,-1,6
 329 209 329 209 400 209 c 0,7,8
 489 209 489 209 556 255 c 128,-1,9
 623 301 623 301 666.5 376 c 128,-1,10
 710 451 710 451 730 542 c 0,11,12
 742 595 742 595 743 643 c 0,13,14
 743 724 743 724 702 775 c 128,-1,15
 661 826 661 826 567 826 c 0,16,17
 482 826 482 826 413.5 777.5 c 128,-1,18
 345 729 345 729 307 654 c 1,19,-1
 98 765 l 1,20,21
 187 912 187 912 315.5 984 c 128,-1,22
 444 1056 444 1056 586 1056 c 0,23,24
 723 1056 723 1056 811.5 1002.5 c 128,-1,25
 900 949 900 949 943.5 857 c 128,-1,26
 987 765 987 765 987 651 c 0,27,28
 987 535 987 535 946 416.5 c 128,-1,29
 905 298 905 298 826 200 c 128,-1,30
 747 102 747 102 632 41 c 128,-1,31
 517 -20 517 -20 369 -20 c 0,0,1
EndSplineSet
EndChar

StartChar: uni0258
Encoding: 600 600 370
Width: 1087
GlyphClass: 1
Flags: W
LayerCount: 2
Fore
SplineSet
411 -12 m 0,0,1
 273 -12 273 -12 176.5 32.5 c 128,-1,2
 80 77 80 77 15 168 c 1,3,-1
 213 307 l 1,4,5
 249 253 249 253 302 234 c 128,-1,6
 355 215 355 215 445 215 c 0,7,8
 565 215 565 215 644 281.5 c 128,-1,9
 723 348 723 348 758 451 c 1,10,-1
 47 451 l 1,11,12
 47 489 47 489 57 542 c 0,13,14
 108 763 108 763 250.5 907.5 c 128,-1,15
 393 1052 393 1052 646 1052 c 0,16,17
 783 1052 783 1052 871.5 998.5 c 128,-1,18
 960 945 960 945 1003 853.5 c 128,-1,19
 1046 762 1046 762 1046 648 c 0,20,21
 1046 476 1046 476 960 314 c 128,-1,22
 874 152 874 152 702 57 c 0,23,24
 573 -12 573 -12 411 -12 c 0,0,1
323 607 m 1,25,-1
 803 627 l 1,26,-1
 804 651 l 1,27,28
 804 847 804 847 630 847 c 0,29,30
 517 847 517 847 438.5 784 c 128,-1,31
 360 721 360 721 323 607 c 1,25,-1
EndSplineSet
EndChar

StartChar: uni0259
Encoding: 601 601 371
Width: 1077
GlyphClass: 1
Flags: W
LayerCount: 2
Fore
SplineSet
427 -12 m 0,0,1
 220 -12 220 -12 128 89 c 128,-1,2
 36 190 36 190 36 357 c 0,3,4
 36 486 36 486 79 610 c 1,5,-1
 790 610 l 1,6,-1
 792 644 l 1,7,8
 792 824 792 824 598 824 c 0,9,10
 503 824 503 824 436 797.5 c 128,-1,11
 369 771 369 771 308 714 c 1,12,-1
 165 888 l 1,13,14
 352 1052 352 1052 620 1052 c 0,15,16
 762 1052 762 1052 854.5 999.5 c 128,-1,17
 947 947 947 947 992.5 856.5 c 128,-1,18
 1038 766 1038 766 1038 652 c 0,19,20
 1038 546 1038 546 1001.5 434 c 128,-1,21
 965 322 965 322 891.5 224 c 128,-1,22
 818 126 818 126 706 61 c 0,23,24
 581 -12 581 -12 427 -12 c 0,0,1
446 193 m 0,25,26
 520 193 520 193 577.5 225 c 128,-1,27
 635 257 635 257 677 311.5 c 128,-1,28
 719 366 719 366 745 434 c 1,29,-1
 268 413 l 1,30,31
 265 387 265 387 264 363 c 0,32,33
 264 274 264 274 308.5 233.5 c 128,-1,34
 353 193 353 193 446 193 c 0,25,26
EndSplineSet
EndChar

StartChar: uni02D0
Encoding: 720 720 376
Width: 561
GlyphClass: 1
Flags: W
LayerCount: 2
Fore
SplineSet
281 522 m 1,0,-1
 29 999 l 1,1,-1
 532 999 l 1,2,-1
 281 522 l 1,0,-1
532 0 m 1,3,-1
 29 0 l 1,4,-1
 281 477 l 1,5,-1
 532 0 l 1,3,-1
EndSplineSet
EndChar

StartChar: uni02D1
Encoding: 721 721 377
Width: 561
GlyphClass: 1
Flags: W
LayerCount: 2
Fore
SplineSet
281 211 m 1,0,-1
 29 690 l 1,1,-1
 532 690 l 1,2,-1
 281 211 l 1,0,-1
EndSplineSet
EndChar

StartChar: uni02F5
Encoding: 757 757 384
Width: 1049
GlyphClass: 1
Flags: W
LayerCount: 2
Fore
SplineSet
573 670 m 1,0,-1
 395 670 l 1,1,-1
 88 999 l 1,2,-1
 348 999 l 1,3,-1
 573 670 l 1,0,-1
942 670 m 1,4,-1
 764 670 l 1,5,-1
 457 999 l 1,6,-1
 717 999 l 1,7,-1
 942 670 l 1,4,-1
EndSplineSet
EndChar

StartChar: uni02F6
Encoding: 758 758 385
Width: 1049
GlyphClass: 1
Flags: W
LayerCount: 2
Fore
SplineSet
285 670 m 1,0,-1
 106 670 l 1,1,-1
 332 999 l 1,2,-1
 592 999 l 1,3,-1
 285 670 l 1,0,-1
653 670 m 1,4,-1
 475 670 l 1,5,-1
 700 999 l 1,6,-1
 961 999 l 1,7,-1
 653 670 l 1,4,-1
EndSplineSet
EndChar

StartChar: gravecomb
Encoding: 768 768 386
Width: 0
GlyphClass: 4
Flags: W
AnchorPoint: "Anchor-1" -30 1059 mark 0
LayerCount: 2
Fore
SplineSet
105 1164 m 1,0,-1
 -69 1164 l 1,1,-1
 -305 1473 l 1,2,-1
 -49 1473 l 1,3,-1
 105 1164 l 1,0,-1
EndSplineSet
EndChar

StartChar: acutecomb
Encoding: 769 769 387
Width: 0
GlyphClass: 4
Flags: W
AnchorPoint: "Anchor-1" -228 1039 mark 0
LayerCount: 2
Fore
SplineSet
-179 1164 m 5,0,-1
 -363 1164 l 1,1,-1
 -70 1453 l 1,2,-1
 194 1453 l 1,3,-1
 -179 1164 l 5,0,-1
EndSplineSet
EndChar

StartChar: uni0302
Encoding: 770 770 388
Width: 0
GlyphClass: 4
Flags: W
AnchorPoint: "Anchor-1" -211 1039 mark 0
LayerCount: 2
Fore
SplineSet
125 1138 m 1,0,-1
 -57 1138 l 1,1,-1
 -151 1283 l 1,2,-1
 -313 1138 l 1,3,-1
 -508 1138 l 1,4,-1
 -112 1490 l 1,5,-1
 125 1138 l 1,0,-1
EndSplineSet
EndChar

StartChar: tildecomb
Encoding: 771 771 389
Width: 0
GlyphClass: 4
Flags: W
AnchorPoint: "Anchor-1" -277 1060 mark 0
LayerCount: 2
Fore
SplineSet
-113 1166 m 0,0,1
 -180 1166 -180 1166 -212 1192 c 128,-1,2
 -244 1218 -244 1218 -266 1261 c 0,3,4
 -280 1287 -280 1287 -291.5 1298.5 c 128,-1,5
 -303 1310 -303 1310 -320 1310 c 0,6,7
 -357 1310 -357 1310 -387 1270.5 c 128,-1,8
 -417 1231 -417 1231 -432 1173 c 1,9,-1
 -586 1173 l 1,10,11
 -554 1320 -554 1320 -485 1389.5 c 128,-1,12
 -416 1459 -416 1459 -324 1459 c 0,13,14
 -263 1459 -263 1459 -231.5 1433.5 c 128,-1,15
 -200 1408 -200 1408 -177 1366 c 0,16,17
 -162 1340 -162 1340 -150 1329 c 128,-1,18
 -138 1318 -138 1318 -123 1318 c 0,19,20
 -90 1318 -90 1318 -60.5 1356 c 128,-1,21
 -31 1394 -31 1394 -15 1453 c 1,22,-1
 147 1453 l 1,23,24
 113 1305 113 1305 45 1235.5 c 128,-1,25
 -23 1166 -23 1166 -113 1166 c 0,0,1
EndSplineSet
EndChar

StartChar: uni0304
Encoding: 772 772 390
Width: 0
GlyphClass: 4
Flags: W
AnchorPoint: "Anchor-1" -303 1039 mark 0
LayerCount: 2
Fore
SplineSet
10 1187 m 1,0,-1
 -549 1187 l 1,1,-1
 -516 1330 l 1,2,-1
 43 1330 l 1,3,-1
 10 1187 l 1,0,-1
EndSplineSet
EndChar

StartChar: uni0306
Encoding: 774 774 391
Width: 0
GlyphClass: 4
Flags: W
AnchorPoint: "Anchor-1" -291 1039 mark 0
LayerCount: 2
Fore
SplineSet
-244 1183 m 0,0,1
 -386 1183 -386 1183 -452 1235.5 c 128,-1,2
 -518 1288 -518 1288 -518 1378 c 0,3,4
 -518 1408 -518 1408 -508 1453 c 1,5,-1
 -340 1453 l 1,6,7
 -344 1433 -344 1433 -344 1413 c 0,8,9
 -344 1326 -344 1326 -238 1326 c 0,10,11
 -170 1326 -170 1326 -117.5 1361.5 c 128,-1,12
 -65 1397 -65 1397 -49 1453 c 1,13,-1
 119 1453 l 1,14,15
 90 1317 90 1317 3.5 1250 c 128,-1,16
 -83 1183 -83 1183 -244 1183 c 0,0,1
EndSplineSet
EndChar

StartChar: uni0307
Encoding: 775 775 392
Width: 0
GlyphClass: 4
Flags: W
AnchorPoint: "Anchor-1" -141 1039 mark 0
LayerCount: 2
Fore
SplineSet
31 1228 m 1,0,-1
 -225 1228 l 1,1,-1
 -174 1453 l 1,2,-1
 82 1453 l 1,3,-1
 31 1228 l 1,0,-1
EndSplineSet
EndChar

StartChar: uni0308
Encoding: 776 776 393
Width: 0
GlyphClass: 4
Flags: W
AnchorPoint: "Anchor-1" -305 1039 mark 0
LayerCount: 2
Fore
SplineSet
-336 1228 m 1,0,-1
 -541 1228 l 1,1,-1
 -490 1453 l 1,2,-1
 -285 1453 l 1,3,-1
 -336 1228 l 1,0,-1
18 1228 m 1,4,-1
 -187 1228 l 1,5,-1
 -135 1453 l 1,6,-1
 69 1453 l 1,7,-1
 18 1228 l 1,4,-1
EndSplineSet
EndChar

StartChar: hookabovecomb
Encoding: 777 777 394
Width: 0
GlyphClass: 4
Flags: W
AnchorPoint: "Anchor-1" -204 1026 mark 0
LayerCount: 2
Fore
SplineSet
-237 1072 m 1,0,-1
 -246 1168 l 1,1,2
 -169 1181 -169 1181 -131 1203.5 c 128,-1,3
 -93 1226 -93 1226 -93 1264 c 0,4,5
 -93 1330 -93 1330 -245 1333 c 2,6,-1
 -277 1333 l 1,7,-1
 -249 1476 l 1,8,9
 -166 1476 -166 1476 -109 1467 c 128,-1,10
 -52 1458 -52 1458 -5 1431 c 0,11,12
 73 1386 73 1386 73 1304 c 0,13,14
 73 1232 73 1232 36.5 1186.5 c 128,-1,15
 0 1141 0 1141 -69 1114 c 128,-1,16
 -138 1087 -138 1087 -237 1072 c 1,0,-1
EndSplineSet
EndChar

StartChar: uni030A
Encoding: 778 778 395
Width: 0
GlyphClass: 4
Flags: W
AnchorPoint: "Anchor-1" -201 1039 mark 0
LayerCount: 2
Fore
SplineSet
-170 1109 m 0,0,1
 -258 1109 -258 1109 -311.5 1166 c 128,-1,2
 -365 1223 -365 1223 -365 1303 c 0,3,4
 -365 1372 -365 1372 -324.5 1438 c 128,-1,5
 -284 1504 -284 1504 -208 1543 c 0,6,7
 -153 1570 -153 1570 -94 1570 c 0,8,9
 -4 1570 -4 1570 49 1512 c 128,-1,10
 102 1454 102 1454 102 1377 c 0,11,12
 102 1338 102 1338 86.5 1294.5 c 128,-1,13
 71 1251 71 1251 39 1212 c 0,14,15
 -50 1109 -50 1109 -170 1109 c 0,0,1
-152 1240 m 0,16,17
 -114 1240 -114 1240 -87 1259.5 c 128,-1,18
 -60 1279 -60 1279 -45.5 1308.5 c 128,-1,19
 -31 1338 -31 1338 -31 1367 c 0,20,21
 -31 1443 -31 1443 -113 1445 c 0,22,23
 -170 1445 -170 1445 -201 1407 c 128,-1,24
 -232 1369 -232 1369 -232 1320 c 0,25,26
 -232 1280 -232 1280 -210 1260 c 128,-1,27
 -188 1240 -188 1240 -152 1240 c 0,16,17
EndSplineSet
EndChar

StartChar: uni030B
Encoding: 779 779 396
Width: 0
GlyphClass: 4
Flags: W
AnchorPoint: "Anchor-1" -432 1039 mark 0
LayerCount: 2
Fore
SplineSet
-533 1123 m 1,0,-1
 -715 1123 l 1,1,-1
 -414 1453 l 1,2,-1
 -191 1453 l 1,3,-1
 -533 1123 l 1,0,-1
-185 1123 m 1,4,-1
 -367 1123 l 1,5,-1
 -66 1453 l 1,6,-1
 198 1453 l 1,7,-1
 -185 1123 l 1,4,-1
EndSplineSet
EndChar

StartChar: uni030C
Encoding: 780 780 397
Width: 0
GlyphClass: 4
Flags: W
AnchorPoint: "Anchor-1" -213 1039 mark 0
LayerCount: 2
Fore
SplineSet
-190 1119 m 1,0,-1
 -432 1451 l 1,1,-1
 -247 1451 l 1,2,-1
 -155 1316 l 1,3,-1
 9 1451 l 1,4,-1
 201 1451 l 1,5,-1
 -190 1119 l 1,0,-1
EndSplineSet
EndChar

StartChar: uni030F
Encoding: 783 783 398
Width: 0
GlyphClass: 4
Flags: W
AnchorPoint: "Anchor-1" -227 1039 mark 0
LayerCount: 2
Fore
SplineSet
-270 1123 m 1,0,-1
 -444 1123 l 1,1,-1
 -676 1453 l 1,2,-1
 -420 1453 l 1,3,-1
 -270 1123 l 1,0,-1
98 1123 m 1,4,-1
 -76 1123 l 1,5,-1
 -307 1453 l 1,6,-1
 -51 1453 l 1,7,-1
 98 1123 l 1,4,-1
EndSplineSet
EndChar

StartChar: uni0312
Encoding: 786 786 399
Width: 0
GlyphClass: 4
Flags: W
AnchorPoint: "Anchor-1" -177 1039 mark 0
LayerCount: 2
Fore
SplineSet
-72 1159 m 1,0,-1
 -330 1159 l 1,1,-1
 0 1474 l 1,2,-1
 145 1474 l 1,3,-1
 -72 1159 l 1,0,-1
EndSplineSet
EndChar

StartChar: uni031B
Encoding: 795 795 400
Width: 0
GlyphClass: 1
Flags: W
LayerCount: 2
Fore
SplineSet
-299 987 m 1,0,-1
 -270 1139 l 1,1,2
 -118 1139 -118 1139 -85 1328 c 1,3,-1
 -72 1394 l 1,4,-1
 89 1394 l 1,5,-1
 73 1314 l 2,6,7
 45 1168 45 1168 -48.5 1077.5 c 128,-1,8
 -142 987 -142 987 -299 987 c 1,0,-1
EndSplineSet
EndChar

StartChar: dotbelowcomb
Encoding: 803 803 401
Width: 0
GlyphClass: 4
Flags: W
AnchorPoint: "Anchor-1" -471 -471 mark 0
LayerCount: 2
Fore
SplineSet
-299 -282 m 1,0,-1
 -555 -282 l 1,1,-1
 -504 -57 l 1,2,-1
 -248 -57 l 1,3,-1
 -299 -282 l 1,0,-1
EndSplineSet
EndChar

StartChar: uni0326
Encoding: 806 806 402
Width: 0
GlyphClass: 4
Flags: W
AnchorPoint: "Anchor-3" -465 -459 basemark 0
AnchorPoint: "Anchor-3" -291 0 mark 0
AnchorPoint: "Anchor-0" -291 0 mark 0
LayerCount: 2
Fore
SplineSet
-496 -459 m 1,0,-1
 -641 -459 l 1,1,-1
 -424 -106 l 1,2,-1
 -166 -106 l 1,3,-1
 -496 -459 l 1,0,-1
EndSplineSet
EndChar

StartChar: uni0327
Encoding: 807 807 403
Width: 0
GlyphClass: 4
Flags: W
AnchorPoint: "Anchor-3" -514 -500 basemark 0
AnchorPoint: "Anchor-3" -375 0 mark 0
AnchorPoint: "Anchor-0" -375 0 mark 0
LayerCount: 2
Fore
SplineSet
-526 -522 m 0,0,1
 -595 -522 -595 -522 -642.5 -481.5 c 128,-1,2
 -690 -441 -690 -441 -703 -383 c 1,3,-1
 -561 -346 l 1,4,5
 -556 -383 -556 -383 -514 -383 c 0,6,7
 -471 -383 -471 -383 -440 -354 c 0,8,9
 -402 -320 -402 -320 -395 -269 c 1,10,11
 -395 -237 -395 -237 -430.5 -216 c 128,-1,12
 -466 -195 -466 -195 -533 -195 c 2,13,-1
 -610 -195 l 1,14,-1
 -451 -2 l 1,15,-1
 -301 -2 l 1,16,-1
 -410 -102 l 1,17,18
 -332 -113 -332 -113 -294 -157 c 128,-1,19
 -256 -201 -256 -201 -256 -264 c 0,20,21
 -256 -369 -256 -369 -335.5 -445.5 c 128,-1,22
 -415 -522 -415 -522 -526 -522 c 0,0,1
EndSplineSet
EndChar

StartChar: uni0328
Encoding: 808 808 404
Width: 0
GlyphClass: 4
Flags: W
AnchorPoint: "Anchor-2" -263 0 mark 0
LayerCount: 2
Fore
SplineSet
-469 -451 m 0,0,1
 -556 -451 -556 -451 -609 -404 c 128,-1,2
 -662 -357 -662 -357 -662 -278 c 0,3,4
 -662 -255 -662 -255 -655 -223 c 0,5,6
 -626 -107 -626 -107 -495 -24 c 0,7,8
 -452 4 -452 4 -444 4 c 2,9,-1
 -243 4 l 1,10,11
 -278 -11 -278 -11 -331 -41 c 128,-1,12
 -384 -71 -384 -71 -440.5 -121.5 c 128,-1,13
 -497 -172 -497 -172 -512 -236 c 0,14,15
 -516 -258 -516 -258 -516 -263 c 0,16,17
 -516 -285 -516 -285 -502.5 -293 c 128,-1,18
 -489 -301 -489 -301 -467 -301 c 0,19,20
 -401 -301 -401 -301 -340 -236 c 1,21,-1
 -233 -338 l 1,22,23
 -334 -451 -334 -451 -469 -451 c 0,0,1
EndSplineSet
EndChar

StartChar: pi
Encoding: 960 960 405
Width: 1033
GlyphClass: 1
Flags: W
LayerCount: 2
Fore
SplineSet
751 -20 m 0,0,1
 654 -20 654 -20 604 36 c 128,-1,2
 554 92 554 92 554 178 c 0,3,4
 554 219 554 219 564 261 c 2,5,-1
 689 835 l 1,6,-1
 458 835 l 1,7,-1
 268 0 l 1,8,-1
 55 0 l 1,9,-1
 245 835 l 1,10,-1
 160 835 l 1,11,-1
 209 1039 l 1,12,-1
 1033 1039 l 1,13,-1
 984 835 l 1,14,-1
 899 835 l 1,15,16
 760 212 760 212 759 191 c 0,17,18
 759 173 759 173 764.5 166.5 c 128,-1,19
 770 160 770 160 780 160 c 0,20,21
 801 160 801 160 835 183 c 1,22,-1
 874 8 l 1,23,24
 820 -20 820 -20 751 -20 c 0,0,1
EndSplineSet
EndChar

StartChar: uni0402
Encoding: 1026 1026 408
Width: 1610
GlyphClass: 1
Flags: W
LayerCount: 2
Fore
SplineSet
987 -20 m 0,0,1
 911 -20 911 -20 826.5 20.5 c 128,-1,2
 742 61 742 61 690 113 c 1,3,-1
 840 274 l 1,4,5
 887 219 887 219 975 219 c 0,6,7
 1089 219 1089 219 1169 274.5 c 128,-1,8
 1249 330 1249 330 1276 436 c 0,9,10
 1295 520 1295 520 1295 576 c 0,11,12
 1295 671 1295 671 1240.5 713.5 c 128,-1,13
 1186 756 1186 756 1075 756 c 0,14,15
 889 756 889 756 752 629 c 1,16,-1
 602 0 l 1,17,-1
 348 0 l 1,18,-1
 621 1184 l 1,19,-1
 178 1184 l 1,20,-1
 231 1411 l 1,21,-1
 1370 1411 l 1,22,-1
 1317 1184 l 1,23,-1
 874 1184 l 1,24,-1
 811 934 l 1,25,26
 962 1001 962 1001 1106 1001 c 0,27,28
 1260 1001 1260 1001 1358 953.5 c 128,-1,29
 1456 906 1456 906 1502.5 818 c 128,-1,30
 1549 730 1549 730 1549 608 c 0,31,32
 1549 521 1549 521 1524 408 c 0,33,34
 1471 182 1471 182 1333 81 c 128,-1,35
 1195 -20 1195 -20 987 -20 c 0,0,1
EndSplineSet
Position2: "'cpsp' Capital Spacing lookup 0 per glyph data 0" dx=5 dy=0 dh=10 dv=0
EndChar

StartChar: uni0403
Encoding: 1027 1027 409
Width: 1065
GlyphClass: 1
Flags: W
LayerCount: 2
Fore
SplineSet
881 1536 m 1,0,-1
 698 1536 l 1,1,-1
 989 1825 l 1,2,-1
 1253 1825 l 1,3,-1
 881 1536 l 1,0,-1
322 0 m 1,4,-1
 68 0 l 1,5,-1
 393 1411 l 1,6,-1
 1255 1411 l 1,7,-1
 1200 1178 l 1,8,-1
 592 1178 l 1,9,-1
 322 0 l 1,4,-1
EndSplineSet
Position2: "'cpsp' Capital Spacing lookup 0 per glyph data 0" dx=5 dy=0 dh=10 dv=0
EndChar

StartChar: uni0404
Encoding: 1028 1028 410
Width: 1434
GlyphClass: 1
Flags: W
LayerCount: 2
Fore
SplineSet
659 -20 m 0,0,1
 470 -20 470 -20 348.5 49 c 128,-1,2
 227 118 227 118 168 238.5 c 128,-1,3
 109 359 109 359 109 512 c 0,4,5
 109 653 109 653 155 802.5 c 128,-1,6
 201 952 201 952 291 1084 c 0,7,8
 401 1244 401 1244 574 1340 c 128,-1,9
 747 1436 747 1436 967 1436 c 0,10,11
 1184 1436 1184 1436 1321.5 1326.5 c 128,-1,12
 1459 1217 1459 1217 1501 1020 c 1,13,-1
 1249 946 l 1,14,15
 1242 1079 1242 1079 1160 1136.5 c 128,-1,16
 1078 1194 1078 1194 936 1194 c 0,17,18
 806 1194 806 1194 703.5 1144 c 128,-1,19
 601 1094 601 1094 528.5 1008 c 128,-1,20
 456 922 456 922 416 813 c 1,21,-1
 983 823 l 1,22,-1
 930 590 l 1,23,-1
 360 580 l 1,24,-1
 359 538 l 1,25,26
 359 221 359 221 688 221 c 0,27,28
 838 221 838 221 950 290 c 128,-1,29
 1062 359 1062 359 1145 494 c 1,30,-1
 1358 377 l 1,31,32
 1223 174 1223 174 1041.5 77 c 128,-1,33
 860 -20 860 -20 659 -20 c 0,0,1
EndSplineSet
Position2: "'cpsp' Capital Spacing lookup 0 per glyph data 0" dx=5 dy=0 dh=10 dv=0
EndChar

StartChar: uni0406
Encoding: 1030 1030 412
Width: 618
GlyphClass: 1
Flags: W
LayerCount: 2
Fore
SplineSet
322 0 m 1,0,-1
 68 0 l 1,1,-1
 393 1411 l 1,2,-1
 647 1411 l 1,3,-1
 322 0 l 1,0,-1
EndSplineSet
Position2: "'cpsp' Capital Spacing lookup 0 per glyph data 0" dx=5 dy=0 dh=10 dv=0
EndChar

StartChar: uni0407
Encoding: 1031 1031 413
Width: 616
GlyphClass: 1
Flags: W
LayerCount: 2
Fore
SplineSet
477 1567 m 1,0,-1
 272 1567 l 1,1,-1
 317 1761 l 1,2,-1
 522 1761 l 1,3,-1
 477 1567 l 1,0,-1
831 1567 m 1,4,-1
 627 1567 l 1,5,-1
 672 1761 l 1,6,-1
 877 1761 l 1,7,-1
 831 1567 l 1,4,-1
319 0 m 1,8,-1
 66 0 l 1,9,-1
 391 1411 l 1,10,-1
 645 1411 l 1,11,-1
 319 0 l 1,8,-1
EndSplineSet
Position2: "'cpsp' Capital Spacing lookup 0 per glyph data 0" dx=5 dy=0 dh=10 dv=0
EndChar

StartChar: uni0409
Encoding: 1033 1033 415
Width: 1931
GlyphClass: 1
Flags: W
LayerCount: 2
Fore
SplineSet
106 -20 m 0,0,1
 41 -20 41 -20 -4 -3.5 c 128,-1,2
 -49 13 -49 13 -98 47 c 1,3,-1
 2 223 l 1,4,5
 61 205 61 205 109 205 c 0,6,7
 167 205 167 205 243 428.5 c 128,-1,8
 319 652 319 652 377.5 904.5 c 128,-1,9
 436 1157 436 1157 494 1411 c 1,10,-1
 1409 1411 l 1,11,-1
 1274 825 l 1,12,-1
 1458 825 l 2,13,14
 1577 825 1577 825 1672 789 c 128,-1,15
 1767 753 1767 753 1822 680.5 c 128,-1,16
 1877 608 1877 608 1877 498 c 0,17,18
 1877 453 1877 453 1864 393 c 0,19,20
 1816 201 1816 201 1655 100.5 c 128,-1,21
 1494 0 1494 0 1280 0 c 2,22,-1
 831 0 l 1,23,-1
 1102 1178 l 1,24,-1
 692 1178 l 1,25,-1
 625 885 l 2,26,27
 565 621 565 621 506.5 436.5 c 128,-1,28
 448 252 448 252 348.5 116 c 128,-1,29
 249 -20 249 -20 106 -20 c 0,0,1
1321 238 m 2,30,31
 1453 238 1453 238 1527 291.5 c 128,-1,32
 1601 345 1601 345 1622 438 c 0,33,34
 1627 461 1627 461 1627 478 c 0,35,36
 1627 536 1627 536 1574.5 562 c 128,-1,37
 1522 588 1522 588 1415 588 c 2,38,-1
 1219 588 l 1,39,-1
 1137 238 l 1,40,-1
 1321 238 l 2,30,31
EndSplineSet
Position2: "'cpsp' Capital Spacing lookup 0 per glyph data 0" dx=5 dy=0 dh=10 dv=0
EndChar

StartChar: uni040A
Encoding: 1034 1034 416
Width: 2040
GlyphClass: 1
Flags: W
LayerCount: 2
Fore
SplineSet
1389 0 m 2,0,-1
 940 0 l 1,1,-1
 1075 590 l 1,2,-1
 457 590 l 1,3,-1
 322 0 l 1,4,-1
 68 0 l 1,5,-1
 393 1411 l 1,6,-1
 647 1411 l 1,7,-1
 510 823 l 1,8,-1
 1128 823 l 1,9,-1
 1266 1411 l 1,10,-1
 1520 1411 l 1,11,-1
 1384 825 l 1,12,-1
 1567 825 l 2,13,14
 1687 825 1687 825 1781.5 789 c 128,-1,15
 1876 753 1876 753 1930.5 680.5 c 128,-1,16
 1985 608 1985 608 1985 499 c 0,17,18
 1985 418 1985 418 1954 333.5 c 128,-1,19
 1923 249 1923 249 1861 181 c 0,20,21
 1773 89 1773 89 1650.5 44.5 c 128,-1,22
 1528 0 1528 0 1389 0 c 2,0,-1
1430 238 m 2,23,24
 1562 238 1562 238 1636 291.5 c 128,-1,25
 1710 345 1710 345 1731 438 c 0,26,27
 1736 461 1736 461 1736 477 c 0,28,29
 1736 536 1736 536 1683 562 c 128,-1,30
 1630 588 1630 588 1524 588 c 2,31,-1
 1329 588 l 1,32,-1
 1247 238 l 1,33,-1
 1430 238 l 2,23,24
EndSplineSet
Position2: "'cpsp' Capital Spacing lookup 0 per glyph data 0" dx=5 dy=0 dh=10 dv=0
EndChar

StartChar: uni040B
Encoding: 1035 1035 417
Width: 1630
GlyphClass: 1
Flags: W
LayerCount: 2
Fore
SplineSet
1430 0 m 1,0,-1
 1176 0 l 1,1,-1
 1270 412 l 2,2,3
 1293 509 1293 509 1293 575 c 0,4,5
 1293 672 1293 672 1240 714 c 128,-1,6
 1187 756 1187 756 1075 756 c 0,7,8
 889 756 889 756 752 629 c 1,9,-1
 602 0 l 1,10,-1
 348 0 l 1,11,-1
 621 1184 l 1,12,-1
 178 1184 l 1,13,-1
 231 1411 l 1,14,-1
 1370 1411 l 1,15,-1
 1317 1184 l 1,16,-1
 874 1184 l 1,17,-1
 811 934 l 1,18,19
 962 1001 962 1001 1106 1001 c 0,20,21
 1261 1001 1261 1001 1359 953 c 128,-1,22
 1457 905 1457 905 1503.5 817.5 c 128,-1,23
 1550 730 1550 730 1550 611 c 0,24,25
 1550 522 1550 522 1526 420 c 2,26,-1
 1430 0 l 1,0,-1
EndSplineSet
Position2: "'cpsp' Capital Spacing lookup 0 per glyph data 0" dx=5 dy=0 dh=10 dv=0
EndChar

StartChar: uni040C
Encoding: 1036 1036 418
Width: 1350
GlyphClass: 1
Flags: W
LayerCount: 2
Fore
SplineSet
969 1536 m 1,0,-1
 786 1536 l 1,1,-1
 1077 1825 l 1,2,-1
 1341 1825 l 1,3,-1
 969 1536 l 1,0,-1
1214 0 m 1,4,-1
 903 0 l 1,5,-1
 848 483 l 2,6,7
 840 555 840 555 808 609.5 c 128,-1,8
 776 664 776 664 707 664 c 2,9,-1
 473 664 l 1,10,-1
 322 0 l 1,11,-1
 68 0 l 1,12,-1
 393 1411 l 1,13,-1
 647 1411 l 1,14,-1
 528 901 l 1,15,-1
 676 901 l 1,16,-1
 1128 1411 l 1,17,-1
 1473 1411 l 1,18,-1
 907 834 l 1,19,20
 979 834 979 834 1021 753 c 128,-1,21
 1063 672 1063 672 1081 578 c 2,22,-1
 1214 0 l 1,4,-1
EndSplineSet
Position2: "'cpsp' Capital Spacing lookup 0 per glyph data 0" dx=5 dy=0 dh=10 dv=0
EndChar

StartChar: uni040D
Encoding: 1037 1037 419
Width: 1491
GlyphClass: 1
Flags: W
LayerCount: 2
Fore
SplineSet
1102 1516 m 1,0,-1
 930 1516 l 1,1,-1
 692 1825 l 1,2,-1
 948 1825 l 1,3,-1
 1102 1516 l 1,0,-1
1194 0 m 1,4,-1
 940 0 l 1,5,6
 1184 1059 1184 1059 1186 1070 c 1,7,-1
 365 0 l 1,8,-1
 68 0 l 1,9,-1
 393 1411 l 1,10,-1
 647 1411 l 1,11,12
 410 383 410 383 399 338 c 1,13,-1
 1223 1411 l 1,14,-1
 1520 1411 l 1,15,-1
 1194 0 l 1,4,-1
EndSplineSet
Position2: "'cpsp' Capital Spacing lookup 0 per glyph data 0" dx=5 dy=0 dh=10 dv=0
EndChar

StartChar: uni040E
Encoding: 1038 1038 420
Width: 1110
GlyphClass: 1
Flags: W
LayerCount: 2
Fore
SplineSet
797 1554 m 0,0,1
 654 1554 654 1554 589 1606.5 c 128,-1,2
 524 1659 524 1659 524 1747 c 0,3,4
 524 1781 524 1781 535 1825 c 1,5,-1
 700 1825 l 1,6,7
 696 1805 696 1805 696 1786 c 0,8,9
 696 1739 696 1739 724 1718.5 c 128,-1,10
 752 1698 752 1698 805 1698 c 0,11,12
 871 1698 871 1698 923.5 1732.5 c 128,-1,13
 976 1767 976 1767 993 1825 c 1,14,-1
 1159 1825 l 1,15,16
 1131 1689 1131 1689 1044 1621.5 c 128,-1,17
 957 1554 957 1554 797 1554 c 0,0,1
373 0 m 1,18,-1
 102 0 l 1,19,-1
 401 457 l 1,20,-1
 225 1411 l 1,21,-1
 489 1411 l 1,22,-1
 598 735 l 1,23,-1
 1038 1411 l 1,24,-1
 1311 1411 l 1,25,-1
 373 0 l 1,18,-1
EndSplineSet
Position2: "'cpsp' Capital Spacing lookup 0 per glyph data 0" dx=5 dy=0 dh=10 dv=0
EndChar

StartChar: uni040F
Encoding: 1039 1039 421
Width: 1491
GlyphClass: 1
Flags: W
LayerCount: 2
Fore
SplineSet
686 -307 m 1,0,-1
 432 -307 l 1,1,-1
 504 0 l 1,2,-1
 68 0 l 1,3,-1
 393 1411 l 1,4,-1
 647 1411 l 1,5,-1
 375 233 l 1,6,-1
 993 233 l 1,7,-1
 1266 1411 l 1,8,-1
 1520 1411 l 1,9,-1
 1194 0 l 1,10,-1
 758 0 l 1,11,-1
 686 -307 l 1,0,-1
EndSplineSet
Position2: "'cpsp' Capital Spacing lookup 0 per glyph data 0" dx=5 dy=0 dh=10 dv=0
EndChar

StartChar: uni0410
Encoding: 1040 1040 422
Width: 1343
GlyphClass: 1
Flags: W
LayerCount: 2
Fore
SplineSet
1214 0 m 1,0,-1
 944 0 l 1,1,-1
 905 307 l 1,2,-1
 356 307 l 1,3,-1
 176 0 l 1,4,-1
 -104 0 l 1,5,-1
 786 1411 l 1,6,-1
 977 1411 l 1,7,-1
 1214 0 l 1,0,-1
870 524 m 1,8,-1
 803 1038 l 1,9,-1
 494 524 l 1,10,-1
 870 524 l 1,8,-1
EndSplineSet
Position2: "'cpsp' Capital Spacing lookup 0 per glyph data 0" dx=5 dy=0 dh=10 dv=0
EndChar

StartChar: uni0411
Encoding: 1041 1041 423
Width: 1274
GlyphClass: 1
Flags: W
LayerCount: 2
Fore
SplineSet
625 0 m 2,0,-1
 68 0 l 1,1,-1
 393 1411 l 1,2,-1
 1217 1411 l 1,3,-1
 1163 1182 l 1,4,-1
 594 1182 l 1,5,-1
 516 844 l 1,6,-1
 811 844 l 2,7,8
 943 844 943 844 1025.5 803.5 c 128,-1,9
 1108 763 1108 763 1146.5 691.5 c 128,-1,10
 1185 620 1185 620 1185 526 c 0,11,12
 1185 461 1185 461 1167 387 c 0,13,14
 1137 262 1137 262 1054.5 175.5 c 128,-1,15
 972 89 972 89 858.5 44.5 c 128,-1,16
 745 0 745 0 625 0 c 2,0,-1
672 242 m 2,17,18
 767 242 767 242 837.5 295 c 128,-1,19
 908 348 908 348 936 461 c 0,20,21
 940 483 940 483 940 493 c 0,22,23
 940 548 940 548 895 586.5 c 128,-1,24
 850 625 850 625 762 625 c 2,25,-1
 465 625 l 1,26,-1
 377 242 l 1,27,-1
 672 242 l 2,17,18
EndSplineSet
Position2: "'cpsp' Capital Spacing lookup 0 per glyph data 0" dx=5 dy=0 dh=10 dv=0
EndChar

StartChar: uni0413
Encoding: 1043 1043 425
Width: 1065
GlyphClass: 1
Flags: W
LayerCount: 2
Fore
SplineSet
322 0 m 1,0,-1
 68 0 l 1,1,-1
 393 1411 l 1,2,-1
 1255 1411 l 1,3,-1
 1200 1178 l 1,4,-1
 592 1178 l 1,5,-1
 322 0 l 1,0,-1
EndSplineSet
Position2: "'cpsp' Capital Spacing lookup 0 per glyph data 0" dx=5 dy=0 dh=10 dv=0
EndChar

StartChar: uni0414
Encoding: 1044 1044 426
Width: 1470
GlyphClass: 2
Flags: W
LayerCount: 2
Fore
SplineSet
1225 -307 m 1,0,-1
 971 -307 l 1,1,-1
 1042 0 l 1,2,-1
 158 0 l 1,3,-1
 86 -305 l 1,4,-1
 -168 -307 l 1,5,-1
 -43 233 l 1,6,-1
 139 244 l 1,7,8
 340 539 340 539 424 903 c 2,9,-1
 541 1411 l 1,10,-1
 1458 1411 l 1,11,-1
 1186 233 l 1,12,-1
 1350 233 l 1,13,-1
 1225 -307 l 1,0,-1
410 223 m 1,14,-1
 932 233 l 1,15,-1
 1149 1178 l 1,16,-1
 739 1178 l 1,17,-1
 672 885 l 1,18,19
 586 489 586 489 410 223 c 1,14,-1
EndSplineSet
Substitution2: "'ss02' Style Set 2 lookup 16 subtable" uni0414.1
Substitution2: "'ss03' Style Set 3 lookup 15 subtable" uni0431.loclSRB
Substitution2: "'locl' Localized Forms in Cyrillic lookup 10 subtable" uni0414.1
Substitution2: "'locl' Localized Forms in Cyrillic lookup 9 subtable" uni0414.loclSRB
Substitution2: "'locl' Localized Forms in Cyrillic lookup 8 subtable" uni0414.loclSRB
AlternateSubs2: "'aalt' Access All Alternates lookup 1 subtable" uni0431.loclSRB uni0414.1
Position2: "'cpsp' Capital Spacing lookup 0 per glyph data 0" dx=5 dy=0 dh=10 dv=0
EndChar

StartChar: uni0416
Encoding: 1046 1046 428
Width: 2089
GlyphClass: 1
Flags: W
LayerCount: 2
Fore
SplineSet
1950 0 m 1,0,-1
 1638 0 l 1,1,-1
 1583 483 l 2,2,3
 1575 555 1575 555 1543 609.5 c 128,-1,4
 1511 664 1511 664 1442 664 c 2,5,-1
 1208 664 l 1,6,-1
 1057 0 l 1,7,-1
 803 0 l 1,8,-1
 954 664 l 1,9,-1
 737 664 l 2,10,11
 668 664 668 664 604 600 c 128,-1,12
 540 536 540 536 500 463 c 2,13,-1
 225 0 l 1,14,-1
 -94 0 l 1,15,-1
 305 598 l 2,16,17
 461 834 461 834 590 834 c 1,18,-1
 307 1411 l 1,19,-1
 643 1411 l 1,20,-1
 858 901 l 1,21,-1
 1010 901 l 1,22,-1
 1128 1411 l 1,23,-1
 1382 1411 l 1,24,-1
 1264 901 l 1,25,-1
 1411 901 l 1,26,-1
 1864 1411 l 1,27,-1
 2208 1411 l 1,28,-1
 1642 834 l 1,29,30
 1714 834 1714 834 1756 753.5 c 128,-1,31
 1798 673 1798 673 1817 578 c 2,32,-1
 1950 0 l 1,0,-1
EndSplineSet
Position2: "'cpsp' Capital Spacing lookup 0 per glyph data 0" dx=5 dy=0 dh=10 dv=0
EndChar

StartChar: uni0417
Encoding: 1047 1047 429
Width: 1114
GlyphClass: 1
Flags: W
LayerCount: 2
Fore
SplineSet
399 -20 m 0,0,1
 256 -20 256 -20 141 36 c 128,-1,2
 26 92 26 92 -23 203 c 1,3,-1
 203 317 l 1,4,5
 219 256 219 256 274 231.5 c 128,-1,6
 329 207 329 207 426 207 c 0,7,8
 541 207 541 207 638.5 268.5 c 128,-1,9
 736 330 736 330 766 449 c 0,10,11
 772 473 772 473 772 494 c 0,12,13
 772 569 772 569 708.5 605 c 128,-1,14
 645 641 645 641 545 641 c 2,15,-1
 408 641 l 1,16,-1
 455 858 l 1,17,-1
 588 858 l 2,18,19
 676 858 676 858 748.5 910 c 128,-1,20
 821 962 821 962 844 1051 c 0,21,22
 848 1067 848 1067 848 1086 c 0,23,24
 848 1143 848 1143 802.5 1172.5 c 128,-1,25
 757 1202 757 1202 686 1202 c 0,26,27
 608 1202 608 1202 539 1166 c 128,-1,28
 470 1130 470 1130 440 1065 c 1,29,-1
 193 1085 l 1,30,31
 229 1200 229 1200 309 1278 c 128,-1,32
 389 1356 389 1356 495 1395 c 128,-1,33
 601 1434 601 1434 711 1434 c 0,34,35
 812 1434 812 1434 898 1398.5 c 128,-1,36
 984 1363 984 1363 1037 1292.5 c 128,-1,37
 1090 1222 1090 1222 1090 1119 c 0,38,39
 1090 978 1090 978 1003 865 c 0,40,41
 946 795 946 795 856 756 c 1,42,43
 924 735 924 735 971 670.5 c 128,-1,44
 1018 606 1018 606 1018 502 c 0,45,46
 1018 412 1018 412 984 321.5 c 128,-1,47
 950 231 950 231 882 161 c 0,48,49
 784 65 784 65 657 22.5 c 128,-1,50
 530 -20 530 -20 399 -20 c 0,0,1
EndSplineSet
Position2: "'cpsp' Capital Spacing lookup 0 per glyph data 0" dx=5 dy=0 dh=10 dv=0
EndChar

StartChar: uni0418
Encoding: 1048 1048 430
Width: 1454
GlyphClass: 1
Flags: W
LayerCount: 2
Fore
SplineSet
1157 0 m 1,0,-1
 913 0 l 1,1,-1
 1141 991 l 1,2,-1
 322 0 l 1,3,-1
 68 0 l 1,4,-1
 393 1413 l 1,5,-1
 637 1413 l 1,6,-1
 410 424 l 1,7,-1
 1231 1413 l 1,8,-1
 1483 1413 l 1,9,-1
 1157 0 l 1,0,-1
EndSplineSet
Position2: "'cpsp' Capital Spacing lookup 0 per glyph data 0" dx=5 dy=0 dh=10 dv=0
EndChar

StartChar: uni0419
Encoding: 1049 1049 431
Width: 1491
GlyphClass: 1
Flags: W
LayerCount: 2
Fore
SplineSet
1014 1554 m 0,0,1
 871 1554 871 1554 806 1606.5 c 128,-1,2
 741 1659 741 1659 741 1747 c 0,3,4
 741 1781 741 1781 752 1825 c 1,5,-1
 918 1825 l 1,6,7
 913 1800 913 1800 913 1784 c 0,8,9
 913 1737 913 1737 942 1717.5 c 128,-1,10
 971 1698 971 1698 1022 1698 c 0,11,12
 1088 1698 1088 1698 1140.5 1732.5 c 128,-1,13
 1193 1767 1193 1767 1210 1825 c 1,14,-1
 1376 1825 l 1,15,16
 1349 1690 1349 1690 1262.5 1622 c 128,-1,17
 1176 1554 1176 1554 1014 1554 c 0,0,1
1194 0 m 1,18,-1
 940 0 l 1,19,20
 1184 1059 1184 1059 1186 1070 c 1,21,-1
 365 0 l 1,22,-1
 68 0 l 1,23,-1
 393 1411 l 1,24,-1
 647 1411 l 1,25,26
 410 383 410 383 399 338 c 1,27,-1
 1223 1411 l 1,28,-1
 1520 1411 l 1,29,-1
 1194 0 l 1,18,-1
EndSplineSet
Position2: "'cpsp' Capital Spacing lookup 0 per glyph data 0" dx=5 dy=0 dh=10 dv=0
EndChar

StartChar: uni041A
Encoding: 1050 1050 432
Width: 1350
GlyphClass: 1
Flags: W
LayerCount: 2
Fore
SplineSet
1214 0 m 1,0,-1
 903 0 l 1,1,-1
 848 483 l 2,2,3
 840 555 840 555 808 609.5 c 128,-1,4
 776 664 776 664 707 664 c 2,5,-1
 473 664 l 1,6,-1
 322 0 l 1,7,-1
 68 0 l 1,8,-1
 393 1411 l 1,9,-1
 647 1411 l 1,10,-1
 528 901 l 1,11,-1
 676 901 l 1,12,-1
 1128 1411 l 1,13,-1
 1473 1411 l 1,14,-1
 907 834 l 1,15,16
 979 834 979 834 1021 753 c 128,-1,17
 1063 672 1063 672 1081 578 c 2,18,-1
 1214 0 l 1,0,-1
EndSplineSet
Position2: "'cpsp' Capital Spacing lookup 0 per glyph data 0" dx=5 dy=0 dh=10 dv=0
EndChar

StartChar: uni041B
Encoding: 1051 1051 433
Width: 1386
GlyphClass: 2
Flags: W
LayerCount: 2
Fore
SplineSet
102 -20 m 0,0,1
 43 -20 43 -20 -4 -2 c 128,-1,2
 -51 16 -51 16 -94 47 c 1,3,-1
 20 252 l 1,4,5
 47 229 47 229 80 229 c 0,6,7
 146 229 146 229 202 335 c 0,8,9
 253 430 253 430 301 596.5 c 128,-1,10
 349 763 349 763 416 1055 c 2,11,-1
 498 1411 l 1,12,-1
 1415 1411 l 1,13,-1
 1090 0 l 1,14,-1
 836 0 l 1,15,-1
 1106 1178 l 1,16,-1
 696 1178 l 1,17,-1
 659 1018 l 1,18,19
 580 651 580 651 503 402 c 0,20,21
 446 223 446 223 348.5 101.5 c 128,-1,22
 251 -20 251 -20 102 -20 c 0,0,1
EndSplineSet
Substitution2: "'ss02' Style Set 2 lookup 16 subtable" uni041B.1
Substitution2: "'ss03' Style Set 3 lookup 15 subtable" uni0414.loclSRB
Substitution2: "'locl' Localized Forms in Cyrillic lookup 10 subtable" uni041B.1
Substitution2: "'locl' Localized Forms in Cyrillic lookup 9 subtable" uni041B.loclSRB
Substitution2: "'locl' Localized Forms in Cyrillic lookup 8 subtable" uni041B.loclSRB
AlternateSubs2: "'aalt' Access All Alternates lookup 1 subtable" uni0414.loclSRB uni041B.1
Position2: "'cpsp' Capital Spacing lookup 0 per glyph data 0" dx=5 dy=0 dh=10 dv=0
EndChar

StartChar: uni041F
Encoding: 1055 1055 437
Width: 1491
GlyphClass: 1
Flags: W
LayerCount: 2
Fore
SplineSet
1194 0 m 1,0,-1
 940 0 l 1,1,-1
 1210 1178 l 1,2,-1
 592 1178 l 1,3,-1
 322 0 l 1,4,-1
 68 0 l 1,5,-1
 393 1411 l 1,6,-1
 1520 1411 l 1,7,-1
 1194 0 l 1,0,-1
EndSplineSet
Position2: "'cpsp' Capital Spacing lookup 0 per glyph data 0" dx=5 dy=0 dh=10 dv=0
EndChar

StartChar: uni0420
Encoding: 1056 1056 438
Width: 1167
GlyphClass: 1
Flags: W
LayerCount: 2
Fore
SplineSet
319 0 m 1,0,-1
 68 0 l 1,1,-1
 393 1411 l 1,2,-1
 829 1411 l 2,3,4
 949 1411 949 1411 1044.5 1373.5 c 128,-1,5
 1140 1336 1140 1336 1195 1258 c 0,6,7
 1246 1183 1246 1183 1246 1079 c 0,8,9
 1246 989 1246 989 1212.5 906 c 128,-1,10
 1179 823 1179 823 1123 763 c 0,11,12
 1036 671 1036 671 913.5 628.5 c 128,-1,13
 791 586 791 586 651 586 c 2,14,-1
 455 586 l 1,15,-1
 319 0 l 1,0,-1
692 823 m 2,16,17
 949 823 949 823 991 1018 c 0,18,19
 997 1041 997 1041 997 1059 c 0,20,21
 997 1174 997 1174 786 1174 c 2,22,-1
 590 1174 l 1,23,-1
 508 823 l 1,24,-1
 692 823 l 2,16,17
EndSplineSet
Position2: "'cpsp' Capital Spacing lookup 0 per glyph data 0" dx=5 dy=0 dh=10 dv=0
EndChar

StartChar: uni0421
Encoding: 1057 1057 439
Width: 1434
GlyphClass: 1
Flags: W
LayerCount: 2
Fore
SplineSet
659 -20 m 0,0,1
 470 -20 470 -20 348.5 49 c 128,-1,2
 227 118 227 118 168 238.5 c 128,-1,3
 109 359 109 359 109 512 c 0,4,5
 109 653 109 653 155 802.5 c 128,-1,6
 201 952 201 952 291 1084 c 0,7,8
 401 1244 401 1244 574 1340 c 128,-1,9
 747 1436 747 1436 967 1436 c 0,10,11
 1184 1436 1184 1436 1321.5 1326.5 c 128,-1,12
 1459 1217 1459 1217 1501 1020 c 1,13,-1
 1249 946 l 1,14,15
 1242 1079 1242 1079 1160 1136.5 c 128,-1,16
 1078 1194 1078 1194 936 1194 c 0,17,18
 784 1194 784 1194 671 1127.5 c 128,-1,19
 558 1061 558 1061 485 948.5 c 128,-1,20
 412 836 412 836 379 694 c 0,21,22
 359 606 359 606 359 532 c 0,23,24
 359 387 359 387 439 304 c 128,-1,25
 519 221 519 221 688 221 c 0,26,27
 838 221 838 221 950 290 c 128,-1,28
 1062 359 1062 359 1145 494 c 1,29,-1
 1358 377 l 1,30,31
 1223 174 1223 174 1041.5 77 c 128,-1,32
 860 -20 860 -20 659 -20 c 0,0,1
EndSplineSet
Position2: "'cpsp' Capital Spacing lookup 0 per glyph data 0" dx=5 dy=0 dh=10 dv=0
EndChar

StartChar: uni0422
Encoding: 1058 1058 440
Width: 1180
GlyphClass: 1
Flags: W
LayerCount: 2
Fore
SplineSet
602 0 m 1,0,-1
 348 0 l 1,1,-1
 621 1184 l 1,2,-1
 178 1184 l 1,3,-1
 231 1411 l 1,4,-1
 1370 1411 l 1,5,-1
 1317 1184 l 1,6,-1
 874 1184 l 1,7,-1
 602 0 l 1,0,-1
EndSplineSet
Position2: "'cpsp' Capital Spacing lookup 0 per glyph data 0" dx=5 dy=0 dh=10 dv=0
EndChar

StartChar: uni0423
Encoding: 1059 1059 441
Width: 1110
GlyphClass: 1
Flags: W
LayerCount: 2
Fore
SplineSet
373 0 m 1,0,-1
 102 0 l 1,1,-1
 401 457 l 1,2,-1
 225 1411 l 1,3,-1
 489 1411 l 1,4,-1
 598 735 l 1,5,-1
 1038 1411 l 1,6,-1
 1311 1411 l 1,7,-1
 373 0 l 1,0,-1
EndSplineSet
Position2: "'cpsp' Capital Spacing lookup 0 per glyph data 0" dx=5 dy=0 dh=10 dv=0
EndChar

StartChar: uni0424
Encoding: 1060 1060 442
Width: 1782
GlyphClass: 1
Flags: W
LayerCount: 2
Fore
SplineSet
903 0 m 1,0,-1
 647 0 l 1,1,-1
 678 102 l 1,2,3
 490 102 490 102 364.5 160 c 128,-1,4
 239 218 239 218 177 321 c 128,-1,5
 115 424 115 424 115 561 c 0,6,7
 115 691 115 691 160 813 c 0,8,9
 246 1047 246 1047 445 1177 c 0,10,11
 649 1311 649 1311 944 1311 c 1,12,-1
 975 1411 l 1,13,-1
 1229 1411 l 1,14,-1
 1198 1311 l 1,15,16
 1386 1311 1386 1311 1511 1252.5 c 128,-1,17
 1636 1194 1636 1194 1699 1089 c 128,-1,18
 1762 984 1762 984 1762 845 c 0,19,20
 1762 725 1762 725 1720.5 604 c 128,-1,21
 1679 483 1679 483 1597 381 c 0,22,23
 1529 297 1529 297 1432.5 234.5 c 128,-1,24
 1336 172 1336 172 1210.5 137 c 128,-1,25
 1085 102 1085 102 932 102 c 1,26,-1
 903 0 l 1,0,-1
717 328 m 1,27,-1
 905 1085 l 1,28,29
 768 1085 768 1085 662.5 1033 c 128,-1,30
 557 981 557 981 488.5 890.5 c 128,-1,31
 420 800 420 800 393 682 c 0,32,33
 381 631 381 631 381 586 c 0,34,35
 381 509 381 509 417 451 c 128,-1,36
 453 393 453 393 527.5 360.5 c 128,-1,37
 602 328 602 328 717 328 c 1,27,-1
971 328 m 1,38,39
 1106 328 1106 328 1211.5 379 c 128,-1,40
 1317 430 1317 430 1387 519.5 c 128,-1,41
 1457 609 1457 609 1485 727 c 0,42,43
 1496 772 1496 772 1496 821 c 0,44,45
 1496 900 1496 900 1460 959 c 128,-1,46
 1424 1018 1424 1018 1349 1051.5 c 128,-1,47
 1274 1085 1274 1085 1159 1085 c 1,48,-1
 971 328 l 1,38,39
EndSplineSet
Position2: "'cpsp' Capital Spacing lookup 0 per glyph data 0" dx=5 dy=0 dh=10 dv=0
EndChar

StartChar: uni0425
Encoding: 1061 1061 443
Width: 1343
GlyphClass: 1
Flags: W
LayerCount: 2
Fore
SplineSet
1200 0 m 1,0,-1
 903 0 l 1,1,-1
 684 537 l 1,2,-1
 215 0 l 1,3,-1
 -94 0 l 1,4,-1
 545 707 l 1,5,-1
 240 1413 l 1,6,-1
 539 1413 l 1,7,-1
 752 868 l 1,8,-1
 1223 1413 l 1,9,-1
 1530 1413 l 1,10,-1
 893 707 l 1,11,-1
 1200 0 l 1,0,-1
EndSplineSet
Position2: "'cpsp' Capital Spacing lookup 0 per glyph data 0" dx=5 dy=0 dh=10 dv=0
EndChar

StartChar: uni0426
Encoding: 1062 1062 444
Width: 1528
GlyphClass: 1
Flags: W
LayerCount: 2
Fore
SplineSet
1274 -307 m 1,0,-1
 1020 -307 l 1,1,-1
 1092 0 l 1,2,-1
 68 0 l 1,3,-1
 393 1411 l 1,4,-1
 647 1411 l 1,5,-1
 375 233 l 1,6,-1
 993 233 l 1,7,-1
 1266 1411 l 1,8,-1
 1520 1411 l 1,9,-1
 1247 233 l 1,10,-1
 1399 233 l 1,11,-1
 1274 -307 l 1,0,-1
EndSplineSet
Position2: "'cpsp' Capital Spacing lookup 0 per glyph data 0" dx=5 dy=0 dh=10 dv=0
EndChar

StartChar: uni0427
Encoding: 1063 1063 445
Width: 1350
GlyphClass: 1
Flags: W
LayerCount: 2
Fore
SplineSet
1053 0 m 1,0,-1
 799 0 l 1,1,-1
 913 477 l 1,2,3
 765 410 765 410 618 410 c 0,4,5
 394 410 394 410 285 511.5 c 128,-1,6
 176 613 176 613 176 796 c 0,7,8
 176 888 176 888 201 991 c 2,9,-1
 297 1411 l 1,10,-1
 551 1411 l 1,11,-1
 455 999 l 2,12,13
 432 896 432 896 432 835 c 0,14,15
 432 739 432 739 484.5 697 c 128,-1,16
 537 655 537 655 649 655 c 0,17,18
 833 655 833 655 975 782 c 1,19,-1
 1124 1411 l 1,20,-1
 1378 1411 l 1,21,-1
 1053 0 l 1,0,-1
EndSplineSet
Position2: "'cpsp' Capital Spacing lookup 0 per glyph data 0" dx=5 dy=0 dh=10 dv=0
EndChar

StartChar: uni0428
Encoding: 1064 1064 446
Width: 1802
GlyphClass: 1
Flags: W
LayerCount: 2
Fore
SplineSet
1505 0 m 1,0,-1
 68 0 l 1,1,-1
 393 1411 l 1,2,-1
 647 1411 l 1,3,-1
 375 233 l 1,4,-1
 713 233 l 1,5,-1
 985 1411 l 1,6,-1
 1239 1411 l 1,7,-1
 967 233 l 1,8,-1
 1305 233 l 1,9,-1
 1577 1411 l 1,10,-1
 1831 1411 l 1,11,-1
 1505 0 l 1,0,-1
EndSplineSet
Position2: "'cpsp' Capital Spacing lookup 0 per glyph data 0" dx=5 dy=0 dh=10 dv=0
EndChar

StartChar: uni0429
Encoding: 1065 1065 447
Width: 1839
GlyphClass: 1
Flags: W
LayerCount: 2
Fore
SplineSet
1585 -307 m 1,0,-1
 1331 -307 l 1,1,-1
 1403 0 l 1,2,-1
 68 0 l 1,3,-1
 393 1411 l 1,4,-1
 647 1411 l 1,5,-1
 375 233 l 1,6,-1
 713 233 l 1,7,-1
 985 1411 l 1,8,-1
 1239 1411 l 1,9,-1
 967 233 l 1,10,-1
 1305 233 l 1,11,-1
 1577 1411 l 1,12,-1
 1831 1411 l 1,13,-1
 1559 233 l 1,14,-1
 1710 233 l 1,15,-1
 1585 -307 l 1,0,-1
EndSplineSet
Position2: "'cpsp' Capital Spacing lookup 0 per glyph data 0" dx=5 dy=0 dh=10 dv=0
EndChar

StartChar: uni042A
Encoding: 1066 1066 448
Width: 1405
GlyphClass: 1
Flags: W
LayerCount: 2
Fore
SplineSet
754 0 m 2,0,-1
 305 0 l 1,1,-1
 578 1184 l 1,2,-1
 178 1184 l 1,3,-1
 231 1411 l 1,4,-1
 883 1411 l 1,5,-1
 748 825 l 1,6,-1
 932 825 l 2,7,8
 1127 825 1127 825 1238.5 738 c 128,-1,9
 1350 651 1350 651 1350 499 c 0,10,11
 1350 418 1350 418 1319 333.5 c 128,-1,12
 1288 249 1288 249 1226 181 c 0,13,14
 1138 89 1138 89 1015.5 44.5 c 128,-1,15
 893 0 893 0 754 0 c 2,0,-1
795 238 m 2,16,17
 927 238 927 238 1001 291.5 c 128,-1,18
 1075 345 1075 345 1096 438 c 0,19,20
 1101 461 1101 461 1101 477 c 0,21,22
 1101 536 1101 536 1048 562 c 128,-1,23
 995 588 995 588 889 588 c 2,24,-1
 692 588 l 1,25,-1
 610 238 l 1,26,-1
 795 238 l 2,16,17
EndSplineSet
Position2: "'cpsp' Capital Spacing lookup 0 per glyph data 0" dx=5 dy=0 dh=10 dv=0
EndChar

StartChar: uni042B
Encoding: 1067 1067 449
Width: 1745
GlyphClass: 1
Flags: W
LayerCount: 2
Fore
SplineSet
516 0 m 2,0,-1
 68 0 l 1,1,-1
 393 1411 l 1,2,-1
 645 1411 l 1,3,-1
 510 825 l 1,4,-1
 694 825 l 2,5,6
 813 825 813 825 908 789 c 128,-1,7
 1003 753 1003 753 1058 680.5 c 128,-1,8
 1113 608 1113 608 1113 498 c 0,9,10
 1113 453 1113 453 1100 393 c 0,11,12
 1052 201 1052 201 891 100.5 c 128,-1,13
 730 0 730 0 516 0 c 2,0,-1
1448 0 m 1,14,-1
 1194 0 l 1,15,-1
 1520 1411 l 1,16,-1
 1774 1411 l 1,17,-1
 1448 0 l 1,14,-1
557 238 m 2,18,19
 689 238 689 238 763 291.5 c 128,-1,20
 837 345 837 345 858 438 c 0,21,22
 863 461 863 461 863 478 c 0,23,24
 863 536 863 536 810.5 562 c 128,-1,25
 758 588 758 588 651 588 c 2,26,-1
 455 588 l 1,27,-1
 373 238 l 1,28,-1
 557 238 l 2,18,19
EndSplineSet
Position2: "'cpsp' Capital Spacing lookup 0 per glyph data 0" dx=5 dy=0 dh=10 dv=0
EndChar

StartChar: uni042C
Encoding: 1068 1068 450
Width: 1167
GlyphClass: 1
Flags: W
LayerCount: 2
Fore
SplineSet
516 0 m 2,0,-1
 68 0 l 1,1,-1
 393 1411 l 1,2,-1
 645 1411 l 1,3,-1
 510 825 l 1,4,-1
 694 825 l 2,5,6
 813 825 813 825 908 789 c 128,-1,7
 1003 753 1003 753 1058 680.5 c 128,-1,8
 1113 608 1113 608 1113 498 c 0,9,10
 1113 453 1113 453 1100 393 c 0,11,12
 1052 201 1052 201 891 100.5 c 128,-1,13
 730 0 730 0 516 0 c 2,0,-1
557 238 m 2,14,15
 689 238 689 238 763 291.5 c 128,-1,16
 837 345 837 345 858 438 c 0,17,18
 863 461 863 461 863 478 c 0,19,20
 863 536 863 536 810.5 562 c 128,-1,21
 758 588 758 588 651 588 c 2,22,-1
 455 588 l 1,23,-1
 373 238 l 1,24,-1
 557 238 l 2,14,15
EndSplineSet
Position2: "'cpsp' Capital Spacing lookup 0 per glyph data 0" dx=5 dy=0 dh=10 dv=0
EndChar

StartChar: uni042D
Encoding: 1069 1069 451
Width: 1432
GlyphClass: 1
Flags: W
LayerCount: 2
Fore
SplineSet
559 -20 m 0,0,1
 353 -20 353 -20 211 85 c 128,-1,2
 69 190 69 190 25 397 c 1,3,-1
 274 473 l 1,4,5
 294 343 294 343 369 282 c 128,-1,6
 444 221 444 221 588 221 c 0,7,8
 776 221 776 221 909 324.5 c 128,-1,9
 1042 428 1042 428 1110 600 c 1,10,-1
 543 590 l 1,11,-1
 596 823 l 1,12,-1
 1167 834 l 1,13,14
 1169 852 1169 852 1169 886 c 0,15,16
 1169 977 1169 977 1135.5 1046.5 c 128,-1,17
 1102 1116 1102 1116 1030.5 1155 c 128,-1,18
 959 1194 959 1194 844 1194 c 0,19,20
 701 1194 701 1194 581.5 1130.5 c 128,-1,21
 462 1067 462 1067 387 926 c 1,22,-1
 172 1040 l 1,23,24
 308 1244 308 1244 489.5 1340 c 128,-1,25
 671 1436 671 1436 870 1436 c 0,26,27
 1058 1436 1058 1436 1179.5 1366.5 c 128,-1,28
 1301 1297 1301 1297 1360 1176.5 c 128,-1,29
 1419 1056 1419 1056 1419 902 c 0,30,31
 1419 760 1419 760 1373 611 c 128,-1,32
 1327 462 1327 462 1236 330 c 0,33,34
 1125 170 1125 170 952 75 c 128,-1,35
 779 -20 779 -20 559 -20 c 0,0,1
EndSplineSet
Position2: "'cpsp' Capital Spacing lookup 0 per glyph data 0" dx=5 dy=0 dh=10 dv=0
EndChar

StartChar: uni042E
Encoding: 1070 1070 452
Width: 2005
GlyphClass: 2
Flags: W
LayerCount: 2
Fore
SplineSet
1135 -20 m 0,0,1
 946 -20 946 -20 824 48 c 128,-1,2
 702 116 702 116 643 234.5 c 128,-1,3
 584 353 584 353 584 504 c 0,4,5
 584 551 584 551 590 600 c 1,6,-1
 457 590 l 1,7,-1
 322 0 l 1,8,-1
 68 0 l 1,9,-1
 393 1411 l 1,10,-1
 647 1411 l 1,11,-1
 510 823 l 1,12,-1
 641 834 l 1,13,14
 734 1099 734 1099 931 1259 c 0,15,16
 1145 1434 1145 1434 1444 1434 c 0,17,18
 1631 1434 1631 1434 1752.5 1365 c 128,-1,19
 1874 1296 1874 1296 1933 1176 c 128,-1,20
 1992 1056 1992 1056 1992 902 c 0,21,22
 1992 759 1992 759 1946 609.5 c 128,-1,23
 1900 460 1900 460 1811 331 c 0,24,25
 1701 171 1701 171 1528.5 75.5 c 128,-1,26
 1356 -20 1356 -20 1135 -20 c 0,0,1
1159 205 m 0,27,28
 1308 205 1308 205 1420 276 c 0,29,30
 1536 350 1536 350 1606.5 468 c 128,-1,31
 1677 586 1677 586 1708 729 c 0,32,33
 1729 818 1729 818 1729 898 c 0,34,35
 1729 1041 1729 1041 1654 1124.5 c 128,-1,36
 1579 1208 1579 1208 1417 1208 c 0,37,38
 1269 1208 1269 1208 1158 1138 c 0,39,40
 1043 1063 1043 1063 972.5 945.5 c 128,-1,41
 902 828 902 828 870 684 c 0,42,43
 849 596 849 596 849 514 c 0,44,45
 849 372 849 372 923.5 288.5 c 128,-1,46
 998 205 998 205 1159 205 c 0,27,28
EndSplineSet
Substitution2: "'ss02' Style Set 2 lookup 16 subtable" uni042E.1
Substitution2: "'ss03' Style Set 3 lookup 15 subtable" uni041B.loclSRB
Substitution2: "'locl' Localized Forms in Cyrillic lookup 10 subtable" uni042E.1
AlternateSubs2: "'aalt' Access All Alternates lookup 1 subtable" uni041B.loclSRB uni042E.1
Position2: "'cpsp' Capital Spacing lookup 0 per glyph data 0" dx=5 dy=0 dh=10 dv=0
EndChar

StartChar: uni042F
Encoding: 1071 1071 453
Width: 1262
GlyphClass: 1
Flags: W
LayerCount: 2
Fore
SplineSet
963 -2 m 1,0,-1
 709 -2 l 1,1,-1
 846 604 l 1,2,-1
 672 604 l 1,3,-1
 205 -2 l 1,4,-1
 -98 -2 l 1,5,-1
 432 625 l 1,6,7
 343 660 343 660 300.5 746.5 c 128,-1,8
 258 833 258 833 258 936 c 0,9,10
 258 990 258 990 270 1042 c 0,11,12
 315 1237 315 1237 467.5 1325 c 128,-1,13
 620 1413 620 1413 838 1413 c 2,14,-1
 1288 1413 l 1,15,-1
 963 -2 l 1,0,-1
893 811 m 1,16,-1
 979 1186 l 1,17,-1
 768 1186 l 2,18,19
 655 1186 655 1186 587.5 1139.5 c 128,-1,20
 520 1093 520 1093 502 1016 c 0,21,22
 495 985 495 985 495 964 c 0,23,24
 495 895 495 895 543.5 855 c 128,-1,25
 592 815 592 815 676 811 c 1,26,-1
 893 811 l 1,16,-1
EndSplineSet
Position2: "'cpsp' Capital Spacing lookup 0 per glyph data 0" dx=5 dy=0 dh=10 dv=0
EndChar

StartChar: uni0431
Encoding: 1073 1073 455
Width: 1268
GlyphClass: 1
Flags: W
LayerCount: 2
Fore
SplineSet
579 -20 m 0,0,1
 377 -20 377 -20 259.5 81 c 128,-1,2
 142 182 142 182 142 369 c 0,3,4
 142 444 142 444 163 527 c 2,5,-1
 201 694 l 2,6,7
 238 853 238 853 298.5 964 c 128,-1,8
 359 1075 359 1075 418 1136 c 128,-1,9
 477 1197 477 1197 541 1245 c 1,10,11
 698 1334 698 1334 919 1379 c 0,12,13
 998 1396 998 1396 1229 1436 c 1,14,-1
 1186 1192 l 1,15,16
 1039 1174 1039 1174 892.5 1136 c 128,-1,17
 746 1098 746 1098 692 1071 c 1,18,19
 599 1042 599 1042 538 980.5 c 128,-1,20
 477 919 477 919 438 784 c 1,21,22
 514 864 514 864 621 912.5 c 128,-1,23
 728 961 728 961 856 961 c 0,24,25
 1045 961 1045 961 1139 869.5 c 128,-1,26
 1233 778 1233 778 1233 622 c 0,27,28
 1233 524 1233 524 1199 421 c 128,-1,29
 1165 318 1165 318 1091 225 c 0,30,31
 1001 115 1001 115 869 47.5 c 128,-1,32
 737 -20 737 -20 579 -20 c 0,0,1
601 190 m 0,33,34
 691 190 691 190 763.5 231 c 128,-1,35
 836 272 836 272 885.5 341.5 c 128,-1,36
 935 411 935 411 957 498 c 0,37,38
 968 547 968 547 968 584 c 0,39,40
 968 750 968 750 763 750 c 0,41,42
 674 750 674 750 599.5 704.5 c 128,-1,43
 525 659 525 659 475 591 c 0,44,45
 397 484 397 484 397 364 c 0,46,47
 397 283 397 283 445.5 236.5 c 128,-1,48
 494 190 494 190 601 190 c 0,33,34
EndSplineSet
Substitution2: "'locl' Localized Forms in Cyrillic lookup 8 subtable" uni0431.loclSRB
EndChar

StartChar: uni0432
Encoding: 1074 1074 456
Width: 1109
GlyphClass: 2
Flags: W
LayerCount: 2
Fore
SplineSet
483 0 m 2,0,-1
 26 0 l 1,1,-1
 264 1039 l 1,2,-1
 709 1039 l 2,3,4
 883 1039 883 1039 978 989.5 c 128,-1,5
 1073 940 1073 940 1073 812 c 0,6,7
 1073 768 1073 768 1061.5 714.5 c 128,-1,8
 1050 661 1050 661 1007.5 610.5 c 128,-1,9
 965 560 965 560 887 533 c 1,10,11
 1006 509 1006 509 1006 369 c 0,12,13
 1006 329 1006 329 994 275 c 0,14,15
 970 171 970 171 908 110.5 c 128,-1,16
 846 50 846 50 740 25 c 128,-1,17
 634 0 634 0 483 0 c 2,0,-1
669 633 m 2,18,19
 740 633 740 633 777 661 c 0,20,21
 826 698 826 698 826 752 c 0,22,23
 826 808 826 808 731 808 c 2,24,-1
 467 808 l 1,25,-1
 431 633 l 1,26,-1
 669 633 l 2,18,19
571 227 m 2,27,28
 652 227 652 227 698 253 c 0,29,30
 758 286 758 286 758 354 c 0,31,32
 758 390 758 390 729.5 404 c 128,-1,33
 701 418 701 418 626 418 c 2,34,-1
 376 418 l 1,35,-1
 337 227 l 1,36,-1
 571 227 l 2,27,28
EndSplineSet
Substitution2: "'ss02' Style Set 2 lookup 16 subtable" uni0432.1
Substitution2: "'ss03' Style Set 3 lookup 15 subtable" uni0432.loclSRB
Substitution2: "'locl' Localized Forms in Cyrillic lookup 10 subtable" uni0432.1
Substitution2: "'locl' Localized Forms in Cyrillic lookup 9 subtable" uni0432.loclSRB
Substitution2: "'locl' Localized Forms in Cyrillic lookup 8 subtable" uni0432.loclSRB
AlternateSubs2: "'aalt' Access All Alternates lookup 1 subtable" uni0432.loclSRB uni0432.1
EndChar

StartChar: uni0433
Encoding: 1075 1075 457
Width: 830
GlyphClass: 2
Flags: W
LayerCount: 2
Fore
SplineSet
283 0 m 1,0,-1
 26 0 l 1,1,-1
 264 1039 l 1,2,-1
 950 1039 l 1,3,-1
 907 857 l 1,4,-1
 479 857 l 1,5,-1
 283 0 l 1,0,-1
EndSplineSet
Substitution2: "'ss02' Style Set 2 lookup 16 subtable" uni0433.1
Substitution2: "'ss03' Style Set 3 lookup 15 subtable" uni0433.loclSRB
Substitution2: "'locl' Localized Forms in Cyrillic lookup 10 subtable" uni0433.1
Substitution2: "'locl' Localized Forms in Cyrillic lookup 9 subtable" uni0433.loclSRB
Substitution2: "'locl' Localized Forms in Cyrillic lookup 8 subtable" uni0433.loclSRB
AlternateSubs2: "'aalt' Access All Alternates lookup 1 subtable" uni0433.loclSRB uni0433.1
EndChar

StartChar: uni0434
Encoding: 1076 1076 458
Width: 1295
GlyphClass: 2
Flags: W
LayerCount: 2
Fore
SplineSet
1059 -307 m 1,0,-1
 801 -307 l 1,1,-1
 876 0 l 1,2,-1
 134 0 l 1,3,-1
 59 -307 l 1,4,-1
 -198 -307 l 1,5,-1
 -81 182 l 1,6,-1
 73 191 l 1,7,8
 160 267 160 267 209.5 384 c 128,-1,9
 259 501 259 501 292 645 c 2,10,-1
 382 1039 l 1,11,-1
 1218 1039 l 1,12,-1
 1022 182 l 1,13,-1
 1175 182 l 1,14,-1
 1059 -307 l 1,0,-1
335 174 m 1,15,-1
 764 182 l 1,16,-1
 918 857 l 1,17,-1
 596 857 l 1,18,-1
 545 633 l 1,19,20
 482 300 482 300 335 174 c 1,15,-1
EndSplineSet
Substitution2: "'ss02' Style Set 2 lookup 16 subtable" uni0434.1
Substitution2: "'ss03' Style Set 3 lookup 15 subtable" uni0434.loclSRB
Substitution2: "'locl' Localized Forms in Cyrillic lookup 10 subtable" uni0434.1
Substitution2: "'locl' Localized Forms in Cyrillic lookup 9 subtable" uni0434.loclSRB
Substitution2: "'locl' Localized Forms in Cyrillic lookup 8 subtable" uni0434.loclSRB
AlternateSubs2: "'aalt' Access All Alternates lookup 1 subtable" uni0434.loclSRB uni0434.1
EndChar

StartChar: uni0435
Encoding: 1077 1077 459
Width: 1087
GlyphClass: 1
Flags: W
LayerCount: 2
Fore
SplineSet
462 -12 m 0,0,1
 320 -12 320 -12 227.5 40.5 c 128,-1,2
 135 93 135 93 89.5 184 c 128,-1,3
 44 275 44 275 44 389 c 0,4,5
 44 549 44 549 127 713.5 c 128,-1,6
 210 878 210 878 376 980 c 1,7,8
 501 1052 501 1052 655 1052 c 0,9,10
 861 1052 861 1052 954 949.5 c 128,-1,11
 1047 847 1047 847 1047 681 c 0,12,13
 1047 616 1047 616 1034 545 c 128,-1,14
 1021 474 1021 474 1003 429 c 1,15,-1
 293 429 l 1,16,-1
 291 395 l 1,17,18
 291 215 291 215 484 215 c 0,19,20
 573 215 573 215 641 240 c 128,-1,21
 709 265 709 265 774 325 c 1,22,-1
 917 152 l 1,23,24
 729 -12 729 -12 462 -12 c 0,0,1
815 605 m 1,25,26
 818 637 818 637 818 662 c 0,27,28
 818 762 818 762 773.5 804.5 c 128,-1,29
 729 847 729 847 636 847 c 0,30,31
 562 847 562 847 505 814.5 c 128,-1,32
 448 782 448 782 405.5 728 c 128,-1,33
 363 674 363 674 337 605 c 1,34,-1
 815 605 l 1,25,26
EndSplineSet
EndChar

StartChar: uni0436
Encoding: 1078 1078 460
Width: 1589
GlyphClass: 2
Flags: W
LayerCount: 2
Fore
SplineSet
1457 0 m 1,0,-1
 1161 0 l 1,1,-1
 1122 380 l 2,2,3
 1115 435 1115 435 1090.5 460.5 c 128,-1,4
 1066 486 1066 486 1014 486 c 2,5,-1
 912 486 l 1,6,-1
 801 0 l 1,7,-1
 547 0 l 1,8,-1
 658 486 l 1,9,-1
 569 486 l 2,10,11
 469 486 469 486 400 359 c 1,12,-1
 191 0 l 1,13,-1
 -113 0 l 1,14,-1
 181 482 l 2,15,16
 219 538 219 538 277.5 586.5 c 128,-1,17
 336 635 336 635 390 635 c 1,18,-1
 185 1039 l 1,19,-1
 473 1039 l 1,20,-1
 630 666 l 1,21,-1
 701 666 l 1,22,-1
 786 1039 l 1,23,-1
 1039 1039 l 1,24,-1
 955 666 l 1,25,-1
 1020 666 l 1,26,-1
 1348 1039 l 1,27,-1
 1648 1039 l 1,28,-1
 1242 635 l 1,29,30
 1295 635 1295 635 1330.5 578.5 c 128,-1,31
 1366 522 1366 522 1378 460 c 2,32,-1
 1457 0 l 1,0,-1
EndSplineSet
Substitution2: "'ss02' Style Set 2 lookup 16 subtable" uni0436.1
Substitution2: "'ss03' Style Set 3 lookup 15 subtable" uni0436.loclSRB
Substitution2: "'locl' Localized Forms in Cyrillic lookup 10 subtable" uni0436.1
Substitution2: "'locl' Localized Forms in Cyrillic lookup 9 subtable" uni0436.loclSRB
Substitution2: "'locl' Localized Forms in Cyrillic lookup 8 subtable" uni0436.loclSRB
AlternateSubs2: "'aalt' Access All Alternates lookup 1 subtable" uni0436.loclSRB uni0436.1
EndChar

StartChar: uni0437
Encoding: 1079 1079 461
Width: 1060
GlyphClass: 2
Flags: W
LayerCount: 2
Fore
SplineSet
372 -20 m 0,0,1
 240 -20 240 -20 125.5 45 c 128,-1,2
 11 110 11 110 -30 234 c 1,3,-1
 219 379 l 1,4,5
 219 321 219 321 247 283 c 128,-1,6
 275 245 275 245 317 226 c 128,-1,7
 359 207 359 207 405 207 c 0,8,9
 540 207 540 207 606.5 237.5 c 128,-1,10
 673 268 673 268 685 339 c 0,11,12
 692 370 692 370 693 384 c 0,13,14
 693 412 693 412 661.5 420 c 128,-1,15
 630 428 630 428 537 428 c 2,16,-1
 419 428 l 1,17,-1
 473 643 l 1,18,-1
 578 643 l 2,19,20
 662 643 662 643 704.5 671.5 c 128,-1,21
 747 700 747 700 760 765 c 1,22,-1
 761 778 l 2,23,24
 761 798 761 798 742 807 c 128,-1,25
 723 816 723 816 690.5 818 c 128,-1,26
 658 820 658 820 592 820 c 0,27,28
 529 820 529 820 453.5 781.5 c 128,-1,29
 378 743 378 743 309 654 c 1,30,-1
 89 811 l 1,31,32
 191 916 191 916 281 970.5 c 128,-1,33
 371 1025 371 1025 446.5 1038.5 c 128,-1,34
 522 1052 522 1052 614 1052 c 0,35,36
 1008 1052 1008 1052 1008 817 c 0,37,38
 1008 762 1008 762 989.5 707 c 128,-1,39
 971 652 971 652 933 617 c 0,40,41
 883 575 883 575 779 542 c 1,42,43
 935 510 935 510 935 361 c 0,44,45
 935 327 935 327 923 276 c 0,46,47
 897 160 897 160 822 96 c 128,-1,48
 747 32 747 32 636 6 c 128,-1,49
 525 -20 525 -20 372 -20 c 0,0,1
EndSplineSet
Substitution2: "'ss02' Style Set 2 lookup 16 subtable" uni0437.1
Substitution2: "'ss03' Style Set 3 lookup 15 subtable" uni0437.loclSRB
Substitution2: "'locl' Localized Forms in Cyrillic lookup 10 subtable" uni0437.1
Substitution2: "'locl' Localized Forms in Cyrillic lookup 9 subtable" uni0437.loclSRB
Substitution2: "'locl' Localized Forms in Cyrillic lookup 8 subtable" uni0437.loclSRB
AlternateSubs2: "'aalt' Access All Alternates lookup 1 subtable" uni0437.loclSRB uni0437.1
EndChar

StartChar: uni0438
Encoding: 1080 1080 462
Width: 1243
GlyphClass: 2
Flags: W
LayerCount: 2
Fore
SplineSet
976 0 m 1,0,-1
 718 0 l 1,1,-1
 846 561 l 2,2,3
 863 631 863 631 886 691 c 1,4,5
 878 680 878 680 313 0 c 1,6,-1
 32 0 l 1,7,-1
 270 1039 l 1,8,-1
 528 1039 l 1,9,-1
 400 479 l 2,10,11
 383 409 383 409 360 349 c 1,12,-1
 933 1039 l 1,13,-1
 1214 1039 l 1,14,-1
 976 0 l 1,0,-1
EndSplineSet
Substitution2: "'ss02' Style Set 2 lookup 16 subtable" uni0438.1
Substitution2: "'ss03' Style Set 3 lookup 15 subtable" uni0438.loclSRB
Substitution2: "'locl' Localized Forms in Cyrillic lookup 10 subtable" uni0438.1
Substitution2: "'locl' Localized Forms in Cyrillic lookup 9 subtable" uni0438.loclSRB
Substitution2: "'locl' Localized Forms in Cyrillic lookup 8 subtable" uni0438.loclSRB
AlternateSubs2: "'aalt' Access All Alternates lookup 1 subtable" uni0438.loclSRB uni0438.1
EndChar

StartChar: uni0439
Encoding: 1081 1081 463
Width: 1236
GlyphClass: 2
Flags: W
LayerCount: 2
Fore
SplineSet
796 1143 m 0,0,1
 650 1143 650 1143 582 1195.5 c 128,-1,2
 514 1248 514 1248 514 1338 c 0,3,4
 514 1368 514 1368 524 1413 c 1,5,-1
 692 1413 l 1,6,7
 687 1388 687 1388 687 1372 c 0,8,9
 687 1286 687 1286 798 1286 c 0,10,11
 869 1286 869 1286 923.5 1321.5 c 128,-1,12
 978 1357 978 1357 995 1413 c 1,13,-1
 1168 1413 l 1,14,15
 1137 1277 1137 1277 1049 1210 c 128,-1,16
 961 1143 961 1143 796 1143 c 0,0,1
969 0 m 1,17,-1
 711 0 l 1,18,-1
 839 539 l 2,19,20
 856 606 856 606 879 664 c 1,21,22
 871 653 871 653 313 0 c 1,23,-1
 32 0 l 1,24,-1
 270 999 l 1,25,-1
 528 999 l 1,26,-1
 400 461 l 2,27,28
 383 394 383 394 360 336 c 1,29,-1
 926 999 l 1,30,-1
 1207 999 l 1,31,-1
 969 0 l 1,17,-1
EndSplineSet
Substitution2: "'ss02' Style Set 2 lookup 16 subtable" uni0439.1
Substitution2: "'locl' Localized Forms in Cyrillic lookup 10 subtable" uni0439.1
Substitution2: "'aalt' Access All Alternates lookup 0 subtable" uni0439.1
EndChar

StartChar: uni043A
Encoding: 1082 1082 464
Width: 1078
GlyphClass: 2
Flags: W
LayerCount: 2
Fore
SplineSet
941 0 m 1,0,-1
 646 0 l 1,1,-1
 607 376 l 2,2,3
 600 430 600 430 575 456 c 128,-1,4
 550 482 550 482 498 482 c 2,5,-1
 396 482 l 1,6,-1
 285 0 l 1,7,-1
 32 0 l 1,8,-1
 270 1039 l 1,9,-1
 524 1039 l 1,10,-1
 439 669 l 1,11,-1
 504 669 l 1,12,-1
 833 1039 l 1,13,-1
 1134 1039 l 1,14,-1
 726 636 l 1,15,16
 779 636 779 636 814.5 579.5 c 128,-1,17
 850 523 850 523 862 462 c 2,18,-1
 941 0 l 1,0,-1
EndSplineSet
Substitution2: "'ss02' Style Set 2 lookup 16 subtable" uni043A.1
Substitution2: "'ss03' Style Set 3 lookup 15 subtable" uni043A.loclSRB
Substitution2: "'locl' Localized Forms in Cyrillic lookup 10 subtable" uni043A.1
Substitution2: "'locl' Localized Forms in Cyrillic lookup 9 subtable" uni043A.loclSRB
Substitution2: "'locl' Localized Forms in Cyrillic lookup 8 subtable" uni043A.loclSRB
AlternateSubs2: "'aalt' Access All Alternates lookup 1 subtable" uni043A.loclSRB uni043A.1
EndChar

